<svg xmlns="http://www.w3.org/2000/svg" id="a" viewBox="0 0 160 74">
<path fill="#33669a" d="M1.937 50.648c0-.704.352-1.056 1.056-1.056h7.2c1.024 0 1.973.165 2.848.495a6.246 6.246 0 0 1 2.24 1.425 6.617 6.617 0 0 1 1.456 2.24c.352.874.528 1.845.528 2.912s-.176 2.042-.528 2.928a6.759 6.759 0 0 1-1.456 2.272 6.303 6.303 0 0 1-2.24 1.456c-.875.342-1.824.511-2.848.511h-5.12v7.297c0 .704-.352 1.056-1.056 1.056H2.993c-.704 0-1.056-.352-1.056-1.056v-20.48ZM9.681 61.08c1.364 0 2.437-.395 3.216-1.184.778-.79 1.168-1.866 1.168-3.232 0-1.365-.39-2.426-1.168-3.184-.78-.757-1.84-1.136-3.185-1.136h-4.64v8.736h4.61ZM20.4 50.648c0-.704.352-1.056 1.057-1.056h.992c.682 0 1.024.352 1.024 1.056v7.328c0 .191-.006.373-.016.544s-.028.31-.048.416c-.022.15-.033.277-.033.384h.065c.17-.384.432-.795.784-1.233a6.777 6.777 0 0 1 1.296-1.215 6.887 6.887 0 0 1 1.76-.913c.66-.234 1.396-.351 2.208-.351 1.92 0 3.328.517 4.223 1.552.897 1.035 1.345 2.587 1.345 4.656v9.312c0 .704-.352 1.056-1.057 1.056h-.992c-.704 0-1.055-.352-1.055-1.056V62.52c0-.576-.037-1.11-.113-1.6a3.37 3.37 0 0 0-.447-1.28 2.395 2.395 0 0 0-.944-.864c-.406-.213-.928-.32-1.569-.32a5.14 5.14 0 0 0-2.143.448 4.995 4.995 0 0 0-1.712 1.263 6.142 6.142 0 0 0-1.137 1.92 6.813 6.813 0 0 0-.415 2.416v6.625c0 .704-.342 1.056-1.024 1.056h-.992c-.705 0-1.056-.352-1.056-1.056v-20.48ZM38 67.768c0-.832.16-1.552.48-2.16a4.535 4.535 0 0 1 1.28-1.52 7.238 7.238 0 0 1 1.809-.992c.672-.257 1.37-.448 2.096-.576.724-.128 1.434-.213 2.127-.256s1.318-.064 1.873-.064h.832v-.416c0-.662-.091-1.221-.273-1.68a2.774 2.774 0 0 0-.752-1.105c-.32-.276-.693-.474-1.12-.591s-.885-.176-1.376-.176c-.81 0-1.53.117-2.16.351-.629.236-1.125.46-1.487.672-.62.3-1.099.172-1.44-.383l-.257-.448c-.341-.64-.223-1.12.353-1.44.49-.278 1.178-.576 2.063-.897.885-.319 1.947-.48 3.185-.48 2.026 0 3.594.54 4.703 1.617s1.664 2.65 1.664 4.72v9.184c0 .704-.351 1.056-1.056 1.056h-.8c-.703 0-1.055-.352-1.055-1.056v-1.377c0-.128.01-.234.031-.319l.065-.256h-.065a6.484 6.484 0 0 1-1.216 1.697c-.426.426-.97.815-1.631 1.167-.662.352-1.472.528-2.432.528a6.646 6.646 0 0 1-2.049-.32 5.204 5.204 0 0 1-1.743-.944 4.687 4.687 0 0 1-1.2-1.504c-.3-.587-.449-1.264-.449-2.032Zm3.136-.256c0 .64.251 1.232.752 1.776s1.253.816 2.256.816c.683 0 1.297-.154 1.84-.464s1.003-.715 1.377-1.216a5.887 5.887 0 0 0 .863-1.664 5.68 5.68 0 0 0 .305-1.808v-.704h-.832c-.576 0-1.238.027-1.985.08a9.448 9.448 0 0 0-2.143.4c-.684.213-1.26.539-1.729.976-.47.437-.704 1.04-.704 1.808Zm14.721-10.465c0-.703.351-1.055 1.056-1.055h.895c.704 0 1.057.352 1.057 1.055v1.857c0 .17-.006.33-.017.48s-.026.278-.048.384a2.137 2.137 0 0 0-.032.352h.065a7.37 7.37 0 0 1 .72-1.568 6.141 6.141 0 0 1 1.104-1.36 5.54 5.54 0 0 1 1.424-.96 3.979 3.979 0 0 1 1.711-.368c.683 0 1.025.352 1.025 1.055v.897c0 .704-.385 1.056-1.152 1.056-.79 0-1.478.198-2.065.591a5.147 5.147 0 0 0-1.472 1.52c-.394.62-.687 1.329-.88 2.129s-.288 1.594-.288 2.384v5.632c0 .704-.351 1.056-1.055 1.056h-.992c-.705 0-1.056-.352-1.056-1.056v-14.08Zm11.392 0c0-.703.351-1.055 1.055-1.055h.896c.704 0 1.056.352 1.056 1.055v1.44c0 .215-.021.428-.064.64a1.187 1.187 0 0 0-.032.288h.064c.192-.468.475-.932.848-1.391s.81-.864 1.312-1.216c.501-.352 1.045-.64 1.632-.864s1.2-.336 1.84-.336c2.667 0 4.288 1.226 4.864 3.68h.064c.213-.47.512-.928.896-1.376s.821-.842 1.312-1.184a6.536 6.536 0 0 1 1.632-.816 5.842 5.842 0 0 1 1.888-.304c1.856 0 3.21.517 4.064 1.552.853 1.035 1.28 2.587 1.28 4.656v9.312c0 .704-.352 1.056-1.056 1.056h-.992c-.704 0-1.056-.352-1.056-1.056v-8.64c0-.576-.038-1.11-.112-1.6a3.791 3.791 0 0 0-.416-1.28 2.254 2.254 0 0 0-.864-.864c-.373-.213-.859-.32-1.456-.32-.747 0-1.42.176-2.016.528-.597.352-1.104.82-1.52 1.408s-.73 1.254-.944 2a8.214 8.214 0 0 0-.32 2.272v6.496c0 .704-.342 1.056-1.024 1.056h-1.024c-.682 0-1.024-.352-1.024-1.056v-8.64c0-.533-.032-1.045-.096-1.536a3.957 3.957 0 0 0-.384-1.296 2.213 2.213 0 0 0-.848-.896c-.373-.224-.87-.336-1.488-.336-.768 0-1.456.18-2.064.544-.608.363-1.12.837-1.536 1.424s-.73 1.253-.944 2a8.102 8.102 0 0 0-.32 2.24v6.496c0 .704-.351 1.056-1.056 1.056h-.992c-.704 0-1.055-.352-1.055-1.056v-14.08Z"/>
<path fill="#c91f4d" d="M96.144 72.184V50.841h7.935c6.656 0 11.168 4.416 11.168 10.688s-4.512 10.655-11.168 10.655h-7.935Zm3.743-3.296h4.192c4.64 0 7.328-3.328 7.328-7.36 0-4.127-2.56-7.39-7.328-7.39h-4.192v14.75Zm27.392-18.398c6.4 0 10.91 4.67 10.91 11.039 0 6.367-4.51 11.039-10.91 11.039s-10.911-4.672-10.911-11.04c0-6.367 4.511-11.038 10.91-11.038Zm0 3.327c-4.32 0-7.071 3.296-7.071 7.712 0 4.384 2.75 7.71 7.07 7.71 4.288 0 7.072-3.326 7.072-7.71 0-4.416-2.784-7.712-7.071-7.712Zm23.232-3.327c4.16 0 6.88 1.983 8.608 4.447l-3.073 1.728c-1.119-1.6-3.135-2.848-5.535-2.848-4.223 0-7.36 3.232-7.36 7.712s3.137 7.743 7.36 7.743c2.176 0 4.096-1.024 5.056-1.92v-3.327h-6.368v-3.296h10.111v7.999c-2.111 2.336-5.087 3.872-8.799 3.872-6.176 0-11.199-4.384-11.199-11.071s5.023-11.04 11.2-11.04Z"/>
<path fill="#231f20" d="M67.29 33.695c-.505 0-.96-.35-1.072-.865-.497-2.282.177-4.946.654-6.16 1.478-3.766 2.782-5.657 8.052-10.144l.572-.485c1.983-1.681 2.652-2.247 3.329-4.058a1.098 1.098 0 1 1 2.057.769c-.876 2.348-1.909 3.223-3.966 4.965l-.568.482c-5.202 4.43-6.17 6.061-7.43 9.274-.419 1.065-.91 3.246-.554 4.89a1.097 1.097 0 0 1-1.074 1.332Zm12.806 8.872H69.592a1.098 1.098 0 0 1 0-2.198H79.64c-.924-1.573-3.372-1.708-4.417-1.687a6.07 6.07 0 0 1-.58.027 1.099 1.099 0 0 1-.114-2.192c.044-.004.252-.024.574-.032.804-.102 1.167-.466 1.375-.75 1.22-1.667.348-5.657-.053-6.924a1.1 1.1 0 0 1 2.095-.664c.19.598 1.77 5.85-.169 8.742 1.588.482 3.18 1.508 3.7 3.649.022.09.032.183.031.276-.012.85-.713 1.753-1.985 1.753Z"/>
<path fill="#231f20" d="M69.592 42.567c-2.058 0-3.814-.982-5.08-2.837-2.532-3.715-2.585-10.32-1.51-13.06a1.099 1.099 0 0 1 2.045.803c-.895 2.281-.748 8.041 1.281 11.02.861 1.262 1.929 1.876 3.264 1.876a1.098 1.098 0 0 1 0 2.198Zm18.525 0h-2.82a1.098 1.098 0 0 1 0-2.198h2.135c-.282-.477-1.468-.808-2.085-.869a1.103 1.103 0 0 1-.96-.825c-1.94-7.687-.106-10.804.775-12.302.111-.19.21-.35.274-.494.442-.992.71-3.891-.116-6.967-.524-1.952-.396-3.412.391-4.46 1.18-1.573 3.426-1.62 5.23-1.657.637-.013 1.24-.025 1.695-.1 2.478-.404 2.776-2.548 2.802-2.791.022-.15.103-.704-.232-.82-.802-.277-3.233-.452-4.577-.498a1.098 1.098 0 0 1-1.029-.83c-.677-2.7-3.997-2.992-5.393-2.992-.798.003-3.596 1.822-4.575 2.788.755.579 2.497 1.443 3.344 1.575.152-.362.25-1.23.21-1.968a1.1 1.1 0 0 1 1.038-1.155c.599-.048 1.123.43 1.157 1.036.034.618.073 2.716-.875 3.717a1.8 1.8 0 0 1-1.334.584c-1.298 0-5.967-1.86-5.967-3.748 0-1.762 5.302-5.026 7.002-5.026 1.782 0 5.87.395 7.267 3.858 1.197.063 3.415.225 4.451.583 1.703.59 1.847 2.355 1.686 3.207-.109 1.295-1.239 4.097-4.621 4.65-.608.098-1.285.113-2.004.127-1.396.03-2.98.062-3.518.78-.435.58-.255 1.718-.025 2.57.928 3.454.703 6.856 0 8.432a7.641 7.641 0 0 1-.387.713c-.761 1.295-2.156 3.666-.706 9.957 1.043.235 2.76.856 3.247 2.451.108.455.26 1.423-.277 2.101a1.5 1.5 0 0 1-1.203.57Zm-8.78-34.663Z"/>
</svg>
