<svg xmlns="http://www.w3.org/2000/svg" id="a" viewBox="0 0 194 32">
<path fill="#231f20" d="M5.924 24.75a.87.87 0 0 1-.85-.686c-.394-1.809.14-3.92.519-4.883 1.172-2.986 2.205-4.485 6.383-8.042l.453-.385c1.572-1.332 2.103-1.781 2.64-3.217a.87.87 0 1 1 1.631.61c-.695 1.861-1.514 2.555-3.145 3.936l-.45.382c-4.124 3.511-4.891 4.805-5.891 7.352-.331.845-.722 2.574-.438 3.877a.87.87 0 0 1-.852 1.056Zm10.152 7.033H7.749a.87.87 0 0 1 0-1.742h7.965c-.733-1.247-2.673-1.355-3.502-1.338a4.81 4.81 0 0 1-.46.022.871.871 0 0 1-.09-1.738c.035-.003.2-.02.455-.026.638-.08.925-.369 1.09-.595.967-1.32.276-4.484-.042-5.488a.872.872 0 0 1 1.661-.527c.15.475 1.403 4.638-.134 6.93 1.259.383 2.52 1.196 2.934 2.893a.9.9 0 0 1 .024.22c-.01.673-.566 1.389-1.574 1.389Z"/>
<path fill="#231f20" d="M7.75 31.783c-1.633 0-3.025-.778-4.028-2.249-2.008-2.945-2.05-8.182-1.197-10.353a.871.871 0 0 1 1.62.636c-.709 1.809-.593 6.375 1.017 8.736.682 1.001 1.529 1.488 2.587 1.488a.87.87 0 0 1 0 1.742Zm14.685 0H20.2a.87.87 0 0 1 0-1.742h1.693c-.223-.378-1.164-.64-1.653-.69a.875.875 0 0 1-.76-.653c-1.539-6.094-.085-8.565.613-9.753.089-.15.167-.277.218-.392.35-.786.563-3.084-.092-5.523-.416-1.548-.315-2.704.31-3.535.935-1.247 2.716-1.284 4.146-1.314.505-.01.983-.02 1.343-.079A2.545 2.545 0 0 0 28.24 5.89c.017-.118.081-.558-.184-.65-.636-.22-2.563-.358-3.629-.394a.87.87 0 0 1-.815-.659c-.538-2.14-3.17-2.371-4.276-2.371-.632.002-2.85 1.443-3.626 2.21.598.458 1.979 1.143 2.65 1.248.12-.287.198-.975.167-1.56a.871.871 0 0 1 .823-.916c.474-.038.89.34.917.821.027.49.058 2.154-.694 2.947a1.426 1.426 0 0 1-1.058.463c-1.028 0-4.73-1.474-4.73-2.971 0-1.397 4.203-3.985 5.551-3.985 1.413 0 4.653.314 5.76 3.059.95.05 2.709.178 3.53.462 1.35.468 1.464 1.867 1.336 2.542-.086 1.028-.982 3.249-3.663 3.686-.482.079-1.02.09-1.588.102-1.107.023-2.363.049-2.79.617-.345.46-.201 1.363-.02 2.039.736 2.737.558 5.435 0 6.684-.072.164-.18.35-.306.566-.604 1.026-1.71 2.905-.56 7.893.827.186 2.188.679 2.574 1.943.086.36.207 1.128-.22 1.666a1.19 1.19 0 0 1-.953.452Zm-6.96-27.48Z"/>
<path fill="#33669a" d="M34.88 6.715c0-.704.352-1.056 1.056-1.056h7.2c1.024 0 1.973.166 2.848.496a6.256 6.256 0 0 1 2.24 1.424 6.627 6.627 0 0 1 1.456 2.24c.352.875.528 1.846.528 2.912 0 1.067-.176 2.043-.528 2.928s-.838 1.643-1.456 2.272a6.32 6.32 0 0 1-2.24 1.456 7.775 7.775 0 0 1-2.848.512h-5.12v7.296c0 .704-.352 1.056-1.056 1.056h-1.024c-.704 0-1.056-.352-1.056-1.056V6.715Zm7.744 10.432c1.365 0 2.437-.395 3.216-1.184.778-.79 1.168-1.866 1.168-3.232 0-1.365-.39-2.426-1.168-3.184C45.06 8.79 44 8.41 42.656 8.41h-4.64v8.736h4.608Zm10.72-10.432c0-.704.352-1.056 1.056-1.056h.991c.683 0 1.025.352 1.025 1.056v7.328c0 .192-.006.373-.016.544a3.37 3.37 0 0 1-.049.416 2.75 2.75 0 0 0-.031.384h.064c.17-.384.432-.795.784-1.232a6.775 6.775 0 0 1 1.296-1.216 6.887 6.887 0 0 1 1.76-.912c.66-.235 1.396-.352 2.207-.352 1.92 0 3.329.517 4.225 1.552.896 1.035 1.344 2.587 1.344 4.656v9.312c0 .704-.352 1.056-1.056 1.056h-.992c-.705 0-1.056-.352-1.056-1.056v-8.608c0-.576-.038-1.109-.112-1.6a3.384 3.384 0 0 0-.448-1.28 2.395 2.395 0 0 0-.945-.864c-.405-.213-.927-.32-1.567-.32-.768 0-1.483.15-2.144.448-.662.299-1.232.72-1.712 1.264s-.86 1.184-1.137 1.92a6.801 6.801 0 0 0-.415 2.416v6.624c0 .704-.342 1.056-1.025 1.056H54.4c-.704 0-1.056-.352-1.056-1.056V6.715Zm17.6 17.12c0-.832.16-1.552.48-2.16a4.534 4.534 0 0 1 1.28-1.52 7.22 7.22 0 0 1 1.808-.992c.671-.256 1.37-.448 2.095-.576s1.435-.213 2.129-.256a30.888 30.888 0 0 1 1.871-.064h.832v-.416c0-.661-.09-1.221-.272-1.68-.18-.459-.431-.827-.752-1.104-.32-.277-.693-.475-1.12-.592s-.885-.176-1.376-.176c-.81 0-1.53.117-2.16.352-.63.235-1.125.459-1.488.672-.618.299-1.098.171-1.44-.384l-.255-.448c-.342-.64-.225-1.12.352-1.44.49-.277 1.178-.576 2.064-.896.884-.32 1.946-.48 3.184-.48 2.026 0 3.594.539 4.703 1.616 1.11 1.078 1.664 2.65 1.664 4.72v9.184c0 .704-.352 1.056-1.055 1.056h-.8c-.705 0-1.056-.352-1.056-1.056v-1.377c0-.127.01-.234.031-.319l.064-.256h-.064a6.495 6.495 0 0 1-1.215 1.696c-.428.427-.972.816-1.633 1.168-.66.352-1.471.528-2.431.528a6.643 6.643 0 0 1-2.049-.32 5.206 5.206 0 0 1-1.743-.944 4.7 4.7 0 0 1-1.2-1.504c-.3-.587-.448-1.264-.448-2.032Zm3.135-.256c0 .64.25 1.232.752 1.776.501.543 1.253.816 2.256.816.683 0 1.297-.154 1.84-.464a4.421 4.421 0 0 0 1.377-1.216 5.887 5.887 0 0 0 .863-1.664 5.68 5.68 0 0 0 .305-1.808v-.704h-.833c-.576 0-1.237.027-1.983.08a9.425 9.425 0 0 0-2.144.4c-.684.213-1.26.539-1.728.976-.47.437-.705 1.04-.705 1.808ZM88.8 13.115c0-.704.351-1.056 1.055-1.056h.896c.704 0 1.056.352 1.056 1.056v1.856c0 .171-.005.33-.016.48s-.027.277-.048.384a2.142 2.142 0 0 0-.032.352h.064a7.37 7.37 0 0 1 .72-1.568 6.21 6.21 0 0 1 1.104-1.36 5.57 5.57 0 0 1 1.424-.96 3.987 3.987 0 0 1 1.712-.368c.683 0 1.025.352 1.025 1.056v.896c0 .704-.385 1.056-1.153 1.056-.79 0-1.477.198-2.064.592a5.14 5.14 0 0 0-1.471 1.52 6.937 6.937 0 0 0-.88 2.128 10.19 10.19 0 0 0-.288 2.384v5.632c0 .704-.352 1.056-1.057 1.056h-.992c-.704 0-1.055-.352-1.055-1.056v-14.08Zm11.391 0c0-.704.352-1.056 1.056-1.056h.896c.704 0 1.056.352 1.056 1.056v1.44c0 .214-.021.427-.064.64a1.185 1.185 0 0 0-.032.288h.064c.192-.469.474-.933.848-1.392a6.48 6.48 0 0 1 1.312-1.216 7.444 7.444 0 0 1 1.632-.864 5.125 5.125 0 0 1 1.84-.336c2.667 0 4.288 1.227 4.864 3.68h.064a5.81 5.81 0 0 1 .896-1.376 6.953 6.953 0 0 1 1.312-1.184 6.524 6.524 0 0 1 1.632-.816 5.83 5.83 0 0 1 1.888-.304c1.856 0 3.21.517 4.064 1.552.853 1.035 1.28 2.587 1.28 4.656v9.312c0 .704-.352 1.056-1.056 1.056h-.992c-.704 0-1.056-.352-1.056-1.056v-8.64c0-.576-.037-1.11-.112-1.6s-.214-.917-.416-1.28a2.245 2.245 0 0 0-.864-.864c-.374-.213-.859-.32-1.456-.32-.747 0-1.419.176-2.016.528s-1.104.821-1.52 1.408a6.529 6.529 0 0 0-.944 2 8.235 8.235 0 0 0-.32 2.272v6.496c0 .704-.342 1.056-1.024 1.056h-1.024c-.683 0-1.024-.352-1.024-1.056v-8.64c0-.533-.032-1.045-.096-1.536a3.939 3.939 0 0 0-.384-1.296 2.21 2.21 0 0 0-.848-.896c-.374-.224-.87-.336-1.488-.336-.768 0-1.456.181-2.064.544s-1.12.838-1.536 1.424a6.518 6.518 0 0 0-.944 2 8.122 8.122 0 0 0-.32 2.24v6.496c0 .704-.352 1.056-1.056 1.056h-.992c-.704 0-1.056-.352-1.056-1.056v-14.08Z"/>
<path fill="#c91f4d" d="M129.087 28.25V6.91h7.935c6.656 0 11.167 4.415 11.167 10.687s-4.511 10.655-11.167 10.655h-7.935Zm3.743-3.295h4.192c4.64 0 7.327-3.328 7.327-7.36 0-4.127-2.56-7.39-7.327-7.39h-4.192v14.75Zm27.392-18.398c6.399 0 10.91 4.671 10.91 11.039s-4.511 11.039-10.91 11.039-10.912-4.672-10.912-11.04 4.512-11.038 10.912-11.038Zm0 3.327c-4.32 0-7.072 3.296-7.072 7.712 0 4.383 2.752 7.711 7.072 7.711 4.287 0 7.07-3.328 7.07-7.711 0-4.416-2.783-7.712-7.07-7.712Zm23.232-3.327c4.16 0 6.879 1.983 8.607 4.447l-3.072 1.728c-1.12-1.6-3.136-2.848-5.535-2.848-4.224 0-7.36 3.232-7.36 7.712s3.136 7.743 7.36 7.743c2.176 0 4.096-1.024 5.056-1.92v-3.327h-6.369v-3.296h10.112v8c-2.112 2.335-5.087 3.87-8.8 3.87-6.175 0-11.198-4.383-11.198-11.07s5.023-11.04 11.199-11.04Z"/>
</svg>
