<svg xmlns="http://www.w3.org/2000/svg" id="a" viewBox="0 0 32 32">
<defs>
<linearGradient id="c" x1="275.463" x2="275.463" y1="0" y2="32" gradientTransform="matrix(1 0 0 -1 -259.463 32)" gradientUnits="userSpaceOnUse">
<stop offset="0" stop-color="#ee2a7b"/>
<stop offset="1" stop-color="#da1c5c"/>
</linearGradient>
</defs>
<rect id="d" width="32" height="32" x="0" y="0" fill="url(#c)" rx="10.771" ry="10.771" transform="rotate(180 16 16)"/>
<g fill="#231f20">
<path d="M8.58 22.674a.663.663 0 0 1-.646-.522c-.3-1.377.108-2.983.395-3.715.892-2.27 1.678-3.41 4.854-6.115l.343-.291c1.198-1.014 1.6-1.356 2.009-2.448a.662.662 0 1 1 1.24.463c-.528 1.417-1.151 1.944-2.393 2.996l-.34.288c-3.136 2.67-3.72 3.655-4.48 5.592-.252.642-.55 1.956-.333 2.948a.663.663 0 0 1-.648.804Zm7.722 5.348H9.97a.662.662 0 0 1 0-1.325h6.058c-.559-.949-2.05-1.025-2.663-1.017a3.562 3.562 0 0 1-.351.017.663.663 0 0 1-.069-1.321c.027-.003.153-.015.347-.02.484-.062.703-.28.828-.452.734-1 .21-3.41-.03-4.176a.663.663 0 0 1 1.263-.4c.114.361 1.067 3.527-.102 5.271.956.29 1.916.91 2.231 2.2.013.055.02.111.018.168-.008.512-.43 1.055-1.197 1.055Z"/>
<path d="M9.969 28.022c-1.24 0-2.3-.591-3.063-1.71-1.526-2.24-1.558-6.222-.91-7.874a.663.663 0 0 1 1.233.484c-.54 1.376-.452 4.849.772 6.644.52.762 1.162 1.131 1.968 1.131a.662.662 0 0 1 0 1.325Zm11.17 0h-1.702a.662.662 0 0 1 0-1.325h1.287c-.17-.288-.885-.487-1.257-.524a.665.665 0 0 1-.578-.497c-1.17-4.634-.063-6.514.468-7.417.067-.115.126-.211.165-.298.266-.598.428-2.347-.07-4.201-.316-1.177-.239-2.056.235-2.689.712-.948 2.066-.976 3.153-.998.385-.008.748-.015 1.022-.06a1.936 1.936 0 0 0 1.69-1.684c.014-.09.062-.424-.14-.494-.483-.167-1.948-.273-2.759-.3a.662.662 0 0 1-.62-.501c-.409-1.628-2.41-1.803-3.252-1.803-.481.001-2.168 1.098-2.758 1.68.454.349 1.504.87 2.015.95.09-.22.151-.75.127-1.186a.662.662 0 1 1 1.323-.073c.02.373.044 1.637-.527 2.24a1.086 1.086 0 0 1-.805.354c-.782 0-3.597-1.122-3.597-2.26 0-1.062 3.197-3.03 4.222-3.03 1.074 0 3.539.238 4.381 2.325.722.038 2.06.136 2.684.352 1.027.356 1.114 1.42 1.016 1.934-.065.781-.746 2.47-2.787 2.803-.366.06-.774.069-1.207.077-.842.018-1.797.038-2.121.47-.263.35-.153 1.036-.015 1.55.559 2.082.423 4.133 0 5.083a4.612 4.612 0 0 1-.234.43c-.458.781-1.3 2.211-.426 6.004.63.141 1.664.516 1.958 1.478.065.273.158.857-.166 1.266a.903.903 0 0 1-.725.344ZM15.845 7.124Z"/>
</g>
<g fill="#fff">
<path d="M8.34 22.436a.662.662 0 0 1-.646-.522c-.3-1.375.107-2.982.394-3.714.892-2.27 1.678-3.41 4.855-6.116l.345-.292c1.195-1.014 1.599-1.355 2.007-2.447a.661.661 0 1 1 1.24.464c-.528 1.416-1.15 1.943-2.391 2.993l-.343.29c-3.136 2.671-3.72 3.655-4.48 5.592-.252.643-.549 1.958-.333 2.949a.662.662 0 0 1-.648.803Zm7.721 5.349H9.728a.662.662 0 0 1 0-1.325h6.058c-.558-.948-2.033-1.03-2.663-1.018a3.553 3.553 0 0 1-.35.017.663.663 0 0 1-.069-1.321 4.56 4.56 0 0 1 .346-.02c.485-.061.704-.281.83-.453.734-1.004.21-3.41-.033-4.174a.663.663 0 0 1 1.264-.4c.114.36 1.066 3.527-.102 5.27.957.291 1.917.91 2.23 2.2.014.055.02.111.02.167-.008.512-.43 1.057-1.198 1.057Z"/>
<path d="M9.728 27.785c-1.24 0-2.3-.592-3.063-1.71-1.526-2.24-1.558-6.223-.91-7.875a.662.662 0 0 1 1.233.484c-.54 1.376-.451 4.849.772 6.644.52.762 1.163 1.132 1.968 1.132a.662.662 0 0 1 0 1.325Zm11.169 0h-1.7a.662.662 0 0 1 0-1.325h1.287c-.17-.288-.885-.487-1.257-.524a.665.665 0 0 1-.578-.497c-1.17-4.635-.064-6.515.467-7.418.067-.114.126-.21.165-.298.266-.598.428-2.346-.07-4.2-.316-1.177-.239-2.057.236-2.69.712-.947 2.065-.976 3.153-.998.384-.008.748-.015 1.022-.06a1.935 1.935 0 0 0 1.69-1.684c.012-.09.061-.424-.14-.494-.484-.167-1.95-.272-2.76-.3a.662.662 0 0 1-.62-.5c-.409-1.628-2.41-1.804-3.252-1.804-.481.001-2.168 1.098-2.758 1.68.455.35 1.505.87 2.016.95.091-.218.15-.741.127-1.186a.663.663 0 0 1 .625-.697.66.66 0 0 1 .698.625c.02.372.044 1.637-.528 2.24a1.084 1.084 0 0 1-.804.353c-.783 0-3.598-1.122-3.598-2.26 0-1.062 3.197-3.03 4.222-3.03 1.074 0 3.539.238 4.381 2.326.722.038 2.06.135 2.684.351 1.027.356 1.114 1.42 1.016 1.934-.065.781-.746 2.47-2.786 2.803-.366.06-.775.069-1.208.077-.841.018-1.797.038-2.12.47-.263.35-.154 1.036-.016 1.55.56 2.083.424 4.134 0 5.084a4.61 4.61 0 0 1-.234.43c-.458.78-1.3 2.21-.425 6.003.629.142 1.664.517 1.957 1.478.066.274.158.858-.166 1.267a.905.905 0 0 1-.726.344Zm-5.293-20.9Z"/>
</g>
</svg>
