<svg xmlns="http://www.w3.org/2000/svg" viewBox="0 0 32 32">
<defs>
<linearGradient id="a" x1="256.239" x2="256.239" y1="0" y2="32" gradientTransform="matrix(1 0 0 -1 -240.24 32)" gradientUnits="userSpaceOnUse">
<stop offset="0" stop-color="#ee2a7b"/>
<stop offset="1" stop-color="#da1c5c"/>
</linearGradient>
</defs>
<rect width="32" height="32" fill="url(#a)" rx="10.771" ry="10.771" transform="rotate(180 16 16)"/>
<g fill="#231f20">
<path d="m3.394 21.24.641-.544c2.242-1.897 2.996-2.537 3.761-4.582a1.24 1.24 0 1 1 2.322.867c-.99 2.652-2.155 3.64-4.48 5.608 0 0-.428.54-.637.54-1.072 0-1.607-1.888-1.607-1.888Z"/>
<path d="M15.732 28.404a17.862 17.862 0 0 0-.604-4.47c-.591-2.204-.447-3.85.44-5.034 1.332-1.774 3.867-1.827 5.902-1.869.72-.015 1.4-.028 1.914-.112 2.797-.457 3.134-2.877 3.164-3.151.024-.168.115-.794-.264-.925-.903-.313-3.647-.511-5.164-.563a1.24 1.24 0 0 1-1.161-.937c-.765-3.046-4.512-3.375-6.087-3.375-.9.002-4.059 2.055-5.163 3.146.85.652 2.817 1.627 3.772 1.776.17-.41.284-1.404.238-2.218a1.24 1.24 0 1 1 2.476-.138c.039.699.083 3.065-.986 4.195a2.03 2.03 0 0 1-1.507.66c-1.464 0-6.732-2.099-6.732-4.229 0-1.989 5.983-5.673 7.902-5.673 2.011 0 6.624.446 8.201 4.354 1.352.071 3.855.254 5.023.659 1.923.665 2.086 2.658 1.903 3.619-.122 1.462-1.397 4.623-5.217 5.247-.685.112-1.45.128-2.26.145-1.576.033-3.364.07-3.97.878-.492.655-.287 1.94-.028 2.901.488 1.818 1.005 4.737.693 5.211-.704 1.069-2.485-.097-2.485-.097ZM8.376 11.511Z"/>
</g>
<g fill="#fff">
<path d="M2.944 20.796c-.019-.162.646-.547.646-.547 2.238-1.897 2.993-2.536 3.756-4.58a1.239 1.239 0 1 1 2.322.868c-.988 2.65-2.154 3.638-4.476 5.604 0 0-.346.379-.64.543-.542.302-1.535-1.272-1.608-1.888Z"/>
<path d="M15.273 28.555c-.256-.592-.1-3.223-.596-5.065-.591-2.204-.447-3.851.442-5.034 1.332-1.775 3.866-1.828 5.902-1.87.719-.015 1.4-.028 1.913-.112 2.796-.457 3.132-2.877 3.162-3.152.025-.168.116-.794-.262-.924-.904-.313-3.648-.51-5.165-.562a1.24 1.24 0 0 1-1.161-.937c-.765-3.048-4.512-3.377-6.087-3.377-.9.003-4.059 2.056-5.163 3.147.852.653 2.818 1.628 3.774 1.777.17-.408.282-1.388.238-2.22a1.24 1.24 0 0 1 1.17-1.305c.676-.054 1.267.485 1.305 1.17.039.697.083 3.065-.987 4.195a2.03 2.03 0 0 1-1.506.66c-1.464 0-6.733-2.1-6.733-4.231 0-1.989 5.983-5.673 7.902-5.673 2.011 0 6.624.446 8.2 4.354 1.353.072 3.856.254 5.025.659 1.922.665 2.084 2.658 1.902 3.619-.123 1.462-1.398 4.624-5.215 5.247-.686.112-1.45.128-2.261.145-1.576.032-3.364.07-3.97.879-.492.655-.288 1.94-.029 2.901.54 2.011 1.027 5.213.687 5.712-.35.513-2.246.554-2.487-.002ZM7.925 11.066Z"/>
</g>
</svg>
