<svg xmlns="http://www.w3.org/2000/svg" viewBox="0 0 280 39"><path d="M1.66,2.51c0-.87.42-1.31,1.26-1.31H14.44A12.85,12.85,0,0,1,19.08,2a10.61,10.61,0,0,1,3.6,2.29A10.38,10.38,0,0,1,25,7.83a11.81,11.81,0,0,1,.84,4.52A12.21,12.21,0,0,1,25,17a10.69,10.69,0,0,1-2.34,3.58,10.22,10.22,0,0,1-3.6,2.31,12.64,12.64,0,0,1-4.64.82H5.29V36.88A1.14,1.14,0,0,1,4,38.19H2.92c-.84,0-1.26-.44-1.26-1.31ZM14,20.4a8.17,8.17,0,0,0,6-2.13,7.87,7.87,0,0,0,2.19-5.92A7.72,7.72,0,0,0,20,6.59,8.1,8.1,0,0,0,14,4.46H5.29V20.4Z" fill="#369"/><path d="M32.65,2.51c0-.87.42-1.31,1.26-1.31H35c.84,0,1.26.44,1.26,1.31V18H57.75V2.51A1.14,1.14,0,0,1,59,1.2h1a1.16,1.16,0,0,1,1.31,1.31V36.88a1.16,1.16,0,0,1-1.31,1.31H59a1.14,1.14,0,0,1-1.27-1.31V21.3H36.28V36.88c0,.87-.42,1.31-1.26,1.31H33.91c-.84,0-1.26-.44-1.26-1.31Z" fill="#369"/><path d="M80.28,2.25a1.3,1.3,0,0,1,1.42-1h1.73a1.35,1.35,0,0,1,1.42,1.05L97.59,36.67c.28,1-.07,1.52-1,1.52H95.38a1.3,1.3,0,0,1-1.48-1L90,26.4H75.12l-3.9,10.74a1.38,1.38,0,0,1-1.47,1h-1.1c-1.06,0-1.43-.51-1.11-1.52Zm8.63,21L84,9.83a23.75,23.75,0,0,1-.74-2.37L82.64,5h-.1c-.18.7-.41,1.52-.69,2.47s-.52,1.74-.73,2.37l-5,13.42Z" fill="#369"/><path d="M103.75,2.51c0-.87.42-1.31,1.26-1.31h10a28.6,28.6,0,0,1,3.94.23,9.72,9.72,0,0,1,2.79.82,9.11,9.11,0,0,1,4.05,3.68,10.82,10.82,0,0,1,1.42,5.58,11.17,11.17,0,0,1-1.92,6.55,9.05,9.05,0,0,1-5.07,3.66v.11c.07.1.18.28.34.55s.36.57.6.92l7.21,13.37a.92.92,0,0,1-.89,1.52h-1.37a1.55,1.55,0,0,1-1.53-.89l-7.89-14.69h-9.31V36.88a1.14,1.14,0,0,1-1.27,1.31H105c-.84,0-1.26-.44-1.26-1.31Zm12.41,16.84a7,7,0,0,0,5.32-2.1,7.86,7.86,0,0,0,2-5.63,7.4,7.4,0,0,0-1-3.92,6.38,6.38,0,0,0-2.87-2.56,8.24,8.24,0,0,0-1.94-.52,19.88,19.88,0,0,0-2.9-.16h-7.36V19.35Z" fill="#369"/><path d="M137.27,2.41c0-.81.43-1.21,1.31-1.21H140a1.59,1.59,0,0,1,1.53,1l9.26,20.73,1,2.37c.35.88.65,1.6.89,2.16h.11c.17-.56.44-1.28.79-2.16s.68-1.67,1-2.37L163.79,2.2a1.57,1.57,0,0,1,1.52-1h1.42a1.26,1.26,0,0,1,1.32,1.21l2.79,34.41c0,.92-.39,1.37-1.26,1.37h-1.06c-.87,0-1.31-.4-1.31-1.21l-2-24.68c0-.35-.06-.75-.08-1.21s0-.92-.05-1.39,0-.93,0-1.37V7.14H165c-.11.35-.24.76-.4,1.21s-.32.92-.5,1.4-.35.93-.52,1.37l-.48,1.18-8.31,18a1.44,1.44,0,0,1-1.47,1h-1.27a1.39,1.39,0,0,1-1.52-1l-8.26-18c-.29-.67-.62-1.53-1-2.58s-.71-2-1-2.68h-.11c0,.7,0,1.58,0,2.63s-.07,1.93-.14,2.63L138.11,37a1.18,1.18,0,0,1-1.32,1.21h-1c-1,0-1.37-.45-1.26-1.37Z" fill="#369"/><path d="M177.36,19.72a19.82,19.82,0,0,1,1.43-7.55,18.65,18.65,0,0,1,3.92-6.08,17.92,17.92,0,0,1,5.92-4A18.58,18.58,0,0,1,196.05.57a24.59,24.59,0,0,1,6.52,1,19.37,19.37,0,0,1,5.63,2.52,1.13,1.13,0,0,1,.21,1.79l-.47.68a1.1,1.1,0,0,1-1.79.32,19.55,19.55,0,0,0-4.84-2.13A18.48,18.48,0,0,0,196.15,4a15,15,0,0,0-6,1.18,14.54,14.54,0,0,0-4.73,3.26,14.86,14.86,0,0,0-3.13,5,16.73,16.73,0,0,0-1.14,6.24,17.47,17.47,0,0,0,1.11,6.31,15,15,0,0,0,3.08,5,14.1,14.1,0,0,0,10.49,4.47,13.66,13.66,0,0,0,3.82-.52A18.16,18.16,0,0,0,203,33.56a15.39,15.39,0,0,0,2.69-1.74A11.38,11.38,0,0,0,207.52,30V23.77h-5.05a1.14,1.14,0,0,1-1.27-1.31v-.63c0-.88.42-1.32,1.27-1.32h7.2c.85,0,1.27.44,1.27,1.32V36.88a1.14,1.14,0,0,1-1.27,1.31h-.73c-.88,0-1.32-.38-1.32-1.16V34.4a2.93,2.93,0,0,1,.06-.63h-.11a11.09,11.09,0,0,1-1.87,1.74A16.15,16.15,0,0,1,203,37.14a19.13,19.13,0,0,1-3.45,1.21,16.24,16.24,0,0,1-4,.47,17.89,17.89,0,0,1-7.21-1.44,17.39,17.39,0,0,1-5.74-4,19.12,19.12,0,0,1-3.81-6.08A20.19,20.19,0,0,1,177.36,19.72Z" fill="#369"/><path d="M218.69,1.57h6.66V18h.17L238.35,1.57h7.39L234.48,15.9l13.16,22.29h-7.33l-9.8-17.08-5.16,6.5V38.19h-6.66Z" fill="#c9134a"/><path d="M252.18,1.57h11.76c7.56,0,13.1,2.29,13.1,9,0,3.48-1.9,6.84-5,8v.22c4,.9,7,3.75,7,8.68,0,7.34-6.05,10.75-14.11,10.75H252.18Zm11.2,15.06c5,0,7.17-2,7.17-5.09,0-3.48-2.36-4.76-7.06-4.76h-4.65v9.85ZM264.22,33c5.32,0,8.23-1.84,8.23-5.93,0-3.76-2.86-5.43-8.23-5.43h-5.38V33Z" fill="#c9134a"/></svg>