<svg xmlns="http://www.w3.org/2000/svg" xmlns:xlink="http://www.w3.org/1999/xlink" viewBox="0 0 256 141">
<defs>
<linearGradient id="lh-b" x1="215.639" x2="208.744" y1="136.649" y2="93.115" gradientUnits="userSpaceOnUse">
<stop offset=".258" stop-color="#6996bc"/>
<stop offset=".458" stop-color="#33669a"/>
<stop offset=".609" stop-color="#6996bc"/>
</linearGradient>
<linearGradient id="lh-c" x1="220.999" x2="241.876" y1="27.061" y2="29.746" gradientUnits="userSpaceOnUse">
<stop offset="0" stop-color="#6996bc"/>
<stop offset=".5" stop-color="#33669a"/>
<stop offset="1" stop-color="#6996bc"/>
</linearGradient>
<linearGradient id="lh-d" x1="221.298" x2="224.807" y1="20.134" y2="13.565" gradientUnits="userSpaceOnUse">
<stop offset=".144" stop-color="#6996bc"/>
<stop offset=".45" stop-color="#99cc68"/>
</linearGradient>
<linearGradient id="lh-e" x1="211.591" x2="214.689" y1="18.018" y2="7.869" gradientUnits="userSpaceOnUse">
<stop offset=".347" stop-color="#6996bc"/>
<stop offset=".6" stop-color="#99cc68"/>
</linearGradient>
<linearGradient id="lh-f" x1="199.855" x2="202.423" y1="15.221" y2="6.315" gradientUnits="userSpaceOnUse">
<stop offset=".349" stop-color="#6996bc"/>
<stop offset=".6" stop-color="#99cc68"/>
</linearGradient>
<linearGradient id="lh-g" x1="228.905" x2="248.94" y1="41.118" y2="41.118" gradientUnits="userSpaceOnUse">
<stop offset=".294" stop-color="#99cc68"/>
<stop offset=".597" stop-color="#6996bc"/>
</linearGradient>
<linearGradient xlink:href="#lh-d" id="lh-h" x1="225.629" x2="220.891" y1="127.871" y2="121.312"/>
<linearGradient xlink:href="#lh-d" id="lh-i" x1="214.521" x2="211.606" y1="133.546" y2="122.431"/>
<linearGradient xlink:href="#lh-d" id="lh-j" x1="203.367" x2="200.451" y1="136.472" y2="125.357"/>
<linearGradient xlink:href="#lh-g" id="lh-k" x1="248.94" x2="228.905" y1="-96.767" y2="-96.767" gradientTransform="matrix(1 0 0 -1 0 3.113)"/>
<linearGradient id="lh-l" x1="9972.556" x2="10004.298" y1="53.312" y2="53.312" gradientTransform="matrix(-.89722 0 0 .87636 9202.956 24.174)" gradientUnits="userSpaceOnUse">
<stop offset="0" stop-color="#c91f4c"/>
<stop offset=".108" stop-color="#c41e49"/>
<stop offset=".22" stop-color="#b81c40"/>
<stop offset=".334" stop-color="#a31832"/>
<stop offset=".449" stop-color="#86131f"/>
<stop offset=".517" stop-color="#721011"/>
<stop offset=".522" stop-color="#741012"/>
<stop offset=".604" stop-color="#921527"/>
<stop offset=".689" stop-color="#aa1937"/>
<stop offset=".78" stop-color="#bb1c43"/>
<stop offset=".878" stop-color="#c51e49"/>
<stop offset="1" stop-color="#c91f4c"/>
</linearGradient>
<style>
.lh{fill:#c91f4c}
</style>
</defs>
<path fill="url(#lh-b)" d="M192.092 134.295c-1.128-.352-1.017-.958.149-.851 9.16.533 41.38 8.097 36.428-21.528-1.52-9.097-1.587-18.504-1.587-18.9 0-4.31 5.531-4.384 5.531.535 0 .092-.23 4.605 1.082 17.671 3.494 34.792-35.002 24.88-41.603 23.073Z"/>
<path fill="url(#lh-c)" d="M199.989 14.48c-10.915-4.245-25.37-14.098-25.587-13.475s12.451 11.575 23.876 16.237c15.374 6.274 52.823 13.811 51.487 31.018-.3 3.858 5.492 3.924 5.492 0 0-22.284-36.72-26.567-55.268-33.78Z"/>
<path fill="url(#lh-d)" d="m220.352 23.49-2.136-.143c0-1.942 1.694-5.307 2.823-6.909 1.744-2.476 3.44-4.554 5.128-5.876l1.923 1.282c-4.104 3.213-7.738 9.282-7.738 11.645Z"/>
<path fill="url(#lh-e)" d="m211.851 19.506-2.885-.106c.428-.748 5.274-7.375 6.235-14.601l1.992.684c-.418 3.144-.854 5.264-3.877 11.047-2.24 4.286-1.444 2.942-1.465 2.976Z"/>
<path fill="url(#lh-f)" d="m200.587 15.726-3.49.344c.057-.05 5.116-3.077 5.116-10.542l2.095-.21c0 8.134-3.463 10.189-3.72 10.408Z"/>
<path fill="url(#lh-g)" d="m229.185 43.277-.28-1.736c.49-.533 12.14-4.154 20.035-1.785l-.209 1.754c-7.645-1.632-19.428 1.733-19.546 1.767Z"/>
<path fill="#99cc68" d="M192.092 6.705c-1.128.352-1.017.958.149.851 9.16-.533 41.38-8.097 36.428 21.528-1.52 9.097-1.587 18.504-1.587 18.9 0 4.31 5.531 4.384 5.531-.535 0-.092-.23-4.605 1.082-17.671 3.494-34.792-35.002-24.88-41.603-23.073Zm7.897 119.815c-10.915 4.245-25.37 14.098-25.587 13.475s12.451-11.575 23.876-16.237c15.374-6.274 52.823-13.811 51.487-31.018-.3-3.858 5.492-3.924 5.492 0 0 22.284-36.72 26.567-55.268 33.78Z"/>
<path fill="url(#lh-h)" d="m220.352 117.51-2.136.143c0 1.942 1.694 5.307 2.823 6.909 1.744 2.476 3.44 4.554 5.128 5.876l1.923-1.282c-4.104-3.213-7.738-9.282-7.738-11.645Z"/>
<path fill="url(#lh-i)" d="m211.851 121.494-2.885.106c.428.748 5.274 7.375 6.235 14.601l1.992-.684c-.418-3.144-.854-5.264-3.877-11.047-2.24-4.286-1.444-2.942-1.465-2.976Z"/>
<path fill="url(#lh-j)" d="m200.587 125.274-1.73 1.334c.057.05 3.356 1.4 3.356 8.864l2.095.21c0-8.134-3.463-10.189-3.72-10.408Z"/>
<path fill="url(#lh-k)" d="m229.185 97.723-.28 1.736c.485.535 12.13 4.145 20.035 1.785l-.209-1.754c-7.645 1.632-19.428-1.733-19.546-1.767Z"/>
<path fill="url(#lh-l)" d="M255.413 86.349h-5.63c0-6.248-4.877-9.75-10.524-13.806-5.777-4.149-12.325-8.851-12.325-17.102h5.629c0 5.915 4.756 9.33 10.264 13.286 5.9 4.237 12.586 9.039 12.586 17.622Z"/>
<path class="lh" d="M226.934 86.349h5.629c0-6.248 4.878-9.75 10.525-13.806 5.777-4.149 12.325-8.851 12.325-17.102h-5.63c0 5.915-4.755 9.33-10.263 13.286-5.9 4.237-12.586 9.039-12.586 17.622Z"/>
<path fill="#33669a" d="M1.017 60.845c0-3.675.633-7.087 1.897-10.237 1.265-3.15 3.03-5.882 5.298-8.197 2.266-2.314 4.975-4.128 8.125-5.44 3.15-1.313 6.61-1.97 10.38-1.97 2.149 0 4.116.192 5.906.573 1.79.382 3.376.836 4.761 1.36 1.384.526 2.589 1.086 3.615 1.683 1.026.597 1.849 1.134 2.47 1.61 1.098.86 1.24 1.958.43 3.293l-.93 1.432c-.813 1.242-1.91 1.432-3.294.573a73.132 73.132 0 0 0-2.005-1.217 18.584 18.584 0 0 0-2.827-1.325 25.747 25.747 0 0 0-3.58-1.038c-1.312-.286-2.732-.429-4.259-.429-2.96 0-5.584.501-7.875 1.503-2.29 1.002-4.248 2.375-5.87 4.117-1.623 1.742-2.852 3.782-3.687 6.12-.835 2.34-1.252 4.845-1.252 7.517 0 2.674.429 5.226 1.288 7.66.86 2.434 2.1 4.558 3.723 6.372 1.621 1.814 3.59 3.257 5.906 4.33 2.314 1.074 4.926 1.611 7.839 1.611 1.67 0 3.221-.179 4.653-.537s2.731-.787 3.901-1.288 2.184-1.038 3.043-1.611a49.027 49.027 0 0 0 2.148-1.503c1.288-1.002 2.385-.906 3.293.286l1.073 1.432c.906 1.193.788 2.29-.358 3.293a52.578 52.578 0 0 1-2.613 1.897c-1.073.74-2.362 1.444-3.865 2.112-1.504.668-3.222 1.241-5.154 1.718-1.934.476-4.045.716-6.336.716-3.914 0-7.457-.68-10.631-2.04-3.174-1.36-5.895-3.233-8.16-5.62-2.268-2.386-4.01-5.178-5.227-8.376-1.217-3.197-1.826-6.658-1.826-10.38ZM53.06 38.223c0-1.575.789-2.363 2.363-2.363h2.219c1.576 0 2.363.788 2.363 2.363v37.44c0 1.003.096 1.815.285 2.435.192.62.454 1.098.79 1.431.331.335.69.562 1.072.68.383.12.763.204 1.146.25.524.097.967.3 1.324.61.358.31.538.8.538 1.467v1.718c0 .764-.18 1.36-.538 1.79s-.99.644-1.896.644c-.955 0-2.006-.107-3.15-.322a7.729 7.729 0 0 1-3.15-1.36c-.956-.692-1.755-1.706-2.398-3.043-.645-1.335-.967-3.15-.967-5.44v-38.3Zm21.047 4.725c-1.574 0-2.362-.788-2.362-2.363v-2.362c0-1.575.788-2.363 2.362-2.363h2.434c1.575 0 2.363.788 2.363 2.363v2.362c0 1.575-.788 2.363-2.363 2.363h-2.434Zm-2.291 9.592c0-1.574.788-2.362 2.363-2.362h2.219c1.575 0 2.362.788 2.362 2.362v31.5c0 1.574-.787 2.362-2.362 2.362h-2.219c-1.575 0-2.363-.788-2.363-2.363V52.54Zm16.251 0c0-1.574.788-2.362 2.363-2.362h2.004c1.575 0 2.362.788 2.362 2.362v3.222c0 .478-.048.955-.142 1.432a2.612 2.612 0 0 0-.073.644h.144c.333-.763.87-1.647 1.61-2.649.74-1.002 1.683-1.933 2.828-2.792s2.48-1.586 4.01-2.183c1.527-.596 3.292-.895 5.297-.895 4.295 0 7.433 1.158 9.414 3.472 1.98 2.315 2.97 5.788 2.97 10.416v20.832c0 1.575-.787 2.363-2.361 2.363h-2.22c-1.575 0-2.363-.788-2.363-2.363V64.782c0-1.288-.083-2.48-.25-3.58-.167-1.097-.49-2.05-.966-2.863-.478-.81-1.17-1.455-2.076-1.933-.908-.476-2.077-.716-3.508-.716-1.767 0-3.39.347-4.868 1.038a11.87 11.87 0 0 0-3.83 2.828c-1.074 1.193-1.91 2.613-2.505 4.26-.598 1.646-.896 3.4-.896 5.262v14.961c0 1.575-.787 2.363-2.362 2.363H90.43c-1.575 0-2.363-.788-2.363-2.363V52.54Z"/>
<path class="lh" d="M130.973 86.402V35.839h21.302c10.385 0 16.146 7.126 16.146 15.54 0 8.415-5.837 15.54-16.146 15.54h-13.72v19.483h-7.582Zm20.316-43.892h-12.735v17.74h12.735c5.458 0 9.325-3.563 9.325-8.87 0-5.306-3.867-8.869-9.325-8.869Zm48.284-7.504c9.475 0 15.767 4.32 20.012 10.006l-6.14 3.563c-2.88-3.866-7.96-6.823-13.872-6.823-10.537 0-18.421 8.036-18.421 19.407 0 11.295 7.884 19.482 18.42 19.482 5.61 0 10.386-2.73 12.812-5.003V66.54h-16.223v-6.67h23.803v18.572c-4.851 5.382-11.825 8.945-20.391 8.945-14.479 0-26.229-10.46-26.229-26.228s11.75-26.153 26.229-26.153Z"/>
</svg>
