<svg xmlns="http://www.w3.org/2000/svg" viewBox="0 0 129.6 180"><path d="M119.66,176.29a1.2,1.2,0,0,0,1.68-.93C116.23,101.54,50.74,94.17,8.43,61.29c-1.26,8.19,4.75,16.4,5.9,25,29.94,16.83,68,34.11,91,60.28,6,6.85,13,15.09,13.48,26.9C118.82,175,118.83,175.9,119.66,176.29Z" fill="#369" fill-rule="evenodd"/><path d="M77.69,129.63c-5.12-5.22-12.55-8.13-18-13-11.36,6-21.85,12.82-34,18,2.77,7.55,8.92,11.74,13,18C51.72,145,65,137.57,77.69,129.63Z" fill="#369" fill-rule="evenodd"/><path d="M99.69,3.63h-30c17.34,13.81,47,26.5,47,55,0,19.56-17.81,30.34-31,41,3.83,4.5,9.83,6.83,13,12C125.25,93.94,125.73,22.34,99.69,3.63Z" fill="#369" fill-rule="evenodd"/><path d="M51.44,27.43h9.82c5.86,0,10.9,2.15,10.9,8.91,0,6.57-5.12,9.42-10.73,9.42H58.54v8.5h-7.1ZM61.1,40.14c2.8,0,4.12-1.4,4.12-3.8S63.66,33,60.93,33H58.54v7.1Z" fill="#369"/><path d="M77,41.05c0-9,6.19-14.12,13.37-14.12a11.79,11.79,0,0,1,8.75,3.55l-3.71,4.3A6.57,6.57,0,0,0,90.65,33c-3.63,0-6.36,2.89-6.36,7.76,0,5,2.23,7.84,7,7.84a4,4,0,0,0,2.06-.49V44.44h-4V38.66H99.65V51.45a13.55,13.55,0,0,1-9.08,3.3C83.05,54.75,77,50.21,77,41.05Z" fill="#369"/><path d="M51.44,57.45h7.1v10h.16l6.77-10h7.76l-8,10.89L74.8,84.27H67L61.1,74l-2.56,3.63v6.68h-7.1Z" fill="#369"/><path d="M79,57.45h9.66c5.61,0,10.15,1.4,10.15,6.68,0,2.31-1.32,5-3.38,5.78v.17a6.1,6.1,0,0,1,4.62,6.27c0,5.53-4.79,7.92-10.57,7.92H79ZM88.5,67.93c2.31,0,3.39-1.07,3.39-2.72s-1.08-2.32-3.39-2.32H86.11v5Zm.5,10.9c2.8,0,4.12-1,4.12-3S91.8,73.13,89,73.13H86.11v5.7Z" fill="#369"/></svg>