<svg xmlns="http://www.w3.org/2000/svg" viewBox="0 0 32 32">
<defs>
<linearGradient id="a" x1="16" x2="16" y1="31.754" y2=".757" gradientUnits="userSpaceOnUse">
<stop offset="0" stop-color="#0095da"/>
<stop offset="1" stop-color="#27aae1"/>
</linearGradient>
</defs>
<rect width="32" height="32" fill="url(#a)" rx="10.771" ry="10.771"/>
<path fill="#231f20" d="M26.38 15.713c-.243-.288-2.323-2.058-3.267-3.455-2.587-3.83-8.593-8.274-8.848-8.462l-1.858-1.368v6.31c-1.08.575-3.041 1.825-3.717 3.617-.177.47-.608.785-1.107 1.15-.885.647-2.365 1.73-1.504 4.087 1.09 2.98 4.446 4.513 4.589 4.577l.162.059c.048.014 4.881 1.459 4.881 4.259v2.343h.002l-.002.006a1.164 1.164 0 1 0 2.328 0l-.001-.006h.006v-2.343c0-4.348-5.613-6.213-6.482-6.476-.4-.197-2.608-1.353-3.292-3.22-.252-.689-.179-.767.69-1.403.664-.486 1.491-1.091 1.913-2.21.466-1.234 2.492-2.35 3.165-2.643l.702-.306v-3.1c1.944 1.582 4.92 4.186 6.44 6.434.924 1.367 2.788 3.149 3.113 3.457.65.616 1.397.455 1.719.167.758-.678.725-1.046.367-1.474Z"/>
<path fill="#fff" d="M26.113 15.42c-.367-.497-2.453-2.126-3.443-3.59-2.586-3.83-8.592-8.274-8.848-8.462L11.965 2v6.309c-1.081.575-3.041 1.826-3.717 3.617-.177.47-.608.785-1.107 1.15-.885.648-2.366 1.731-1.505 4.088 1.092 2.98 4.447 4.512 4.59 4.576l.161.06c.05.013 4.882 1.458 4.882 4.258v2.343h.001l-.001.007a1.164 1.164 0 1 0 2.328 0l-.001-.007h.006v-2.343c0-4.347-5.613-6.212-6.482-6.475-.4-.197-2.609-1.353-3.292-3.221-.252-.688-.179-.767.69-1.402.664-.487 1.491-1.092 1.913-2.211.465-1.234 2.492-2.349 3.165-2.643l.701-.305v-3.1c1.945 1.582 4.92 4.186 6.442 6.434 1.09 1.614 3.174 3.596 3.734 3.964s.79.428 1.497-.168c.73-.616.476-1.059.143-1.51Z"/>
</svg>
