<svg xmlns="http://www.w3.org/2000/svg" viewBox="0 0 32 32">
<defs>
<linearGradient id="a" x1="16" x2="16" y1="31.754" y2=".757" gradientUnits="userSpaceOnUse">
<stop offset="0" stop-color="#0095da"/>
<stop offset="1" stop-color="#27aae1"/>
</linearGradient>
</defs>
<rect width="32" height="32" fill="url(#a)" rx="10.771" ry="10.771"/>
<path fill="#231f20" d="M24.91 15.691h.001a2.7 2.7 0 0 0-.026-.02c-1.044-.802-2.258-1.407-3.432-1.991-2.025-1.008-4.12-2.05-5.56-4.18-1.552-2.297-5.155-4.963-5.308-5.076l-1.115-.82v3.784c-.648.346-1.824 1.096-2.23 2.17-.106.282-.365.472-.664.691-.53.388-1.42 1.038-.903 2.452.655 1.788 2.668 2.708 2.754 2.746l.097.035c.03.009 2.929.876 2.929 2.556v1.409a.698.698 0 1 0 1.396 0v-.004h.003v-1.405c0-2.609-3.367-3.728-3.889-3.885-.24-.119-1.565-.812-1.975-1.933-.15-.413-.107-.46.414-.841.399-.292.895-.655 1.148-1.327.28-.74 1.495-1.409 1.899-1.585l.42-.183v-1.86c1.167.949 2.953 2.51 3.865 3.86 1.645 2.435 4.01 3.612 6.096 4.649 1.175.584 2.284 1.136 3.224 1.864l.026.02c1.315.924 1.901 2.27 1.901 4.364 0 3.073-2.388 5.641-5.324 5.641a5.105 5.105 0 0 1-.892-.092c-1.751-.363-3.14-1.75-3.14-3.305 0-1.873 1.668-3.397 3.717-3.397a.63.63 0 0 0 0-1.26c-2.744 0-4.977 2.089-4.977 4.657 0 1.029.566 2.12 1.242 2.916s2.195 1.744 4.05 1.744c3.775 0 6.724-3.06 6.724-6.904 0-2.548-.786-4.293-2.47-5.49Z"/>
<path fill="#fff" d="M24.645 15.434a2.7 2.7 0 0 0-.025-.02c-1.045-.802-2.258-1.407-3.432-1.991-2.026-1.008-4.12-2.05-5.56-4.18-1.552-2.297-5.155-4.963-5.309-5.076l-1.114-.82V7.13c-.649.345-1.825 1.096-2.23 2.17-.107.282-.365.472-.664.691-.531.388-1.42 1.038-.903 2.452.655 1.788 2.668 2.708 2.753 2.746l.097.035c.03.009 2.93.876 2.93 2.556v1.409a.698.698 0 1 0 1.396 0v-.004h.003V17.78c0-2.609-3.368-3.728-3.89-3.886-.24-.118-1.564-.811-1.974-1.932-.151-.413-.108-.46.414-.841.398-.292.894-.655 1.147-1.327.28-.74 1.496-1.409 1.9-1.585l.42-.183v-1.86c1.167.949 2.953 2.51 3.865 3.86 1.645 2.435 4.01 3.612 6.096 4.649 1.174.584 2.284 1.136 3.224 1.864l.026.02c1.315.924 1.901 2.27 1.901 4.364 0 3.073-2.388 5.641-5.325 5.641a5.105 5.105 0 0 1-.891-.092c-1.752-.363-3.14-1.75-3.14-3.305 0-1.874 1.667-3.397 3.717-3.397a.63.63 0 0 0 0-1.26c-2.745 0-4.977 2.088-4.977 4.657 0 1.028.566 2.12 1.242 2.916s2.195 1.744 4.05 1.744c3.775 0 6.724-3.06 6.724-6.904 0-2.548-.787-4.293-2.47-5.49Z"/>
</svg>
