<svg xmlns="http://www.w3.org/2000/svg" viewBox="0 0 122 26">
<defs>
<linearGradient id="wm_lg" x1="10637.189" x2="10652.264" y1="-4.97" y2="-4.97" gradientTransform="matrix(-.89722 0 0 .87636 9665.036 21.827)" gradientUnits="userSpaceOnUse">
<stop offset="0" stop-color="#c91f4c"/>
<stop offset=".108" stop-color="#c41e49"/>
<stop offset=".22" stop-color="#b81c40"/>
<stop offset=".334" stop-color="#a31832"/>
<stop offset=".449" stop-color="#86131f"/>
<stop offset=".517" stop-color="#721011"/>
<stop offset=".522" stop-color="#741012"/>
<stop offset=".604" stop-color="#921527"/>
<stop offset=".689" stop-color="#aa1937"/>
<stop offset=".78" stop-color="#bb1c43"/>
<stop offset=".878" stop-color="#c51e49"/>
<stop offset="1" stop-color="#c91f4c"/>
</linearGradient>
<style>
.w{fill:#c91f4c}
</style>
</defs>
<path fill="url(#wm_lg)" d="M121.174 24.81h-2.673c0-2.967-2.317-4.63-4.999-6.556-2.744-1.97-5.853-4.204-5.853-8.123h2.673c0 2.81 2.259 4.432 4.875 6.31 2.802 2.013 5.977 4.293 5.977 8.37Z"/>
<path class="w" d="M107.648 24.81h2.674c0-2.967 2.317-4.63 4.999-6.556 2.744-1.97 5.853-4.204 5.853-8.123h-2.673c0 2.81-2.26 4.432-4.875 6.31-2.802 2.013-5.978 4.293-5.978 8.37Z"/>
<path fill="#33669a" d="M.352 12.697c0-1.745.3-3.365.9-4.861s1.44-2.794 2.517-3.893c1.076-1.1 2.363-1.96 3.859-2.584 1.496-.623 3.14-.935 4.93-.935 1.02 0 1.954.09 2.805.272.85.181 1.604.397 2.26.646a11.723 11.723 0 0 1 2.89 1.564c.522.408.59.93.205 1.563l-.442.68c-.386.59-.907.68-1.564.273-.25-.159-.567-.351-.952-.579a8.859 8.859 0 0 0-1.343-.628 12.153 12.153 0 0 0-1.7-.493 9.468 9.468 0 0 0-2.023-.204c-1.406 0-2.652.238-3.74.714S6.936 5.36 6.166 6.187a8.319 8.319 0 0 0-1.751 2.906 10.545 10.545 0 0 0-.595 3.57c0 1.27.204 2.483.611 3.638.409 1.157.998 2.166 1.769 3.027s1.705 1.547 2.805 2.057 2.34.765 3.723.765c.793 0 1.53-.085 2.21-.255a12.16 12.16 0 0 0 1.853-.613c.555-.237 1.037-.492 1.445-.764s.748-.51 1.02-.715c.612-.475 1.133-.43 1.564.137l.51.68c.43.567.374 1.088-.17 1.564-.317.25-.732.55-1.241.9-.51.352-1.122.687-1.836 1.004a14.6 14.6 0 0 1-2.449.816c-.917.226-1.92.34-3.008.34-1.859 0-3.542-.323-5.05-.97-1.507-.645-2.799-1.535-3.875-2.668a11.795 11.795 0 0 1-2.483-3.978C.64 16.11.352 14.466.352 12.698ZM25.07 1.954c0-.748.373-1.122 1.121-1.122h1.054c.748 0 1.122.374 1.122 1.122v17.782c0 .476.046.861.137 1.156.09.295.214.521.374.68.158.159.328.267.51.323.18.056.362.096.543.119.25.045.46.142.63.288.17.148.254.38.254.698v.816c0 .362-.085.646-.255.85s-.47.306-.901.306c-.453 0-.952-.051-1.496-.153s-1.042-.317-1.496-.646c-.453-.329-.833-.81-1.139-1.445-.306-.635-.459-1.496-.459-2.584V1.954Zm9.995 2.243c-.748 0-1.122-.374-1.122-1.121V1.954c0-.748.374-1.122 1.122-1.122h1.156c.748 0 1.123.374 1.123 1.122v1.122c0 .747-.375 1.121-1.123 1.121h-1.156Zm-1.088 4.557c0-.748.374-1.122 1.122-1.122h1.054c.748 0 1.122.374 1.122 1.122v14.96c0 .748-.374 1.122-1.122 1.122H35.1c-.748 0-1.122-.374-1.122-1.122V8.754Zm7.718 0c0-.748.374-1.122 1.122-1.122h.952c.748 0 1.122.374 1.122 1.122v1.53c0 .226-.023.454-.068.68a1.29 1.29 0 0 0-.034.306h.068c.158-.363.413-.782.765-1.259.351-.475.8-.918 1.344-1.325a8.008 8.008 0 0 1 1.903-1.037c.725-.284 1.564-.425 2.517-.425 2.04 0 3.53.55 4.47 1.649.94 1.1 1.411 2.748 1.411 4.947v9.894c0 .748-.374 1.122-1.122 1.122h-1.053c-.748 0-1.123-.374-1.123-1.122v-9.146c0-.612-.04-1.179-.119-1.7a3.799 3.799 0 0 0-.459-1.36 2.421 2.421 0 0 0-.986-.918c-.43-.226-.986-.34-1.666-.34a5.38 5.38 0 0 0-2.312.493 5.624 5.624 0 0 0-1.819 1.343 6.09 6.09 0 0 0-1.19 2.023 7.285 7.285 0 0 0-.425 2.499v7.106c0 .748-.374 1.122-1.122 1.122h-1.054c-.748 0-1.122-.374-1.122-1.122V8.754Z"/>
<path class="w"  d="M62.073 24.836V.826h10.114c4.932 0 7.667 3.384 7.667 7.38s-2.771 7.379-7.667 7.379h-6.514v9.25h-3.6Zm9.646-20.842h-6.046v8.423h6.046c2.592 0 4.428-1.692 4.428-4.211s-1.836-4.212-4.428-4.212ZM94.65.43c4.5 0 7.487 2.053 9.503 4.752l-2.916 1.692c-1.368-1.836-3.78-3.24-6.587-3.24-5.004 0-8.747 3.816-8.747 9.215 0 5.364 3.743 9.25 8.747 9.25 2.663 0 4.932-1.295 6.083-2.375v-4.319H93.03v-3.168h11.303v8.82c-2.304 2.555-5.615 4.246-9.683 4.246-6.875 0-12.454-4.967-12.454-12.454 0-7.487 5.58-12.418 12.454-12.418Z"/>
</svg>
