<svg xmlns="http://www.w3.org/2000/svg" viewBox="0 0 310 310"><path d="M30.1,5.3H82.46c31.24,0,58.08,11.44,58.08,47.52,0,35-27.28,50.16-57.2,50.16H67.94V148.3H30.1ZM81.58,73.06c15,0,22-7.48,22-20.24s-8.36-17.6-22.88-17.6H67.94V73.06Z" fill="#369"/><path d="M166.5,77.9c0-48,33-75.24,71.28-75.24,21.12,0,36.52,8.36,46.64,18.92l-19.8,22.88c-7-6.16-14.08-9.24-25.52-9.24-19.36,0-33.88,15.4-33.88,41.36,0,26.84,11.88,41.8,37.4,41.8,4,0,8.36-.88,11-2.64V95.94H232.5V65.14h54.56v68.2c-10.12,9.68-28.16,17.6-48.4,17.6C198.62,150.94,166.5,126.74,166.5,77.9Z" fill="#369"/><path d="M30.1,165.3H67.94v53.24h.88L104.9,165.3h41.36l-42.68,58.08,51,84.92H113.26l-31.68-55L67.94,272.66V308.3H30.1Z" fill="#c9134a"/><path d="M177.06,165.3h51.48c29.92,0,54.12,7.48,54.12,35.64,0,12.32-7,26.4-18,30.8v.88c13.64,4,24.64,14.52,24.64,33.44,0,29.48-25.52,42.24-56.32,42.24H177.06Zm50.6,55.88c12.32,0,18-5.72,18-14.52s-5.72-12.32-18-12.32H214.9v26.84Zm2.64,58.08c15,0,22-5.28,22-15.84s-7-14.52-22-14.52H214.9v30.36Z" fill="#c9134a"/></svg>
