<?xml version="1.0" encoding="UTF-8"?><svg id="a" xmlns="http://www.w3.org/2000/svg" xmlns:xlink="http://www.w3.org/1999/xlink" viewBox="0 0 1000 187.08609"><defs><radialGradient id="b" cx="3732.28748" cy="84.48838" fx="3732.28748" fy="84.48838" r="44.386" gradientTransform="translate(3872.37531 15.00408) rotate(-180) scale(.89241 -.99464)" gradientUnits="userSpaceOnUse"><stop offset=".60259" stop-color="#721011"/><stop offset="1" stop-color="#c91f4c"/></radialGradient></defs><path d="M9.07637,84.39167c0-35.84693,26.57938-60.3279,59.80346-60.3279,22.90717,0,37.24607,11.01632,46.33895,24.65595l-14.86334,7.86871c-6.12024-9.79245-17.66132-16.9619-31.47561-16.9619-23.60659,0-41.79235,18.53571-41.79235,44.76515,0,26.05478,18.18576,44.76515,41.79235,44.76515,13.81429,0,25.35537-7.16914,31.47561-16.96159l14.86334,7.86871c-9.2677,13.63963-23.43178,24.65595-46.33895,24.65595-33.22407,0-59.80346-24.48098-59.80346-60.32822Z" style="fill:#33679a; stroke-width:0px;"/><path d="M125.71065,25.9872h15.73788v116.63428h-15.73788V25.9872Z" style="fill:#33679a; stroke-width:0px;"/><path d="M157.35936,34.03088c0-5.59564,4.72141-10.14208,10.14208-10.14208,5.59564,0,10.14208,4.54644,10.14208,10.14208s-4.54644,9.96742-10.14208,9.96742c-5.42067,0-10.14208-4.37178-10.14208-9.96742ZM159.80755,58.16223h15.73773v84.45925h-15.73773V58.16223Z" style="fill:#33679a; stroke-width:0px;"/><path d="M250.90994,88.58848c0-13.98895-7.16929-18.53539-18.01095-18.53539-9.7923,0-18.71036,5.94527-23.25681,12.24049v60.3279h-15.73773V58.16223h15.73773v11.89086c5.59564-6.81982,16.78693-13.98926,29.90165-13.98926,17.83613,0,27.10399,9.44282,27.10399,27.27896v59.2787h-15.73788v-54.033Z" style="fill:#33679a; stroke-width:0px;"/><path d="M285.3585,25.9872h49.13677c23.95638,0,37.24591,16.4373,37.24591,35.84724s-13.46451,35.84693-37.24591,35.84693h-31.65043v44.94012h-17.48635V25.9872ZM332.22205,41.3753h-29.37721v40.91828h29.37721c12.59012,0,21.50819-8.21865,21.50819-20.45914s-8.91807-20.45914-21.50819-20.45914Z" style="fill:#c91f4c; stroke-width:0px;"/><path d="M438.71362,24.06377c21.85813,0,36.37184,9.96711,46.16414,23.08215l-14.16392,8.21865c-6.64485-8.91822-18.36073-15.73804-32.00021-15.73804-24.30601,0-42.49177,18.53571-42.49177,44.76515,0,26.05478,18.18576,44.94012,42.49177,44.94012,12.94006,0,23.95638-6.2949,29.55202-11.54092v-20.98374h-37.42088v-15.3881h54.90739v42.84171c-11.19129,12.41546-27.2788,20.63411-47.03852,20.63411-33.39889,0-60.50287-24.13135-60.50287-60.50319s27.10399-60.3279,60.50287-60.3279Z" style="fill:#c91f4c; stroke-width:0px;"/><path d="M579.12324,145.44686h-14.8143c0-18.76111-12.83623-29.2796-27.69926-41.45876-15.20316-12.45811-32.43484-26.57876-32.43484-51.35551h14.8143c0,17.76359,12.51696,28.02025,27.01027,39.89679,15.52617,12.72275,33.12382,27.1429,33.12382,52.91748Z" style="fill:url(#b); stroke-width:0px;"/><path d="M518.98914,145.06827h-14.8143c0-27.7416,18.38611-42.47465,34.60796-55.47355,13.69692-10.97553,25.52613-20.45447,25.52613-36.01567h14.8143c0,22.67398-15.79844,35.33353-31.07679,47.57651-14.94289,11.97399-29.05731,23.2842-29.05731,43.91271Z" style="fill:#c91f4d; stroke-width:0px;"/><path d="M665.89775,25.76946h54.98145c20.90332,0,33.02344,12.82275,33.02344,29.86182,0,14.75537-9.66113,24.59229-20.37598,26.87598,12.47168,1.93213,22.65918,14.57959,22.65918,28.80811,0,18.44434-12.2959,31.61865-33.90137,31.61865h-56.38672V25.76946ZM717.54131,75.48088c11.76953,0,18.26855-7.37793,18.26855-17.03906s-6.49902-17.21436-18.26855-17.21436h-34.07812v34.25342h34.07812ZM718.41924,127.476c12.29688,0,19.67383-7.02637,19.67383-18.44434,0-9.66113-6.6748-18.09277-19.67383-18.09277h-34.95605v36.53711h34.95605Z" style="fill:#33679a; stroke-width:0px;"/><path d="M770.93681,25.76946h15.80957v117.16455h-15.80957V25.76946Z" style="fill:#33679a; stroke-width:0px;"/><path d="M799.91728,100.42424c0-24.4165,16.51172-44.44141,42.86035-44.44141,26.52441,0,42.86133,20.0249,42.86133,44.44141,0,24.59277-16.33691,44.61768-42.86133,44.61768-26.34863,0-42.86035-20.0249-42.86035-44.61768ZM869.12724,100.42424c0-15.98486-9.31055-30.38867-26.34961-30.38867-16.86328,0-26.34863,14.40381-26.34863,30.38867,0,16.16113,9.48535,30.56494,26.34863,30.56494,17.03906,0,26.34961-14.40381,26.34961-30.56494Z" style="fill:#33679a; stroke-width:0px;"/><path d="M905.83525,153.12248c7.02637,8.08008,15.63379,11.24219,27.22754,11.24219,13.17383,0,26.34863-6.32422,26.34863-24.24121v-11.06641c-6.49902,8.43164-16.51172,14.57959-27.92969,14.57959-21.95801,0-37.7666-16.16064-37.7666-43.91455,0-27.22754,15.80859-43.73926,37.7666-43.73926,11.06641,0,21.0791,5.26953,27.92969,14.40381v-12.2959h15.80957v81.50586c0,29.15918-21.25488,37.7666-42.1582,37.7666-14.22852,0-24.59277-2.98633-34.78125-12.64746l7.55371-11.59326ZM959.41142,82.50725c-4.3916-6.85059-14.05273-12.47168-23.53809-12.47168-15.80957,0-25.64648,12.2959-25.64648,29.68652,0,17.56543,9.83691,29.86182,25.64648,29.86182,9.48535,0,19.14648-5.79688,23.53809-12.64746v-34.4292Z" style="fill:#33679a; stroke-width:0px;"/></svg>