<svg xmlns="http://www.w3.org/2000/svg" viewBox="0 0 160 74">
<path fill="#33669a" d="M5.68 50.235c0-.704.353-1.056 1.057-1.056h7.2a8.01 8.01 0 0 1 2.848.496 6.266 6.266 0 0 1 2.24 1.424 6.636 6.636 0 0 1 1.456 2.24c.351.875.527 1.846.527 2.913s-.175 2.043-.527 2.927a6.778 6.778 0 0 1-1.456 2.273 6.338 6.338 0 0 1-2.24 1.456 7.779 7.779 0 0 1-2.848.512h-5.12v7.295c0 .705-.353 1.056-1.057 1.056H6.737c-.704 0-1.057-.351-1.057-1.056v-20.48Zm7.744 10.433c1.366 0 2.438-.395 3.216-1.185.78-.789 1.168-1.866 1.168-3.231s-.389-2.427-1.168-3.185c-.778-.757-1.84-1.136-3.183-1.136h-4.64v8.737h4.607Zm10.72-10.433c0-.704.353-1.056 1.057-1.056h.99c.683 0 1.025.352 1.025 1.056v7.328c0 .192-.006.374-.015.544a3.27 3.27 0 0 1-.05.416c-.02.15-.03.277-.03.385h.063c.171-.385.433-.795.784-1.233a6.886 6.886 0 0 1 3.056-2.127c.661-.235 1.397-.353 2.208-.353 1.92 0 3.328.518 4.225 1.553.895 1.035 1.343 2.587 1.343 4.655v9.312c0 .705-.351 1.056-1.055 1.056h-.993c-.704 0-1.055-.351-1.055-1.056v-8.608c0-.576-.038-1.108-.113-1.6a3.398 3.398 0 0 0-.448-1.28 2.396 2.396 0 0 0-.944-.864c-.405-.213-.928-.32-1.567-.32-.769 0-1.484.15-2.145.449s-1.231.72-1.712 1.263c-.48.544-.858 1.184-1.136 1.92s-.416 1.541-.416 2.416v6.624c0 .705-.341 1.056-1.024 1.056H25.2c-.704 0-1.057-.351-1.057-1.056v-20.48Zm17.601 17.12c0-.832.159-1.552.48-2.16a4.534 4.534 0 0 1 1.28-1.52c.533-.405 1.135-.736 1.807-.992s1.371-.448 2.096-.576a19.02 19.02 0 0 1 2.129-.256 31.235 31.235 0 0 1 1.87-.063h.833v-.416c0-.661-.091-1.222-.272-1.681-.181-.458-.431-.826-.752-1.103s-.693-.475-1.12-.592-.886-.177-1.376-.177c-.811 0-1.531.118-2.16.352-.63.235-1.125.46-1.488.672-.618.3-1.099.171-1.44-.383l-.256-.449c-.341-.64-.224-1.12.352-1.44.49-.276 1.179-.575 2.064-.896.885-.32 1.947-.48 3.184-.48 2.026 0 3.595.539 4.704 1.616 1.11 1.078 1.664 2.652 1.664 4.72v9.184c0 .705-.352 1.056-1.055 1.056h-.801c-.704 0-1.056-.351-1.056-1.056v-1.377c0-.126.01-.233.032-.319.02-.085.042-.17.064-.256h-.064a6.506 6.506 0 0 1-1.215 1.697c-.428.426-.972.815-1.633 1.168-.661.351-1.472.527-2.432.527a6.64 6.64 0 0 1-2.048-.32c-.66-.213-1.243-.528-1.744-.944s-.901-.917-1.2-1.504-.447-1.263-.447-2.032Zm3.135-.256c0 .64.25 1.233.752 1.777.501.543 1.253.815 2.256.815.683 0 1.296-.154 1.84-.464a4.403 4.403 0 0 0 1.376-1.216 5.888 5.888 0 0 0 .864-1.664c.202-.608.304-1.21.304-1.807v-.704h-.832c-.576 0-1.237.026-1.983.08a9.402 9.402 0 0 0-2.145.4c-.683.213-1.259.538-1.728.976-.47.437-.704 1.04-.704 1.807ZM59.6 56.635c0-.704.352-1.055 1.056-1.055h.896c.704 0 1.056.351 1.056 1.055v1.857c0 .17-.005.33-.016.48s-.027.277-.048.383a2.148 2.148 0 0 0-.032.353h.064a7.38 7.38 0 0 1 .72-1.569 6.23 6.23 0 0 1 1.104-1.36 5.6 5.6 0 0 1 1.424-.96 3.996 3.996 0 0 1 1.712-.367c.682 0 1.024.351 1.024 1.055v.896c0 .704-.384 1.057-1.152 1.057-.79 0-1.478.197-2.064.591a5.132 5.132 0 0 0-1.471 1.52 6.923 6.923 0 0 0-.881 2.129c-.192.8-.287 1.595-.287 2.384v5.631c0 .705-.353 1.056-1.057 1.056h-.992c-.704 0-1.056-.351-1.056-1.056v-14.08Zm11.392 0c0-.704.351-1.055 1.055-1.055h.897c.704 0 1.055.351 1.055 1.055v1.44c0 .214-.021.428-.063.64a1.182 1.182 0 0 0-.032.289h.063c.193-.47.475-.934.849-1.393.373-.458.81-.863 1.311-1.216a7.486 7.486 0 0 1 1.632-.864 5.126 5.126 0 0 1 1.841-.336c2.666 0 4.288 1.227 4.863 3.68h.065a5.8 5.8 0 0 1 .895-1.375 6.96 6.96 0 0 1 1.313-1.185 6.51 6.51 0 0 1 1.632-.815 5.82 5.82 0 0 1 1.887-.305c1.857 0 3.211.518 4.065 1.553.852 1.035 1.28 2.587 1.28 4.655v9.312c0 .705-.352 1.056-1.057 1.056h-.992c-.703 0-1.055-.351-1.055-1.056v-8.64c0-.575-.038-1.109-.113-1.6a3.755 3.755 0 0 0-.416-1.28 2.236 2.236 0 0 0-.863-.863c-.374-.213-.86-.32-1.456-.32-.747 0-1.419.175-2.017.528a4.906 4.906 0 0 0-1.52 1.407 6.535 6.535 0 0 0-.944 2 8.255 8.255 0 0 0-.319 2.272v6.496c0 .705-.342 1.056-1.024 1.056h-1.025c-.682 0-1.023-.351-1.023-1.056v-8.64c0-.532-.032-1.045-.096-1.535a3.92 3.92 0 0 0-.385-1.296 2.206 2.206 0 0 0-.847-.897c-.374-.223-.87-.336-1.489-.336-.767 0-1.456.182-2.063.544a5.028 5.028 0 0 0-1.536 1.424 6.524 6.524 0 0 0-.945 2 8.143 8.143 0 0 0-.319 2.24v6.496c0 .705-.352 1.056-1.056 1.056h-.993c-.704 0-1.055-.351-1.055-1.056v-14.08Z"/>
<path fill="#c91f4d" d="M98.927 61.116c0-6.56 4.896-11.04 11.04-11.04 4.479 0 7.135 2.241 8.735 4.8l-3.2 1.632c-1.024-1.76-3.072-3.103-5.536-3.103-4.063 0-7.199 3.231-7.199 7.71s3.136 7.713 7.2 7.713c2.463 0 4.511-1.313 5.535-3.104l3.2 1.632c-1.632 2.56-4.256 4.799-8.736 4.799-6.143 0-11.039-4.48-11.039-11.04Zm37.727 10.655-1.568-4.096h-10.11l-1.568 4.096h-4.096l8.383-21.342h4.672l8.383 21.342h-4.096Zm-6.623-18.175-4 10.784h8l-4-10.784Zm16.064 18.175V53.724h-6.464V50.43h16.671v3.295h-6.464v18.047h-3.743Z"/>
<path fill="#231f20" d="M93.825 21.905v-.002a4.417 4.417 0 0 0-.042-.031c-1.706-1.31-3.689-2.3-5.607-3.254-3.31-1.646-6.733-3.348-9.084-6.827-2.536-3.754-8.423-8.11-8.674-8.295l-1.82-1.341v6.184c-1.06.564-2.982 1.79-3.644 3.547-.174.46-.596.769-1.085 1.127-.868.634-2.32 1.696-1.475 4.006 1.07 2.922 4.359 4.424 4.498 4.487l.159.058c.048.013 4.786 1.43 4.786 4.174v2.304a1.14 1.14 0 1 0 2.281 0v-.007h.005v-2.297c0-4.261-5.502-6.09-6.354-6.347-.392-.193-2.557-1.327-3.227-3.158-.247-.674-.175-.751.677-1.374.65-.477 1.461-1.07 1.874-2.167.457-1.21 2.443-2.303 3.103-2.59l.688-.3v-3.04c1.906 1.552 4.824 4.104 6.314 6.308 2.688 3.98 6.55 5.901 9.96 7.596 1.919.955 3.731 1.857 5.267 3.046l.043.031c2.148 1.51 3.106 3.71 3.106 7.132 0 5.02-3.902 9.216-8.7 9.216a8.34 8.34 0 0 1-1.456-.15c-2.862-.593-5.13-2.86-5.13-5.4 0-3.061 2.724-5.551 6.072-5.551a1.03 1.03 0 0 0 0-2.059c-4.484 0-8.131 3.413-8.131 7.61 0 1.68.925 3.463 2.029 4.765 1.104 1.301 3.587 2.849 6.616 2.849 6.169 0 10.987-5 10.987-11.28 0-4.164-1.285-7.015-4.036-8.97Z"/>
</svg>
