<?xml version="1.0" encoding="UTF-8" standalone="no"?>
<svg width="395px" height="194px" viewBox="0 0 395 194" version="1.1" xmlns="http://www.w3.org/2000/svg" xmlns:xlink="http://www.w3.org/1999/xlink">
    <!-- Generator: Sketch 3.8.3 (29802) - http://www.bohemiancoding.com/sketch -->
    <title>cpic</title>
    <desc>Created with Sketch.</desc>
    <defs>
        <linearGradient x1="100.006908%" y1="49.9936988%" x2="0.00690846287%" y2="49.9936988%" id="linearGradient-1">
            <stop stop-color="#9EA1A3" offset="0%"></stop>
            <stop stop-color="#A7AAAC" offset="16.24%"></stop>
            <stop stop-color="#D3D4D6" offset="100%"></stop>
        </linearGradient>
        <linearGradient x1="0%" y1="50.0049213%" x2="99.9983994%" y2="50.0049213%" id="linearGradient-2">
            <stop stop-color="#9EA1A3" offset="0%"></stop>
            <stop stop-color="#A7AAAC" offset="16.24%"></stop>
            <stop stop-color="#D3D4D6" offset="100%"></stop>
        </linearGradient>
        <linearGradient x1="99.9958949%" y1="50.0147493%" x2="-0.00410509031%" y2="50.0147493%" id="linearGradient-3">
            <stop stop-color="#9EA1A3" offset="0%"></stop>
            <stop stop-color="#A7AAAC" offset="16.24%"></stop>
            <stop stop-color="#D3D4D6" offset="100%"></stop>
        </linearGradient>
        <linearGradient x1="99.9964034%" y1="49.9751491%" x2="-0.00143864192%" y2="49.9751491%" id="linearGradient-4">
            <stop stop-color="#9EA1A3" offset="0%"></stop>
            <stop stop-color="#A7AAAC" offset="16.24%"></stop>
            <stop stop-color="#D3D4D6" offset="100%"></stop>
        </linearGradient>
        <linearGradient x1="50.0001129%" y1="100.001689%" x2="50.0001129%" y2="0.00202647933%" id="linearGradient-5">
            <stop stop-color="#000000" offset="0%"></stop>
            <stop stop-color="#272727" offset="20.8%"></stop>
            <stop stop-color="#4A4A4A" offset="43.56%"></stop>
            <stop stop-color="#636363" offset="65.02%"></stop>
            <stop stop-color="#737373" offset="84.43%"></stop>
            <stop stop-color="#787878" offset="100%"></stop>
        </linearGradient>
        <radialGradient cx="49.9942639%" cy="50.0076496%" fx="49.9942639%" fy="50.0076496%" r="50%" id="radialGradient-6">
            <stop stop-color="#000000" offset="0%"></stop>
            <stop stop-color="#272727" offset="20.8%"></stop>
            <stop stop-color="#4A4A4A" offset="43.56%"></stop>
            <stop stop-color="#636363" offset="65.02%"></stop>
            <stop stop-color="#737373" offset="84.43%"></stop>
            <stop stop-color="#787878" offset="100%"></stop>
        </radialGradient>
        <radialGradient cx="50.0041952%" cy="49.997211%" fx="50.0041952%" fy="49.997211%" r="50.0727171%" id="radialGradient-7">
            <stop stop-color="#000000" offset="0%"></stop>
            <stop stop-color="#272727" offset="20.8%"></stop>
            <stop stop-color="#4A4A4A" offset="43.56%"></stop>
            <stop stop-color="#636363" offset="65.02%"></stop>
            <stop stop-color="#737373" offset="84.43%"></stop>
            <stop stop-color="#787878" offset="100%"></stop>
        </radialGradient>
        <linearGradient x1="100.00325%" y1="50.0004093%" x2="0.00245269315%" y2="50.0004093%" id="linearGradient-8">
            <stop stop-color="#000000" offset="0%"></stop>
            <stop stop-color="#272727" offset="20.8%"></stop>
            <stop stop-color="#4A4A4A" offset="43.56%"></stop>
            <stop stop-color="#636363" offset="65.02%"></stop>
            <stop stop-color="#737373" offset="84.43%"></stop>
            <stop stop-color="#787878" offset="100%"></stop>
        </linearGradient>
    </defs>
    <g id="Page-1" stroke="none" stroke-width="1" fill="none" fill-rule="evenodd">
        <g id="CPIC-logo" transform="translate(-2.000000, -3.000000)">
            <g id="Page-1">
                <g id="cpic">
                    <g id="Layer_1">
                        <g id="Group">
                            <g id="Shape" transform="translate(300.000000, 0.000000)">
                                <path d="M54.516,160.27451 L34.932,160.27451 C33.5,162.380392 32.344,164.396078 31.356,166.498039 L54.516,166.498039 L54.516,160.27451 L54.516,160.27451 L54.516,160.27451 Z" fill="url(#linearGradient-1)"></path>
                                <path d="M63.28,101.305882 L13.3,101.305882 L13.3,109.27451 L58.36,109.27451 C60.152,106.65098 61.844,104.023529 63.28,101.305882 L63.28,101.305882 L63.28,101.305882 L63.28,101.305882 Z" fill="url(#linearGradient-2)"></path>
                                <g id="Group" transform="translate(20.000000, 86.274510)">
                                    <path d="M44.26,28.3490196 L5.284,28.3490196 C6.98,31.1529412 9.212,33.7843137 11.716,36.3254902 L44.26,36.3254902 L44.26,28.3490196 L44.26,28.3490196 L44.26,28.3490196 Z" id="Shape" fill="url(#linearGradient-3)"></path>
                                    <path d="M58.116,1.36078431 L6,1.36078431 C4.384,4.16470588 3.22,6.79607843 2.512,9.25098039 L58.12,9.25098039 L58.12,1.36078431 L58.116,1.36078431 L58.116,1.36078431 Z" id="Shape" fill="url(#linearGradient-4)"></path>
                                </g>
                                <path d="M54.336,186.478431 C80.708,125.921569 -23.896,128.992157 35.564,70.3686275 C-53.756,134.517647 74.632,139.772549 54.336,186.478431 L54.336,186.478431 L54.336,186.478431 L54.336,186.478431 Z" fill="url(#linearGradient-5)"></path>
                                <path d="M11.692,57.3960784 C5.88,57.3960784 1.232,61.9607843 1.232,67.654902 C1.232,73.3490196 5.884,77.9019608 11.692,77.9019608 C17.5,77.9019608 22.152,73.3490196 22.152,67.654902 C22.152,61.9607843 17.504,57.3960784 11.692,57.3960784 L11.692,57.3960784 L11.692,57.3960784 L11.692,57.3960784 Z" fill="url(#radialGradient-6)"></path>
                                <path d="M43.004,153.498039 C41.184,151.901961 39.26,150.345098 37.276,148.803922 C39.772,145.792157 42.508,142.756863 45.36,139.658824 C47.3,141.666667 49.148,143.752941 50.804,145.952941 C48.04,148.47451 45.416,150.992157 43.004,153.498039 L43.004,153.498039 L43.004,153.498039 Z" fill="#C9134A"></path>
                                <path d="M68.232,31.3137255 C60.36,31.3137255 53.928,25.0078431 53.928,17.2078431 C53.928,9.49411765 60.36,3.19215686 68.232,3.19215686 C76.188,3.19215686 82.532,9.49411765 82.532,17.2078431 C82.532,25.0078431 76.188,31.3137255 68.232,31.3137255 L68.232,31.3137255 L68.232,31.3137255 Z" fill="url(#radialGradient-7)"></path>
                                <path d="M73.2,87.454902 C77.672,69.6745098 71.768,35.7529412 47.004,37.5098039 C70.428,22.172549 129.8,66.3372549 71.768,119.270588 C51.44,137.839216 26.5,154.976471 23.696,172.721569 L49.86,172.721569 C50.308,174.729412 50.404,176.74902 50.136,178.941176 L23.668,178.941176 C24.608,185.129412 28.564,191.419608 36.632,197.886275 C-13.448,158.396078 61.452,134.066667 73.2,87.454902 L73.2,87.454902 L73.2,87.454902 Z" fill="url(#linearGradient-8)"></path>
                            </g>
                            <g id="Shape" transform="translate(0.000000, 74.509804)">
                                <path d="M46.796,1.5372549 C58.46,1.5372549 68.248,7.18431373 74.584,13.5372549 L62.92,26.3803922 C58.168,22.1490196 53.704,19.4627451 47.084,19.4627451 C33.98,19.4627451 23.756,30.6156863 23.756,49.1098039 C23.756,68.0235294 32.832,79.0352941 46.508,79.0352941 C54.284,79.0352941 59.756,75.7882353 64.364,70.8470588 L76.024,83.4117647 C68.252,92.3058824 57.884,96.9607843 46.224,96.9607843 C21.888,96.9607843 2.02,80.7254902 2.02,49.8156863 C2.02,19.3215686 22.608,1.5372549 46.796,1.5372549 L46.796,1.5372549 L46.796,1.5372549 Z" fill="#C9134A"></path>
                                <path d="M91.292,3.22745098 L125.56,3.22745098 C146.004,3.22745098 162.276,10.5686275 162.276,32.8745098 C162.276,54.4705882 145.428,64.0705882 125.56,64.0705882 L112.604,64.0705882 L112.604,95.2666667 L91.292,95.2666667 L91.292,3.22745098 L91.292,3.22745098 L91.292,3.22745098 Z M124.264,47.5529412 C135.928,47.5529412 141.54,42.4705882 141.54,32.8745098 C141.54,23.2745098 135.492,19.745098 124.264,19.745098 L112.604,19.745098 L112.604,47.5529412 L124.264,47.5529412 L124.264,47.5529412 L124.264,47.5529412 Z" fill="#C9134A"></path>
                                <polygon fill="#C9134A" points="179.712 3.22745098 201.02 3.22745098 201.02 95.2666667 179.712 95.2666667 179.712 3.22745098"></polygon>
                                <path d="M264.52,1.5372549 C276.184,1.5372549 285.972,7.18431373 292.308,13.5372549 L280.644,26.3803922 C275.892,22.1490196 271.428,19.4627451 264.808,19.4627451 C251.704,19.4627451 241.48,30.6156863 241.48,49.1098039 C241.48,68.0235294 250.556,79.0352941 264.232,79.0352941 C272.008,79.0352941 277.48,75.7882353 282.088,70.8470588 L293.748,83.4117647 C285.976,92.3058824 275.608,96.9607843 263.944,96.9607843 C239.612,96.9607843 219.744,80.7254902 219.744,49.8156863 C219.744,19.3215686 240.332,1.5372549 264.52,1.5372549 L264.52,1.5372549 L264.52,1.5372549 Z" fill="#336699"></path>
                            </g>
                        </g>
                        <text id="®" font-family="Helvetica" font-size="18" font-weight="normal" fill="#000000">
                            <tspan x="370.368652" y="162">®</tspan>
                        </text>
                    </g>
                </g>
            </g>
        </g>
    </g>
</svg>