<svg xmlns="http://www.w3.org/2000/svg" xmlns:xlink="http://www.w3.org/1999/xlink" viewBox="0 0 176 256"><defs><linearGradient id="a" x1="6.01" y1="169.8" x2="169.99" y2="169.8" gradientUnits="userSpaceOnUse"><stop offset="0" stop-color="#fff"/><stop offset="0.05" stop-color="#e8eef4"/><stop offset="0.18" stop-color="#b8cadc"/><stop offset="0.3" stop-color="#8fabc7"/><stop offset="0.43" stop-color="#6e92b6"/><stop offset="0.57" stop-color="#547faa"/><stop offset="0.7" stop-color="#4271a0"/><stop offset="0.84" stop-color="#37699b"/><stop offset="1" stop-color="#369"/></linearGradient><linearGradient id="b" x1="31.28" y1="192.71" x2="106.68" y2="192.71" xlink:href="#a"/><linearGradient id="c" x1="95.08" y1="81.06" x2="166.47" y2="81.06" xlink:href="#a"/></defs><path d="M167.55,253.12a1.74,1.74,0,0,0,2.44-1.34C162.58,144.73,67.62,134,6.26,86.37c-1.82,11.88,6.89,23.78,8.55,36.31,43.42,24.39,98.57,49.46,132,87.41,8.73,9.92,18.79,21.88,19.55,39C166.33,251.29,166.35,252.56,167.55,253.12Z" fill-rule="evenodd" fill="url(#a)"/><path d="M106.68,185.46c-7.42-7.56-18.18-11.78-26.1-18.85-16.46,8.66-31.67,18.59-49.3,26.1,4,10.95,12.95,17,18.85,26.1C69,207.74,88.24,197,106.68,185.46Z" fill-rule="evenodd" fill="url(#b)"/><path d="M138.58,2.76H95.08c25.16,20,68.1,38.43,68.15,79.75,0,28.37-25.81,44-44.95,59.45,5.56,6.52,14.27,9.9,18.85,17.4C175.65,133.71,176.35,29.9,138.58,2.76Z" fill-rule="evenodd" fill="url(#c)"/><path d="M68.6,36.08H82.75c8.44,0,15.69,3.09,15.69,12.84,0,9.46-7.37,13.56-15.46,13.56H78.82V74.72H68.6ZM82.51,54.39c4,0,5.94-2,5.94-5.47s-2.26-4.75-6.18-4.75H78.82V54.39Z" fill="#369"/><path d="M105.46,55.7c0-13,8.91-20.33,19.26-20.33a17,17,0,0,1,12.6,5.11L132,46.67a9.42,9.42,0,0,0-6.9-2.5c-5.23,0-9.15,4.16-9.15,11.17,0,7.26,3.21,11.3,10.1,11.3a5.89,5.89,0,0,0,3-.71V60.58h-5.71V52.25H138V70.68A19.48,19.48,0,0,1,125,75.44C114.13,75.44,105.46,68.9,105.46,55.7Z" fill="#369"/><path d="M68.6,81H78.82V95.42h.24L88.81,81H100L88.45,96.73l13.8,22.94H91.07l-8.56-14.86L78.82,110v9.63H68.6Z" fill="#c9134a"/><path d="M108.31,81h13.91c8.09,0,14.62,2,14.62,9.63,0,3.33-1.9,7.14-4.87,8.33v.23a8.81,8.81,0,0,1,6.66,9c0,8-6.9,11.41-15.22,11.41h-15.1ZM122,96.13c3.33,0,4.88-1.54,4.88-3.92s-1.55-3.33-4.88-3.33h-3.44v7.25Zm.72,15.7c4,0,5.94-1.43,5.94-4.28s-1.9-3.93-5.94-3.93h-4.16v8.21Z" fill="#c9134a"/></svg>