<svg xmlns="http://www.w3.org/2000/svg" xmlns:xlink="http://www.w3.org/1999/xlink" viewBox="0 0 342 72"><defs><linearGradient id="a" x1="4" y1="47.71" x2="49.91" y2="47.71" gradientUnits="userSpaceOnUse"><stop offset="0" stop-color="#fff"/><stop offset="0.05" stop-color="#e8eef4"/><stop offset="0.18" stop-color="#b8cadc"/><stop offset="0.3" stop-color="#8fabc7"/><stop offset="0.43" stop-color="#6e92b6"/><stop offset="0.57" stop-color="#547faa"/><stop offset="0.7" stop-color="#4271a0"/><stop offset="0.84" stop-color="#37699b"/><stop offset="1" stop-color="#369"/></linearGradient><linearGradient id="b" x1="11.08" y1="54.12" x2="32.19" y2="54.12" xlink:href="#a"/><linearGradient id="c" x1="28.94" y1="22.86" x2="48.93" y2="22.86" xlink:href="#a"/></defs><path d="M60.9,18.36c0-.87.42-1.31,1.26-1.31H73.69a12.83,12.83,0,0,1,4.63.81,10.61,10.61,0,0,1,3.6,2.29,10.38,10.38,0,0,1,2.34,3.53,11.78,11.78,0,0,1,.85,4.52,12.21,12.21,0,0,1-.85,4.61,10.55,10.55,0,0,1-2.34,3.57,10.24,10.24,0,0,1-3.6,2.32,12.62,12.62,0,0,1-4.63.82H64.53v13.2q0,1.32-1.26,1.32H62.16q-1.26,0-1.26-1.32ZM73.21,36.25a8.21,8.21,0,0,0,6-2.13,7.9,7.9,0,0,0,2.18-5.92,7.72,7.72,0,0,0-2.16-5.76,8.09,8.09,0,0,0-5.94-2.13H64.53V36.25Z" fill="#369"/><path d="M91.89,18.36a1.14,1.14,0,0,1,1.27-1.31h1.1c.84,0,1.26.44,1.26,1.31V33.89H117V18.36a1.14,1.14,0,0,1,1.27-1.31h1a1.16,1.16,0,0,1,1.32,1.31V52.72A1.17,1.17,0,0,1,119.31,54h-1A1.15,1.15,0,0,1,117,52.72V37.15H95.52V52.72q0,1.32-1.26,1.32h-1.1c-.85,0-1.27-.44-1.27-1.32Z" fill="#369"/><path d="M139.52,18.1a1.3,1.3,0,0,1,1.42-1.05h1.73a1.37,1.37,0,0,1,1.43,1.05l12.73,34.41q.42,1.53-1.05,1.53h-1.16a1.29,1.29,0,0,1-1.47-1l-4-10.74H134.36L130.47,53A1.39,1.39,0,0,1,129,54h-1.1c-1.06,0-1.42-.51-1.11-1.53Zm8.63,21-4.9-13.42a22.3,22.3,0,0,1-.73-2.37c-.25-.95-.46-1.77-.64-2.48h-.1c-.18.71-.4,1.53-.68,2.48s-.53,1.73-.74,2.37l-5,13.42Z" fill="#369"/><path d="M163,18.36c0-.87.42-1.31,1.26-1.31h10a28.76,28.76,0,0,1,3.95.23,9.65,9.65,0,0,1,2.78.82A9.19,9.19,0,0,1,185,21.78a10.89,10.89,0,0,1,1.42,5.58,11.17,11.17,0,0,1-1.92,6.55,9.11,9.11,0,0,1-5.08,3.66v.1l.34.56c.16.26.36.57.6.92l7.21,13.36a1.15,1.15,0,0,1,.11,1.14,1.13,1.13,0,0,1-1,.39h-1.37a1.54,1.54,0,0,1-1.52-.89l-7.9-14.69h-9.31V52.72c0,.88-.42,1.32-1.27,1.32h-1.1Q163,54,163,52.72ZM175.41,35.2a7,7,0,0,0,5.31-2.1,7.86,7.86,0,0,0,2-5.63,7.46,7.46,0,0,0-1-3.93A6.38,6.38,0,0,0,178.83,21a8.46,8.46,0,0,0-2-.52,19.88,19.88,0,0,0-2.9-.16h-7.36V35.2Z" fill="#369"/><path d="M196.51,18.26c0-.81.44-1.21,1.31-1.21h1.42a1.58,1.58,0,0,1,1.53,1L210,38.78l.95,2.37c.35.87.65,1.59.89,2.15H212c.17-.56.44-1.28.79-2.15s.68-1.67,1-2.37L223,18.05a1.58,1.58,0,0,1,1.53-1H226a1.26,1.26,0,0,1,1.31,1.21l2.79,34.41c0,.91-.39,1.37-1.26,1.37h-1c-.88,0-1.32-.4-1.32-1.21L224.5,28.15c0-.35-.06-.75-.08-1.21s0-.92,0-1.4,0-.92,0-1.36V23h-.11c-.11.35-.24.76-.39,1.21s-.33.92-.5,1.4L222.82,27c-.18.43-.33.83-.47,1.18l-8.32,18a1.44,1.44,0,0,1-1.47,1h-1.27a1.39,1.39,0,0,1-1.52-1l-8.26-18c-.28-.67-.62-1.53-1-2.58s-.71-1.95-.95-2.68h-.1c0,.7,0,1.58,0,2.63s-.06,1.93-.13,2.63l-2,24.68A1.18,1.18,0,0,1,196,54H195c-.95,0-1.37-.46-1.26-1.37Z" fill="#369"/><path d="M236.61,35.57A19.81,19.81,0,0,1,238,28,18.65,18.65,0,0,1,242,21.94a18,18,0,0,1,5.92-4.05,18.58,18.58,0,0,1,7.42-1.47,25,25,0,0,1,6.52,1,19.64,19.64,0,0,1,5.63,2.53,1.13,1.13,0,0,1,.21,1.79l-.47.68a1.1,1.1,0,0,1-1.79.32,19.55,19.55,0,0,0-4.84-2.13,18.45,18.45,0,0,0-5.16-.77,15,15,0,0,0-6,1.19,14.54,14.54,0,0,0-4.73,3.26,14.86,14.86,0,0,0-3.13,4.95,16.71,16.71,0,0,0-1.14,6.23,17.49,17.49,0,0,0,1.11,6.32,15,15,0,0,0,3.08,5,14.14,14.14,0,0,0,10.5,4.47,13.29,13.29,0,0,0,3.81-.53,18.14,18.14,0,0,0,3.34-1.31,16,16,0,0,0,2.69-1.74,11.38,11.38,0,0,0,1.84-1.84V39.62h-5.05a1.14,1.14,0,0,1-1.27-1.31v-.64a1.14,1.14,0,0,1,1.27-1.31h7.21c.84,0,1.26.44,1.26,1.31v15q0,1.32-1.26,1.32h-.74c-.88,0-1.32-.39-1.32-1.16V50.25a2.93,2.93,0,0,1,.06-.63h-.11a10.72,10.72,0,0,1-1.87,1.74A16.15,16.15,0,0,1,262.21,53a19.13,19.13,0,0,1-3.45,1.21,16.73,16.73,0,0,1-4,.47,17.73,17.73,0,0,1-7.21-1.45,17.07,17.07,0,0,1-5.73-4A19.08,19.08,0,0,1,238,43.12,20.19,20.19,0,0,1,236.61,35.57Z" fill="#369"/><path d="M277.93,17.42h6.66V33.88h.17l12.83-16.46H305L293.72,31.75,306.88,54h-7.33L289.75,37l-5.16,6.5V54h-6.66Z" fill="#c9134a"/><path d="M311.42,17.42h11.76c7.56,0,13.1,2.29,13.1,9,0,3.47-1.9,6.83-5,8v.23a8.35,8.35,0,0,1,7,8.68c0,7.33-6,10.75-14.11,10.75H311.42Zm11.2,15.06c5,0,7.17-2,7.17-5.1,0-3.47-2.35-4.76-7.06-4.76h-4.65v9.86Zm.84,16.35c5.32,0,8.23-1.85,8.23-5.93,0-3.76-2.86-5.44-8.23-5.44h-5.38V48.83Z" fill="#c9134a"/><path d="M49.23,71a.48.48,0,0,0,.68-.37c-2.07-30-28.66-33-45.84-46.32C3.56,27.67,6,31,6.46,34.51,18.62,41.34,34.06,48.36,43.41,59c2.45,2.78,5.27,6.13,5.48,10.92C48.89,70.52,48.89,70.88,49.23,71Z" fill-rule="evenodd" fill="url(#a)"/><path d="M32.19,52.09c-2.08-2.12-5.09-3.3-7.31-5.28C20.27,49.24,16,52,11.08,54.12c1.13,3.07,3.62,4.76,5.27,7.31C21.65,58.33,27,55.32,32.19,52.09Z" fill-rule="evenodd" fill="url(#b)"/><path d="M41.12.93H28.94C36,6.54,48,11.69,48,23.26c0,8-7.23,12.32-12.58,16.65,1.55,1.83,4,2.77,5.27,4.87C51.5,37.6,51.69,8.53,41.12.93Z" fill-rule="evenodd" fill="url(#c)"/><path d="M21.52,10.26h4c2.36,0,4.39.87,4.39,3.6s-2.06,3.79-4.33,3.79H24.39v3.43H21.52Zm3.9,5.13c1.13,0,1.66-.57,1.66-1.53s-.63-1.33-1.73-1.33h-1v2.86Z" fill="#369"/><path d="M31.84,15.76a5.32,5.32,0,0,1,5.4-5.7,4.79,4.79,0,0,1,3.53,1.43l-1.5,1.74a2.63,2.63,0,0,0-1.93-.7c-1.47,0-2.57,1.16-2.57,3.13s.9,3.16,2.83,3.16a1.68,1.68,0,0,0,.84-.2v-1.5h-1.6V14.79H41V20a5.49,5.49,0,0,1-3.67,1.33A5.12,5.12,0,0,1,31.84,15.76Z" fill="#369"/><path d="M21.52,22.85h2.87v4h.06l2.74-4h3.12l-3.23,4.39L31,33.67H27.82l-2.4-4.16-1,1.46v2.7H21.52Z" fill="#c9134a"/><path d="M32.64,22.85h3.9c2.26,0,4.09.56,4.09,2.69a2.59,2.59,0,0,1-1.36,2.34v.06a2.46,2.46,0,0,1,1.86,2.53c0,2.23-1.93,3.2-4.26,3.2H32.64Zm3.83,4.23c.94,0,1.37-.44,1.37-1.1s-.43-.93-1.37-.93h-1v2Zm.2,4.39c1.13,0,1.67-.4,1.67-1.2s-.54-1.1-1.67-1.1H35.51v2.3Z" fill="#c9134a"/></svg>