<svg xmlns="http://www.w3.org/2000/svg" viewBox="0 0 32 32">
<path fill="#231f20" d="M26.959 15.802V15.8a3.729 3.729 0 0 0-.033-.024c-1.353-1.04-2.924-1.823-4.445-2.58-2.623-1.304-5.337-2.654-7.201-5.412C13.27 4.81 8.603 1.355 8.405 1.21L6.96.146V5.05c-.84.447-2.363 1.418-2.888 2.81-.138.365-.472.61-.86.894-.688.503-1.838 1.345-1.17 3.176.849 2.316 3.456 3.507 3.567 3.556l.125.046c.039.011 3.794 1.134 3.794 3.31v1.825a.904.904 0 1 0 1.809 0l-.001-.005h.005v-1.82c0-3.379-4.362-4.828-5.037-5.032-.311-.153-2.027-1.051-2.558-2.503-.196-.535-.14-.596.536-1.09C4.8 9.84 5.442 9.37 5.77 8.5c.362-.959 1.937-1.825 2.46-2.054l.545-.237v-2.41c1.51 1.23 3.823 3.253 5.005 5 2.13 3.155 5.193 4.678 7.895 6.022 1.521.756 2.958 1.472 4.176 2.414l.033.025c1.703 1.197 2.463 2.941 2.463 5.653 0 3.98-3.094 7.306-6.897 7.306a6.61 6.61 0 0 1-1.155-.12c-2.268-.47-4.066-2.267-4.066-4.28 0-2.426 2.16-4.4 4.814-4.4a.816.816 0 0 0 0-1.632c-3.555 0-6.446 2.706-6.446 6.032 0 1.332.733 2.745 1.609 3.777s2.843 2.259 5.244 2.259c4.89 0 8.71-3.964 8.71-8.942 0-3.3-1.02-5.56-3.2-7.11Z"/>
</svg>
