<?xml version="1.0" encoding="UTF-8"?>
<svg width="600px" height="200px" viewBox="0 0 600 200" version="1.1" xmlns="http://www.w3.org/2000/svg" xmlns:xlink="http://www.w3.org/1999/xlink">
    <title>cpic-full</title>
    <defs>
        <linearGradient x1="100%" y1="49.9810964%" x2="-6.13594763e-13%" y2="49.9810964%" id="linearGradient-1">
            <stop stop-color="#9EA1A3" offset="0%"></stop>
            <stop stop-color="#A7AAAC" offset="16.24%"></stop>
            <stop stop-color="#D3D4D6" offset="100%"></stop>
        </linearGradient>
        <linearGradient x1="0.00320128051%" y1="50.0147565%" x2="99.9991997%" y2="50.0147565%" id="linearGradient-2">
            <stop stop-color="#9EA1A3" offset="0%"></stop>
            <stop stop-color="#A7AAAC" offset="16.24%"></stop>
            <stop stop-color="#D3D4D6" offset="100%"></stop>
        </linearGradient>
        <linearGradient x1="99.9958953%" y1="50.0147493%" x2="-0.00410466906%" y2="50.0147493%" id="linearGradient-3">
            <stop stop-color="#9EA1A3" offset="0%"></stop>
            <stop stop-color="#A7AAAC" offset="16.24%"></stop>
            <stop stop-color="#D3D4D6" offset="100%"></stop>
        </linearGradient>
        <linearGradient x1="99.9992806%" y1="49.9950273%" x2="5.11145051e-14%" y2="49.9950273%" id="linearGradient-4">
            <stop stop-color="#9EA1A3" offset="0%"></stop>
            <stop stop-color="#A7AAAC" offset="16.24%"></stop>
            <stop stop-color="#D3D4D6" offset="100%"></stop>
        </linearGradient>
        <linearGradient x1="50.0006702%" y1="99.998649%" x2="50.0006702%" y2="-0.00135103185%" id="linearGradient-5">
            <stop stop-color="#000000" offset="0%"></stop>
            <stop stop-color="#272727" offset="20.8%"></stop>
            <stop stop-color="#4A4A4A" offset="43.56%"></stop>
            <stop stop-color="#636363" offset="65.02%"></stop>
            <stop stop-color="#737373" offset="84.43%"></stop>
            <stop stop-color="#787878" offset="100%"></stop>
        </linearGradient>
        <radialGradient cx="49.9942639%" cy="50.0076496%" fx="49.9942639%" fy="50.0076496%" r="51.3501369%" gradientTransform="translate(0.4999, 0.5001), scale(0.9737, 1), translate(-0.4999, -0.5001)" id="radialGradient-6">
            <stop stop-color="#000000" offset="0%"></stop>
            <stop stop-color="#272727" offset="20.8%"></stop>
            <stop stop-color="#4A4A4A" offset="43.56%"></stop>
            <stop stop-color="#636363" offset="65.02%"></stop>
            <stop stop-color="#737373" offset="84.43%"></stop>
            <stop stop-color="#787878" offset="100%"></stop>
        </radialGradient>
        <radialGradient cx="49.9986018%" cy="50.0069716%" fx="49.9986018%" fy="50.0069716%" r="51.2678313%" gradientTransform="translate(0.5, 0.5001), scale(0.9766, 1), translate(-0.5, -0.5001)" id="radialGradient-7">
            <stop stop-color="#000000" offset="0%"></stop>
            <stop stop-color="#272727" offset="20.8%"></stop>
            <stop stop-color="#4A4A4A" offset="43.56%"></stop>
            <stop stop-color="#636363" offset="65.02%"></stop>
            <stop stop-color="#737373" offset="84.43%"></stop>
            <stop stop-color="#787878" offset="100%"></stop>
        </radialGradient>
        <linearGradient x1="100.001912%" y1="50.0007652%" x2="-0.00129813322%" y2="50.0007652%" id="linearGradient-8">
            <stop stop-color="#000000" offset="0%"></stop>
            <stop stop-color="#272727" offset="20.8%"></stop>
            <stop stop-color="#4A4A4A" offset="43.56%"></stop>
            <stop stop-color="#636363" offset="65.02%"></stop>
            <stop stop-color="#737373" offset="84.43%"></stop>
            <stop stop-color="#787878" offset="100%"></stop>
        </linearGradient>
        <linearGradient x1="44.64%" y1="17.6%" x2="0.07%" y2="17.6%" id="linearGradient-9">
            <stop stop-color="#F05A28" offset="0%"></stop>
            <stop stop-color="#FAAF40" offset="100%"></stop>
        </linearGradient>
    </defs>
    <g id="Page-1" stroke="none" stroke-width="1" fill="none" fill-rule="evenodd">
        <g id="Layer_1" transform="translate(0, -2)">
            <g id="Group" transform="translate(0, 2)">
                <g id="Shape">
                    <path d="M56.1946309,158.964706 L36.4832215,158.964706 C35.0416107,161.070588 33.8738255,163.086275 32.8791946,165.188235 L56.1946309,165.188235 L56.1946309,158.964706 L56.1946309,158.964706 Z" fill="url(#linearGradient-1)"></path>
                    <path d="M65.0174497,99.9921569 L14.7020134,99.9921569 L14.7020134,107.964706 L60.0644295,107.964706 C61.8644295,105.341176 63.5758389,102.709804 65.0174497,99.9921569 L65.0174497,99.9921569 L65.0174497,99.9921569 Z" fill="url(#linearGradient-2)"></path>
                    <g transform="translate(20.1342, 86.2745)">
                        <path d="M45.8697987,27.0392157 L6.62818792,27.0392157 C8.33557047,29.8431373 10.590604,32.4745098 13.1073826,35.0156863 L45.8697987,35.0156863 L45.8697987,27.0392157 L45.8697987,27.0392157 Z" fill="url(#linearGradient-3)"></path>
                        <path d="M59.8187919,0.0509803922 L7.35302013,0.0509803922 C5.7261745,2.85490196 4.55436242,5.48235294 3.84161074,7.9372549 L59.8187919,7.9372549 L59.8187919,0.0509803922 L59.8187919,0.0509803922 Z" fill="url(#linearGradient-4)"></path>
                    </g>
                    <path d="M56.0134228,185.168627 C82.5624161,124.615686 -22.7436242,127.686275 37.1154362,69.0627451 C-52.8040268,133.207843 76.4416107,138.462745 56.0134228,185.168627 L56.0134228,185.168627 L56.0134228,185.168627 Z" fill="url(#linearGradient-5)"></path>
                    <path d="M13.0832215,56.0862745 C7.23624161,56.0862745 2.55302013,60.6470588 2.55302013,66.345098 C2.55302013,72.0431373 7.23624161,76.5921569 13.0832215,76.5921569 C18.9342282,76.5921569 23.6134228,72.0431373 23.6134228,66.345098 C23.6134228,60.6509804 18.9342282,56.0862745 13.0832215,56.0862745 L13.0832215,56.0862745 L13.0832215,56.0862745 Z" fill="url(#radialGradient-6)"></path>
                    <path d="M44.6053691,152.188235 C42.7731544,150.592157 40.8362416,149.035294 38.8389262,147.494118 C41.347651,144.482353 44.1060403,141.447059 46.9731544,138.34902 C48.9342282,140.360784 50.7865772,142.443137 52.4577181,144.647059 C49.6751678,147.160784 47.0295302,149.682353 44.6053691,152.188235 L44.6053691,152.188235 Z" fill="#C9134A"></path>
                    <path d="M70.0026846,30.0039216 C62.0778523,30.0039216 55.5986577,23.6980392 55.5986577,15.8941176 C55.5986577,8.18431373 62.0778523,1.87843137 70.0026846,1.87843137 C78.0120805,1.87843137 84.3986577,8.18431373 84.3986577,15.8941176 C84.3986577,23.7019608 78.0080537,30.0039216 70.0026846,30.0039216 L70.0026846,30.0039216 Z" fill="url(#radialGradient-7)"></path>
                    <path d="M75.0040268,86.145098 C79.5020134,68.3607843 73.5624161,34.4431373 48.6322148,36.2 C72.2134228,20.8666667 131.979866,65.027451 73.5624161,117.956863 C53.0939597,136.52549 27.990604,153.666667 25.1718121,171.407843 L51.5154362,171.407843 C51.9624161,173.415686 52.0590604,175.435294 51.7852349,177.627451 L25.1436242,177.627451 C26.085906,183.815686 30.0724832,190.101961 38.1986577,196.572549 C-12.2255034,157.086275 63.1731544,132.756863 75.0040268,86.145098 L75.0040268,86.145098 Z" fill="url(#linearGradient-8)"></path>
                    <path d="M38.1986577,196.576471 C38.7865772,197.039216 39.3744966,197.498039 39.9946309,197.960784 C39.3744966,197.498039 38.7744966,197.035294 38.1986577,196.576471 L38.1986577,196.576471 Z" fill="url(#linearGradient-9)"></path>
                </g>
                <g transform="translate(120.8054, 0)" id="Shape">
                    <path d="M48.4469799,2.34509804 C60.1892617,2.34509804 70.042953,7.99215686 76.4214765,14.345098 L64.6791946,27.1882353 C59.895302,22.9568627 55.4013423,20.2705882 48.7369128,20.2705882 C35.5489933,20.2705882 25.2563758,31.4235294 25.2563758,49.9176471 C25.2563758,68.8313725 34.3892617,79.8431373 48.157047,79.8431373 C55.9852349,79.8431373 61.4979866,76.5960784 66.1328859,71.654902 L77.8751678,84.2196078 C70.0469799,93.1137255 59.609396,97.7686275 47.8711409,97.7686275 C23.3758389,97.7686275 3.3704698,81.5333333 3.3704698,50.6235294 C3.3704698,20.1294118 24.0966443,2.34509804 48.4469799,2.34509804 L48.4469799,2.34509804 Z" fill="#C9134A"></path>
                    <path d="M93.2456376,4.03529412 L127.743624,4.03529412 C148.324832,4.03529412 164.70604,11.3764706 164.70604,33.6823529 C164.70604,55.2784314 147.744966,64.8784314 127.743624,64.8784314 L114.696644,64.8784314 L114.696644,96.0745098 L93.2456376,96.0745098 L93.2456376,4.03529412 L93.2456376,4.03529412 Z M126.438926,48.3607843 C138.177181,48.3607843 143.830872,43.2784314 143.830872,33.6823529 C143.830872,24.0823529 137.742282,20.5529412 126.438926,20.5529412 L114.696644,20.5529412 L114.696644,48.3607843 L126.438926,48.3607843 L126.438926,48.3607843 Z" fill="#C9134A"></path>
                    <polygon fill="#C9134A" points="182.255034 4.03529412 203.70604 4.03529412 203.70604 96.0745098 182.255034 96.0745098"></polygon>
                    <path d="M267.636242,2.34509804 C279.374497,2.34509804 289.232215,7.99215686 295.610738,14.345098 L283.868456,27.1882353 C279.084564,22.9568627 274.590604,20.2705882 267.922148,20.2705882 C254.734228,20.2705882 244.441611,31.4235294 244.441611,49.9176471 C244.441611,68.8313725 253.574497,79.8431373 267.346309,79.8431373 C275.17047,79.8431373 280.683221,76.5960784 285.322148,71.654902 L297.060403,84.2196078 C289.236242,93.1137255 278.798658,97.7686275 267.056376,97.7686275 C242.561074,97.7686275 222.555705,81.5333333 222.555705,50.6235294 C222.555705,20.1294118 243.281879,2.34509804 267.636242,2.34509804 L267.636242,2.34509804 Z" fill="#336699"></path>
                </g>
                <g transform="translate(76.5101, 105.8824)" fill="#000000" id="Shape">
                    <path d="M32.0818792,3.48627451 C35.5651007,3.48627451 38.2389262,5.2745098 39.8255034,7.20392157 L38.6013423,8.61176471 C36.9704698,6.73333333 34.8,5.45882353 32.0818792,5.45882353 C25.5583893,5.45882353 21.4832215,10.8666667 21.4832215,19.4745098 C21.4832215,28.0784314 25.514094,33.6313725 31.9006711,33.6313725 C34.9812081,33.6313725 37.2885906,32.3607843 39.4630872,29.8196078 L40.6872483,31.1843137 C38.4201342,33.9098039 35.7060403,35.6039216 31.8120805,35.6039216 C24.4751678,35.6039216 19.3127493,29.3490196 19.3127493,19.4745098 C19.3087248,9.64705882 24.4711409,3.48627451 32.0818792,3.48627451 L32.0818792,3.48627451 Z"></path>
                    <path d="M46.6228188,1.22745098 L48.6161074,1.22745098 L48.6161074,32.3176471 C48.6161074,33.3058824 49.0268456,33.772549 49.566443,33.772549 C49.747651,33.772549 49.9288591,33.772549 50.3798658,33.6823529 L50.7422819,35.3764706 C50.3355705,35.5176471 49.9288591,35.6117647 49.2966443,35.6117647 C47.5328859,35.6117647 46.6228188,34.4862745 46.6228188,32.0392157 L46.6228188,1.22745098 L46.6228188,1.22745098 Z"></path>
                    <path d="M56.8187919,5.17647059 C56.8187919,4 57.6322148,3.29803922 58.6268456,3.29803922 C59.6255034,3.29803922 60.4389262,4.00392157 60.4389262,5.17647059 C60.4389262,6.25882353 59.6255034,7.01176471 58.6268456,7.01176471 C57.6362416,7.01176471 56.8187919,6.2627451 56.8187919,5.17647059 L56.8187919,5.17647059 Z M57.5879195,12.4705882 L59.5812081,12.4705882 L59.5812081,35.0470588 L57.5879195,35.0470588 L57.5879195,12.4705882 L57.5879195,12.4705882 Z"></path>
                    <path d="M68.1865772,12.4705882 L69.9100671,12.4705882 L70.0912752,15.9529412 L70.2281879,15.9529412 C72.4469799,13.6470588 74.7100671,11.9098039 77.6979866,11.9098039 C82.1798658,11.9098039 84.261745,14.7294118 84.261745,20.5607843 L84.261745,35.0470588 L82.2724832,35.0470588 L82.2724832,20.8431373 C82.2724832,16.0431373 80.8228188,13.7882353 77.2912752,13.7882353 C74.7100671,13.7882353 72.8536913,15.1960784 70.1798658,18.0196078 L70.1798658,35.0470588 L68.1865772,35.0470588 L68.1865772,12.4705882 L68.1865772,12.4705882 Z"></path>
                    <path d="M91.747651,5.17647059 C91.747651,4 92.5610738,3.29803922 93.5557047,3.29803922 C94.5543624,3.29803922 95.3677852,4.00392157 95.3677852,5.17647059 C95.3677852,6.25882353 94.5543624,7.01176471 93.5557047,7.01176471 C92.5610738,7.01176471 91.747651,6.2627451 91.747651,5.17647059 L91.747651,5.17647059 Z M92.5167785,12.4705882 L94.5100671,12.4705882 L94.5100671,35.0470588 L92.5167785,35.0470588 L92.5167785,12.4705882 L92.5167785,12.4705882 Z"></path>
                    <path d="M111.221477,11.9058824 C114.209396,11.9058824 116.158389,13.2705882 117.604027,14.6784314 L116.428188,16.1372549 C115.022819,14.772549 113.391946,13.7411765 111.265772,13.7411765 C106.828188,13.7411765 103.389262,17.8313725 103.389262,23.8039216 C103.389262,29.7294118 106.510067,33.772549 111.265772,33.772549 C113.577181,33.772549 115.566443,32.5960784 117.060403,31.1882353 L118.103356,32.5960784 C116.24698,34.3372549 113.939597,35.6078431 111.173154,35.6078431 C105.555705,35.6078431 101.303356,31.2823529 101.303356,23.8039216 C101.303356,16.2352941 105.922148,11.9058824 111.221477,11.9058824 L111.221477,11.9058824 Z"></path>
                    <path d="M136.042953,20.8862745 C136.131544,17.454902 135.185235,13.7411765 130.924832,13.7411765 C127.985235,13.7411765 125.448322,15.2470588 123.994631,16.372549 L123.088591,14.8196078 C124.626846,13.6901961 127.614765,11.9058824 131.150336,11.9058824 C136.308725,11.9058824 138.032215,15.7607843 138.032215,20.6078431 L138.032215,35.0470588 L136.357047,35.0470588 L136.127517,32.1333333 L136.038926,32.1333333 C133.820134,33.9686275 131.194631,35.6117647 128.343624,35.6117647 C124.904698,35.6117647 122.005369,33.6862745 122.005369,29.4039216 C122.009396,24.4156863 126.402685,22.0156863 136.042953,20.8862745 L136.042953,20.8862745 Z M128.661745,33.8235294 C131.154362,33.8235294 133.373154,32.5529412 136.042953,30.1529412 L136.042953,22.4862745 C127.12349,23.5647059 124.087248,25.7294118 124.087248,29.3058824 C124.087248,32.5529412 126.173154,33.8235294 128.661745,33.8235294 L128.661745,33.8235294 Z"></path>
                    <path d="M146.057718,1.22745098 L148.051007,1.22745098 L148.051007,32.3176471 C148.051007,33.3058824 148.461745,33.772549 149.001342,33.772549 C149.18255,33.772549 149.363758,33.772549 149.814765,33.6823529 L150.177181,35.3764706 C149.77047,35.5176471 149.363758,35.6117647 148.731544,35.6117647 C146.967785,35.6117647 146.057718,34.4862745 146.057718,32.0392157 L146.057718,1.22745098 L146.057718,1.22745098 Z"></path>
                    <path d="M166.357047,4.05098039 L174.507383,4.05098039 C181.163758,4.05098039 185.10604,6.30588235 185.10604,12.7019608 C185.10604,18.772549 181.12349,21.7333333 174.507383,21.7333333 L168.438926,21.7333333 L168.438926,35.0470588 L166.35302,35.0470588 L166.35302,4.05098039 L166.357047,4.05098039 Z M173.963758,19.8980392 C180.080537,19.8980392 182.975839,17.7843137 182.975839,12.7019608 C182.975839,7.48235294 180.032215,5.88627451 173.963758,5.88627451 L168.438926,5.88627451 L168.438926,19.8980392 L173.963758,19.8980392 L173.963758,19.8980392 Z"></path>
                    <path d="M191.452349,1.22745098 L193.445638,1.22745098 L193.445638,11.0078431 L193.445638,15.9921569 C195.712752,13.6392157 197.975839,11.9019608 200.963758,11.9019608 C205.445638,11.9019608 207.527517,14.7215686 207.527517,20.5529412 L207.527517,35.0392157 L205.538255,35.0392157 L205.538255,20.8352941 C205.538255,16.0352941 204.088591,13.7803922 200.557047,13.7803922 C197.975839,13.7803922 196.119463,15.1882353 193.445638,18.0117647 L193.445638,35.0392157 L191.452349,35.0392157 L191.452349,1.22745098 L191.452349,1.22745098 Z"></path>
                    <path d="M228.414765,20.8862745 C228.503356,17.454902 227.557047,13.7411765 223.296644,13.7411765 C220.357047,13.7411765 217.820134,15.2470588 216.366443,16.372549 L215.460403,14.8196078 C216.998658,13.6901961 219.986577,11.9058824 223.522148,11.9058824 C228.680537,11.9058824 230.404027,15.7607843 230.404027,20.6078431 L230.404027,35.0470588 L228.728859,35.0470588 L228.499329,32.1333333 L228.410738,32.1333333 C226.191946,33.9686275 223.566443,35.6117647 220.715436,35.6117647 C217.27651,35.6117647 214.377181,33.6862745 214.377181,29.4039216 C214.377181,24.4156863 218.77047,22.0156863 228.414765,20.8862745 L228.414765,20.8862745 Z M221.033557,33.8235294 C223.526174,33.8235294 225.744966,32.5529412 228.414765,30.1529412 L228.414765,22.4862745 C219.495302,23.5647059 216.45906,25.7294118 216.45906,29.3058824 C216.45906,32.5529412 218.54094,33.8235294 221.033557,33.8235294 L221.033557,33.8235294 Z"></path>
                    <path d="M238.42953,12.4705882 L240.15302,12.4705882 L240.334228,16.654902 L240.471141,16.654902 C241.916779,13.8784314 244.04698,11.9058824 246.628188,11.9058824 C247.441611,11.9058824 248.073826,11.9960784 248.802685,12.372549 L248.347651,14.254902 C247.622819,13.972549 247.216107,13.8745098 246.358389,13.8745098 C244.409396,13.8745098 242.097987,15.427451 240.422819,19.6627451 L240.422819,35.0431373 L238.42953,35.0431373 L238.42953,12.4705882 L238.42953,12.4705882 Z"></path>
                    <path d="M253.014765,12.4705882 L254.738255,12.4705882 L254.919463,15.9529412 L255.056376,15.9529412 C257.001342,13.6470588 259.49396,11.9098039 261.889933,11.9098039 C265.377181,11.9098039 267.144966,13.745098 267.914094,16.5176471 C270.402685,13.6941176 272.806711,11.9098039 275.295302,11.9098039 C279.644295,11.9098039 281.814765,14.7294118 281.814765,20.5607843 L281.814765,35.0470588 L279.777181,35.0470588 L279.777181,20.8431373 C279.777181,16.0431373 278.238926,13.7882353 274.932886,13.7882353 C272.895302,13.7882353 270.813423,15.1960784 268.413423,18.0196078 L268.413423,35.0470588 L266.420134,35.0470588 L266.420134,20.8431373 C266.420134,16.0431373 264.881879,13.7882353 261.527517,13.7882353 C259.58255,13.7882353 257.408054,15.1960784 255.008054,18.0196078 L255.008054,35.0470588 L253.014765,35.0470588 L253.014765,12.4705882 L253.014765,12.4705882 Z"></path>
                    <path d="M302.842953,20.8862745 C302.931544,17.454902 301.985235,13.7411765 297.724832,13.7411765 C294.785235,13.7411765 292.248322,15.2470588 290.794631,16.372549 L289.888591,14.8196078 C291.426846,13.6901961 294.414765,11.9058824 297.950336,11.9058824 C303.108725,11.9058824 304.832215,15.7607843 304.832215,20.6078431 L304.832215,35.0470588 L303.157047,35.0470588 L302.927517,32.1333333 L302.838926,32.1333333 C300.620134,33.9686275 297.994631,35.6117647 295.143624,35.6117647 C291.704698,35.6117647 288.805369,33.6862745 288.805369,29.4039216 C288.809396,24.4156863 293.202685,22.0156863 302.842953,20.8862745 L302.842953,20.8862745 Z M295.461745,33.8235294 C297.954362,33.8235294 300.173154,32.5529412 302.842953,30.1529412 L302.842953,22.4862745 C293.92349,23.5647059 290.887248,25.7294118 290.887248,29.3058824 C290.887248,32.5529412 292.973154,33.8235294 295.461745,33.8235294 L295.461745,33.8235294 Z"></path>
                    <path d="M320.967785,11.9058824 C323.955705,11.9058824 325.904698,13.2705882 327.350336,14.6784314 L326.174497,16.1372549 C324.769128,14.772549 323.138255,13.7411765 321.012081,13.7411765 C316.574497,13.7411765 313.13557,17.8313725 313.13557,23.8039216 C313.13557,29.7294118 316.256376,33.772549 321.012081,33.772549 C323.32349,33.772549 325.312752,32.5960784 326.806711,31.1882353 L327.849664,32.5960784 C325.993289,34.3372549 323.685906,35.6078431 320.919463,35.6078431 C315.302013,35.6078431 311.049664,31.2823529 311.049664,23.8039216 C311.049664,16.2352941 315.668456,11.9058824 320.967785,11.9058824 L320.967785,11.9058824 Z"></path>
                    <path d="M340.58255,11.9058824 C345.833557,11.9058824 350.363758,16.2352941 350.363758,23.8039216 C350.363758,31.2823529 345.833557,35.6078431 340.58255,35.6078431 C335.371812,35.6078431 330.845638,31.2823529 330.845638,23.8039216 C330.845638,16.2352941 335.371812,11.9058824 340.58255,11.9058824 L340.58255,11.9058824 Z M340.58255,33.772549 C344.975839,33.772549 348.277852,29.7294118 348.277852,23.8039216 C348.277852,17.8313725 344.975839,13.7411765 340.58255,13.7411765 C336.189262,13.7411765 332.931544,17.8313725 332.931544,23.8039216 C332.931544,29.7294118 336.189262,33.772549 340.58255,33.772549 L340.58255,33.772549 Z"></path>
                    <path d="M358.522148,34.2 L358.522148,34.0117647 C357.434899,33.3529412 356.621477,32.1333333 356.621477,30.3882353 C356.621477,28.3647059 358.026846,26.9568627 358.977181,26.2470588 L358.977181,26.0588235 C357.616107,24.8352941 356.25906,22.5764706 356.25906,19.8509804 C356.25906,15.1921569 359.653691,11.9058824 363.910067,11.9058824 C365.085906,11.9058824 366.084564,12.1843137 366.761074,12.4705882 L374.142282,12.4705882 L374.142282,14.2078431 L369.072483,14.2078431 C370.477852,15.4784314 371.472483,17.5019608 371.472483,19.8980392 C371.472483,24.5098039 368.166443,27.8470588 363.910067,27.8470588 C362.685906,27.8470588 361.284564,27.5176471 360.289933,26.9058824 C359.339597,27.7058824 358.522148,28.6470588 358.522148,30.1529412 C358.522148,31.8 359.432215,33.1137255 362.689933,33.1137255 L367.35302,33.1137255 C372.245638,33.1137255 374.504698,34.7137255 374.504698,38.2862745 C374.504698,42.1921569 370.477852,45.9058824 364.224161,45.9058824 C358.747651,45.9058824 355.304698,43.4588235 355.304698,39.6509804 C355.308725,37.6784314 356.532886,35.7019608 358.522148,34.2 L358.522148,34.2 Z M364.457718,44.2156863 C369.350336,44.2156863 372.471141,41.3490196 372.471141,38.5254902 C372.471141,36.0313725 370.707383,35.0901961 367.445638,35.0901961 L362.78255,35.0901961 C362.331544,35.0901961 361.195973,35 360.06443,34.7137255 C358.071141,36.1215686 357.209396,37.8666667 357.209396,39.4627451 C357.209396,42.2862745 359.834899,44.2156863 364.457718,44.2156863 L364.457718,44.2156863 Z M369.531544,19.854902 C369.531544,16.0431373 366.994631,13.6 363.914094,13.6 C360.833557,13.6 358.252349,15.9960784 358.252349,19.854902 C358.252349,23.6666667 360.877852,26.2039216 363.914094,26.2039216 C366.902013,26.2039216 369.531544,23.6627451 369.531544,19.854902 L369.531544,19.854902 Z"></path>
                    <path d="M386.565101,11.9058824 C391.72349,11.9058824 394.892617,15.7137255 394.892617,22.345098 C394.892617,22.9098039 394.892617,23.4745098 394.804027,24.0392157 L379.13557,24.0392157 C379.224161,29.7294118 382.441611,33.8235294 387.330201,33.8235294 C389.685906,33.8235294 391.542282,33.0235294 393.173154,31.8 L393.986577,33.3960784 C392.267114,34.4784314 390.318121,35.6039216 387.148993,35.6039216 C381.579866,35.6039216 377.097987,31.1843137 377.097987,23.8 C377.097987,16.4156863 381.716779,11.9058824 386.565101,11.9058824 L386.565101,11.9058824 Z M392.995973,22.4431373 C392.995973,16.654902 390.503356,13.6941176 386.609396,13.6941176 C382.896644,13.6941176 379.590604,17.0352941 379.139597,22.4431373 L392.995973,22.4431373 L392.995973,22.4431373 Z"></path>
                    <path d="M401.01745,12.4705882 L402.74094,12.4705882 L402.922148,15.9529412 L403.05906,15.9529412 C405.277852,13.6470588 407.54094,11.9098039 410.528859,11.9098039 C415.010738,11.9098039 417.092617,14.7294118 417.092617,20.5607843 L417.092617,35.0470588 L415.103356,35.0470588 L415.103356,20.8431373 C415.103356,16.0431373 413.653691,13.7882353 410.122148,13.7882353 C407.54094,13.7882353 405.684564,15.1960784 403.010738,18.0196078 L403.010738,35.0470588 L401.01745,35.0470588 L401.01745,12.4705882 L401.01745,12.4705882 Z"></path>
                    <path d="M432.998658,11.9058824 C438.157047,11.9058824 441.326174,15.7137255 441.326174,22.345098 C441.326174,22.9098039 441.326174,23.4745098 441.237584,24.0392157 L425.569128,24.0392157 C425.657718,29.7294118 428.875168,33.8235294 433.763758,33.8235294 C436.119463,33.8235294 437.975839,33.0235294 439.606711,31.8 L440.420134,33.3960784 C438.700671,34.4784314 436.751678,35.6039216 433.58255,35.6039216 C428.013423,35.6039216 423.531544,31.1843137 423.531544,23.8 C423.531544,16.4156863 428.150336,11.9058824 432.998658,11.9058824 L432.998658,11.9058824 Z M439.42953,22.4431373 C439.42953,16.654902 436.936913,13.6941176 433.042953,13.6941176 C429.330201,13.6941176 426.024161,17.0352941 425.573154,22.4431373 L439.42953,22.4431373 L439.42953,22.4431373 Z"></path>
                    <path d="M447.451007,14.2588235 L444.052349,14.2588235 L444.052349,12.6588235 L447.495302,12.4705882 L447.765101,5.93333333 L449.484564,5.93333333 L449.484564,12.4705882 L455.778523,12.4705882 L455.778523,14.2588235 L449.484564,14.2588235 L449.484564,28.9803922 C449.484564,31.8470588 450.165101,33.7764706 453.15302,33.7764706 C453.966443,33.7764706 455.097987,33.4470588 455.871141,33.0705882 L456.414765,34.7647059 C455.150336,35.2352941 453.789262,35.6117647 452.883221,35.6117647 C448.671141,35.6117647 447.44698,32.8392157 447.44698,28.7960784 L447.44698,14.2588235 L447.451007,14.2588235 Z"></path>
                    <path d="M460.546309,5.17647059 C460.546309,4 461.359732,3.29803922 462.354362,3.29803922 C463.35302,3.29803922 464.166443,4.00392157 464.166443,5.17647059 C464.166443,6.25882353 463.35302,7.01176471 462.354362,7.01176471 C461.359732,7.01176471 460.546309,6.2627451 460.546309,5.17647059 L460.546309,5.17647059 Z M461.315436,12.4705882 L463.308725,12.4705882 L463.308725,35.0470588 L461.315436,35.0470588 L461.315436,12.4705882 L461.315436,12.4705882 Z"></path>
                    <path d="M480.020134,11.9058824 C483.008054,11.9058824 484.957047,13.2705882 486.402685,14.6784314 L485.226846,16.1372549 C483.821477,14.772549 482.190604,13.7411765 480.06443,13.7411765 C475.626846,13.7411765 472.187919,17.8313725 472.187919,23.8039216 C472.187919,29.7294118 475.308725,33.772549 480.06443,33.772549 C482.375839,33.772549 484.365101,32.5960784 485.85906,31.1882353 L486.902013,32.5960784 C485.045638,34.3372549 482.738255,35.6078431 479.971812,35.6078431 C474.354362,35.6078431 470.102013,31.2823529 470.102013,23.8039216 C470.102013,16.2352941 474.720805,11.9058824 480.020134,11.9058824 L480.020134,11.9058824 Z"></path>
                    <path d="M490.94094,30.9568627 C492.797315,32.5529412 494.742282,33.8235294 497.871141,33.8235294 C501.265772,33.8235294 503.033557,31.7529412 503.033557,29.3529412 C503.033557,26.5294118 500.226846,25.3098039 497.734228,24.3686275 C494.432215,23.145098 490.804027,21.7843137 490.804027,17.9254902 C490.804027,14.6313725 493.296644,11.9058824 497.822819,11.9058824 C500.134228,11.9058824 502.441611,12.8941176 504.028188,14.2588235 L502.94094,15.7137255 C501.491275,14.5882353 499.95302,13.6901961 497.730201,13.6901961 C494.379866,13.6901961 492.841611,15.7137255 492.841611,17.7843137 C492.841611,20.2784314 495.374497,21.3568627 497.959732,22.345098 C501.354362,23.6627451 505.071141,24.8392157 505.071141,29.2588235 C505.071141,32.6470588 502.445638,35.6078431 497.734228,35.6078431 C494.520805,35.6078431 491.714094,34.2 489.765101,32.5058824 L490.94094,30.9568627 L490.94094,30.9568627 Z"></path>
                    <polygon points="2.7704698 51.1098039 4.85637584 51.1098039 4.85637584 82.1019608 2.7704698 82.1019608"></polygon>
                    <path d="M13.4657718,59.5294118 L15.1892617,59.5294118 L15.3704698,63.0117647 L15.5073826,63.0117647 C17.452349,60.7058824 19.9449664,58.9686275 22.3409396,58.9686275 C25.8281879,58.9686275 27.5959732,60.8039216 28.3651007,63.5764706 C30.8536913,60.7529412 33.2577181,58.9686275 35.7463087,58.9686275 C40.095302,58.9686275 42.2657718,61.7882353 42.2657718,67.6196078 L42.2657718,82.1058824 L40.2281879,82.1058824 L40.2281879,67.9019608 C40.2281879,63.1019608 38.6899329,60.8470588 35.3838926,60.8470588 C33.3463087,60.8470588 31.2644295,62.254902 28.8644295,65.0784314 L28.8644295,82.1058824 L26.8711409,82.1058824 L26.8711409,67.9019608 C26.8711409,63.1019608 25.3328859,60.8470588 21.9785235,60.8470588 C20.033557,60.8470588 17.8590604,62.254902 15.4590604,65.0784314 L15.4590604,82.1058824 L13.4657718,82.1058824 L13.4657718,59.5294118 L13.4657718,59.5294118 Z"></path>
                    <path d="M52.4657718,84.0784314 L52.4657718,92.3098039 L50.4724832,92.3098039 L50.4724832,59.5294118 L52.1959732,59.5294118 L52.3771812,62.3529412 L52.514094,62.3529412 C54.6402685,60.6117647 57.2214765,58.9686275 59.895302,58.9686275 C65.6899329,58.9686275 68.5892617,63.4823529 68.5892617,70.4901961 C68.5892617,78.1529412 64.1073826,82.6666667 58.9852349,82.6666667 C56.947651,82.6666667 54.7288591,81.6313725 52.4657718,79.8941176 L52.4657718,84.0784314 L52.4657718,84.0784314 Z M58.8966443,80.8313725 C63.2899329,80.8313725 66.4590604,76.6 66.4590604,70.4862745 C66.4590604,64.9333333 64.5583893,60.7960784 59.5771812,60.7960784 C57.4026846,60.7960784 55.095302,62.1098039 52.4657718,64.5098039 L52.4657718,77.9137255 C54.9543624,80.0352941 57.2214765,80.8313725 58.8966443,80.8313725 L58.8966443,80.8313725 Z"></path>
                    <path d="M75.3463087,48.2862745 L77.3395973,48.2862745 L77.3395973,79.3764706 C77.3395973,80.3647059 77.7503356,80.8313725 78.2899329,80.8313725 C78.4711409,80.8313725 78.652349,80.8313725 79.1033557,80.7411765 L79.4657718,82.4352941 C79.0590604,82.5764706 78.652349,82.6705882 78.0201342,82.6705882 C76.2563758,82.6705882 75.3463087,81.545098 75.3463087,79.0980392 L75.3463087,48.2862745 L75.3463087,48.2862745 Z"></path>
                    <path d="M93.966443,58.9647059 C99.1248322,58.9647059 102.29396,62.772549 102.29396,69.4039216 C102.29396,69.9686275 102.29396,70.5333333 102.205369,71.0980392 L86.5369128,71.0980392 C86.6255034,76.7882353 89.842953,80.8823529 94.7315436,80.8823529 C97.0872483,80.8823529 98.9436242,80.0823529 100.574497,78.8588235 L101.387919,80.454902 C99.6684564,81.5372549 97.7194631,82.6627451 94.5503356,82.6627451 C88.9812081,82.6627451 84.4993289,78.2431373 84.4993289,70.8588235 C84.4993289,63.4745098 89.1181208,58.9647059 93.966443,58.9647059 L93.966443,58.9647059 Z M100.397315,69.5019608 C100.397315,63.7137255 97.904698,60.7529412 94.0107383,60.7529412 C90.2979866,60.7529412 86.9919463,64.0941176 86.5409396,69.5019608 L100.397315,69.5019608 L100.397315,69.5019608 Z"></path>
                    <path d="M108.414765,59.5294118 L110.138255,59.5294118 L110.319463,63.0117647 L110.456376,63.0117647 C112.401342,60.7058824 114.89396,58.9686275 117.29396,58.9686275 C120.777181,58.9686275 122.544966,60.8039216 123.314094,63.5764706 C125.802685,60.7529412 128.206711,58.9686275 130.695302,58.9686275 C135.044295,58.9686275 137.214765,61.7882353 137.214765,67.6196078 L137.214765,82.1058824 L135.177181,82.1058824 L135.177181,67.9019608 C135.177181,63.1019608 133.638926,60.8470588 130.332886,60.8470588 C128.295302,60.8470588 126.213423,62.254902 123.813423,65.0784314 L123.813423,82.1058824 L121.820134,82.1058824 L121.820134,67.9019608 C121.820134,63.1019608 120.281879,60.8470588 116.927517,60.8470588 C114.98255,60.8470588 112.808054,62.254902 110.408054,65.0784314 L110.408054,82.1058824 L108.414765,82.1058824 L108.414765,59.5294118 L108.414765,59.5294118 Z"></path>
                    <path d="M153.084564,58.9647059 C158.242953,58.9647059 161.412081,62.772549 161.412081,69.4039216 C161.412081,69.9686275 161.412081,70.5333333 161.32349,71.0980392 L145.655034,71.0980392 C145.743624,76.7882353 148.961074,80.8823529 153.849664,80.8823529 C156.205369,80.8823529 158.061745,80.0823529 159.692617,78.8588235 L160.50604,80.454902 C158.786577,81.5372549 156.837584,82.6627451 153.668456,82.6627451 C148.099329,82.6627451 143.61745,78.2431373 143.61745,70.8588235 C143.61745,63.4745098 148.236242,58.9647059 153.084564,58.9647059 L153.084564,58.9647059 Z M159.511409,69.5019608 C159.511409,63.7137255 157.018792,60.7529412 153.124832,60.7529412 C149.412081,60.7529412 146.10604,64.0941176 145.655034,69.5019608 L159.511409,69.5019608 L159.511409,69.5019608 Z"></path>
                    <path d="M167.532886,59.5294118 L169.256376,59.5294118 L169.437584,63.0117647 L169.574497,63.0117647 C171.793289,60.7058824 174.056376,58.9686275 177.044295,58.9686275 C181.526174,58.9686275 183.608054,61.7882353 183.608054,67.6196078 L183.608054,82.1058824 L181.618792,82.1058824 L181.618792,67.9019608 C181.618792,63.1019608 180.169128,60.8470588 176.637584,60.8470588 C174.056376,60.8470588 172.2,62.254902 169.526174,65.0784314 L169.526174,82.1058824 L167.532886,82.1058824 L167.532886,59.5294118 L167.532886,59.5294118 Z"></path>
                    <path d="M192.362416,61.3176471 L188.963758,61.3176471 L188.963758,59.7176471 L192.406711,59.5294118 L192.67651,52.9921569 L194.395973,52.9921569 L194.395973,59.5294118 L200.689933,59.5294118 L200.689933,61.3176471 L194.395973,61.3176471 L194.395973,76.0392157 C194.395973,78.9058824 195.07651,80.8352941 198.06443,80.8352941 C198.877852,80.8352941 200.009396,80.5058824 200.78255,80.1294118 L201.326174,81.8235294 C200.061745,82.2941176 198.700671,82.6705882 197.794631,82.6705882 C193.58255,82.6705882 192.358389,79.8980392 192.358389,75.854902 L192.358389,61.3176471 L192.362416,61.3176471 Z"></path>
                    <path d="M218.085906,67.945098 C218.174497,64.5137255 217.228188,60.8 212.967785,60.8 C210.028188,60.8 207.491275,62.3058824 206.037584,63.4313725 L205.131544,61.8784314 C206.669799,60.7490196 209.657718,58.9647059 213.193289,58.9647059 C218.351678,58.9647059 220.075168,62.8196078 220.075168,67.6666667 L220.075168,82.1058824 L218.4,82.1058824 L218.17047,79.1921569 L218.081879,79.1921569 C215.863087,81.027451 213.237584,82.6705882 210.386577,82.6705882 C206.947651,82.6705882 204.048322,80.745098 204.048322,76.4627451 C204.052349,71.4745098 208.445638,69.0745098 218.085906,67.945098 L218.085906,67.945098 Z M210.704698,80.8823529 C213.197315,80.8823529 215.416107,79.6117647 218.085906,77.2117647 L218.085906,69.545098 C209.166443,70.6235294 206.130201,72.7882353 206.130201,76.3647059 C206.130201,79.6117647 208.216107,80.8823529 210.704698,80.8823529 L210.704698,80.8823529 Z"></path>
                    <path d="M228.604027,61.3176471 L225.205369,61.3176471 L225.205369,59.7176471 L228.648322,59.5294118 L228.918121,52.9921569 L230.637584,52.9921569 L230.637584,59.5294118 L236.931544,59.5294118 L236.931544,61.3176471 L230.637584,61.3176471 L230.637584,76.0392157 C230.637584,78.9058824 231.318121,80.8352941 234.30604,80.8352941 C235.119463,80.8352941 236.251007,80.5058824 237.024161,80.1294118 L237.567785,81.8235294 C236.303356,82.2941176 234.942282,82.6705882 234.036242,82.6705882 C229.824161,82.6705882 228.6,79.8980392 228.6,75.854902 L228.6,61.3176471 L228.604027,61.3176471 Z"></path>
                    <path d="M241.695302,52.2352941 C241.695302,51.0588235 242.508725,50.3568627 243.503356,50.3568627 C244.502013,50.3568627 245.315436,51.0627451 245.315436,52.2352941 C245.315436,53.3176471 244.502013,54.0705882 243.503356,54.0705882 C242.508725,54.0705882 241.695302,53.3215686 241.695302,52.2352941 L241.695302,52.2352941 Z M242.460403,59.5294118 L244.453691,59.5294118 L244.453691,82.1058824 L242.460403,82.1058824 L242.460403,59.5294118 L242.460403,59.5294118 Z"></path>
                    <path d="M260.991946,58.9647059 C266.242953,58.9647059 270.773154,63.2941176 270.773154,70.8627451 C270.773154,78.3411765 266.242953,82.6666667 260.991946,82.6666667 C255.781208,82.6666667 251.255034,78.3411765 251.255034,70.8627451 C251.255034,63.2941176 255.781208,58.9647059 260.991946,58.9647059 L260.991946,58.9647059 Z M260.991946,80.8313725 C265.385235,80.8313725 268.687248,76.7882353 268.687248,70.8627451 C268.687248,64.8901961 265.385235,60.8 260.991946,60.8 C256.598658,60.8 253.340936,64.8901961 253.340936,70.8627451 C253.336913,76.7882353 256.598658,80.8313725 260.991946,80.8313725 L260.991946,80.8313725 Z"></path>
                    <path d="M277.526174,59.5294118 L279.249664,59.5294118 L279.430872,63.0117647 L279.567785,63.0117647 C281.786577,60.7058824 284.049664,58.9686275 287.037584,58.9686275 C291.519463,58.9686275 293.601342,61.7882353 293.601342,67.6196078 L293.601342,82.1058824 L291.612081,82.1058824 L291.612081,67.9019608 C291.612081,63.1019608 290.162416,60.8470588 286.630872,60.8470588 C284.049664,60.8470588 282.193289,62.254902 279.519463,65.0784314 L279.519463,82.1058824 L277.526174,82.1058824 L277.526174,59.5294118 L277.526174,59.5294118 Z"></path>
                    <path d="M322.010738,50.545098 C325.49396,50.545098 328.167785,52.3333333 329.754362,54.2627451 L328.530201,55.6705882 C326.899329,53.7921569 324.728859,52.5176471 322.010738,52.5176471 C315.487248,52.5176471 311.412081,57.9254902 311.412081,66.5333333 C311.412081,75.1372549 315.442953,80.6901961 321.82953,80.6901961 C324.910067,80.6901961 327.21745,79.4196078 329.391946,76.8784314 L330.616107,78.2431373 C328.348993,80.9686275 325.634899,82.6627451 321.74094,82.6627451 C314.404027,82.6627451 309.241608,76.4078431 309.241608,66.5333333 C309.237584,56.7058824 314.4,50.545098 322.010738,50.545098 L322.010738,50.545098 Z"></path>
                    <path d="M344.480537,58.9647059 C349.731544,58.9647059 354.261745,63.2941176 354.261745,70.8627451 C354.261745,78.3411765 349.731544,82.6666667 344.480537,82.6666667 C339.269799,82.6666667 334.743624,78.3411765 334.743624,70.8627451 C334.743624,63.2941176 339.269799,58.9647059 344.480537,58.9647059 L344.480537,58.9647059 Z M344.480537,80.8313725 C348.873826,80.8313725 352.175839,76.7882353 352.175839,70.8627451 C352.175839,64.8901961 348.873826,60.8 344.480537,60.8 C340.087248,60.8 336.82953,64.8901961 336.82953,70.8627451 C336.82953,76.7882353 340.087248,80.8313725 344.480537,80.8313725 L344.480537,80.8313725 Z"></path>
                    <path d="M361.014765,59.5294118 L362.738255,59.5294118 L362.919463,63.0117647 L363.056376,63.0117647 C365.275168,60.7058824 367.538255,58.9686275 370.526174,58.9686275 C375.008054,58.9686275 377.089933,61.7882353 377.089933,67.6196078 L377.089933,82.1058824 L375.100671,82.1058824 L375.100671,67.9019608 C375.100671,63.1019608 373.651007,60.8470588 370.119463,60.8470588 C367.538255,60.8470588 365.681879,62.254902 363.008054,65.0784314 L363.008054,82.1058824 L361.014765,82.1058824 L361.014765,59.5294118 L361.014765,59.5294118 Z"></path>
                    <path d="M383.806711,78.0156863 C385.663087,79.6117647 387.608054,80.8823529 390.736913,80.8823529 C394.131544,80.8823529 395.899329,78.8117647 395.899329,76.4117647 C395.899329,73.5882353 393.092617,72.3686275 390.6,71.427451 C387.297987,70.2039216 383.669799,68.8431373 383.669799,64.9843137 C383.669799,61.6901961 386.162416,58.9647059 390.688591,58.9647059 C393,58.9647059 395.307383,59.9529412 396.89396,61.3176471 L395.806711,62.772549 C394.357047,61.6470588 392.818792,60.7490196 390.595973,60.7490196 C387.245638,60.7490196 385.707383,62.772549 385.707383,64.8431373 C385.707383,67.3372549 388.240268,68.4156863 390.825503,69.4039216 C394.220134,70.7215686 397.936913,71.8980392 397.936913,76.3176471 C397.936913,79.7058824 395.311409,82.6666667 390.6,82.6666667 C387.386577,82.6666667 384.579866,81.2588235 382.630872,79.5647059 L383.806711,78.0156863 L383.806711,78.0156863 Z"></path>
                    <path d="M411.841611,58.9647059 C417.092617,58.9647059 421.622819,63.2941176 421.622819,70.8627451 C421.622819,78.3411765 417.092617,82.6666667 411.841611,82.6666667 C406.630872,82.6666667 402.104698,78.3411765 402.104698,70.8627451 C402.104698,63.2941176 406.630872,58.9647059 411.841611,58.9647059 L411.841611,58.9647059 Z M411.841611,80.8313725 C416.234899,80.8313725 419.536913,76.7882353 419.536913,70.8627451 C419.536913,64.8901961 416.234899,60.8 411.841611,60.8 C407.448322,60.8 404.190604,64.8901961 404.190604,70.8627451 C404.190604,76.7882353 407.452349,80.8313725 411.841611,80.8313725 L411.841611,80.8313725 Z"></path>
                    <path d="M428.379866,59.5294118 L430.103356,59.5294118 L430.284564,63.7137255 L430.421477,63.7137255 C431.867114,60.9372549 433.997315,58.9647059 436.578523,58.9647059 C437.391946,58.9647059 438.024161,59.054902 438.75302,59.4313725 L438.297987,61.3137255 C437.573154,61.0313725 437.166443,60.9333333 436.308725,60.9333333 C434.363758,60.9333333 432.048322,62.4862745 430.373154,66.7215686 L430.373154,82.1019608 L428.379866,82.1019608 L428.379866,59.5294118 L428.379866,59.5294118 Z"></path>
                    <path d="M443.46443,61.3176471 L440.065772,61.3176471 L440.065772,59.7176471 L443.508725,59.5294118 L443.778523,52.9921569 L445.497987,52.9921569 L445.497987,59.5294118 L451.791946,59.5294118 L451.791946,61.3176471 L445.497987,61.3176471 L445.497987,76.0392157 C445.497987,78.9058824 446.178523,80.8352941 449.166443,80.8352941 C449.979866,80.8352941 451.111409,80.5058824 451.884564,80.1294118 L452.428188,81.8235294 C451.163758,82.2941176 449.802685,82.6705882 448.896644,82.6705882 C444.684564,82.6705882 443.460403,79.8980392 443.460403,75.854902 L443.460403,61.3176471 L443.46443,61.3176471 Z"></path>
                    <path d="M456.559732,52.2352941 C456.559732,51.0588235 457.373154,50.3568627 458.367785,50.3568627 C459.366443,50.3568627 460.179866,51.0627451 460.179866,52.2352941 C460.179866,53.3176471 459.366443,54.0705882 458.367785,54.0705882 C457.373154,54.0705882 456.559732,53.3215686 456.559732,52.2352941 L456.559732,52.2352941 Z M457.324832,59.5294118 L459.318121,59.5294118 L459.318121,82.1058824 L457.324832,82.1058824 L457.324832,59.5294118 L457.324832,59.5294118 Z"></path>
                    <path d="M467.609396,59.5294118 L469.602685,59.5294118 L469.602685,73.7333333 C469.602685,78.5333333 471.048322,80.7882353 474.539597,80.7882353 C477.120805,80.7882353 479.021477,79.3803922 481.558389,76.1803922 L481.558389,59.5294118 L483.547651,59.5294118 L483.547651,82.1058824 L481.872483,82.1058824 L481.64698,78.345098 L481.558389,78.345098 C479.428188,80.9294118 477.165101,82.6705882 474.177181,82.6705882 C469.695302,82.6705882 467.609396,79.8470588 467.609396,74.0196078 L467.609396,59.5294118 L467.609396,59.5294118 Z"></path>
                    <path d="M492.116779,59.5294118 L493.840268,59.5294118 L494.021477,63.0117647 L494.158389,63.0117647 C496.103356,60.7058824 498.595973,58.9686275 500.991946,58.9686275 C504.479195,58.9686275 506.24698,60.8039216 507.016107,63.5764706 C509.504698,60.7529412 511.908725,58.9686275 514.397315,58.9686275 C518.746309,58.9686275 520.916779,61.7882353 520.916779,67.6196078 L520.916779,82.1058824 L518.879195,82.1058824 L518.879195,67.9019608 C518.879195,63.1019608 517.34094,60.8470588 514.034899,60.8470588 C511.997315,60.8470588 509.915436,62.254902 507.515436,65.0784314 L507.515436,82.1058824 L505.522148,82.1058824 L505.522148,67.9019608 C505.522148,63.1019608 503.983893,60.8470588 500.62953,60.8470588 C498.684564,60.8470588 496.510067,62.254902 494.110067,65.0784314 L494.110067,82.1058824 L492.116779,82.1058824 L492.116779,59.5294118 L492.116779,59.5294118 Z"></path>
                </g>
            </g>
            <text id="®" font-family="Helvetica" font-size="18" font-weight="normal" fill="#000000">
                <tspan x="421.368652" y="18">®</tspan>
            </text>
        </g>
    </g>
</svg>