<svg xmlns="http://www.w3.org/2000/svg" viewBox="0 0 155 32">
<path fill="#33669a" d="M2.88 6.684c0-.704.352-1.055 1.056-1.055h7.2c1.024 0 1.973.165 2.848.495a6.256 6.256 0 0 1 2.24 1.425 6.627 6.627 0 0 1 1.456 2.24c.352.874.528 1.845.528 2.911 0 1.067-.176 2.043-.528 2.929s-.838 1.642-1.456 2.272a6.32 6.32 0 0 1-2.24 1.456 7.795 7.795 0 0 1-2.848.511h-5.12v7.297c0 .704-.352 1.055-1.056 1.055H3.936c-.704 0-1.056-.351-1.056-1.055V6.685Zm7.744 10.432c1.365 0 2.437-.394 3.216-1.184.778-.789 1.168-1.866 1.168-3.232 0-1.364-.39-2.426-1.168-3.184-.78-.757-1.84-1.135-3.184-1.135h-4.64v8.735h4.608Zm10.72-10.432c0-.704.352-1.055 1.056-1.055h.991c.683 0 1.025.351 1.025 1.055v7.328c0 .192-.006.374-.016.544a3.37 3.37 0 0 1-.049.416 2.75 2.75 0 0 0-.031.385h.064c.17-.385.432-.795.784-1.233a6.775 6.775 0 0 1 1.296-1.216 6.887 6.887 0 0 1 1.76-.912c.66-.234 1.396-.352 2.207-.352 1.92 0 3.329.518 4.225 1.552.896 1.036 1.344 2.587 1.344 4.656v9.313c0 .704-.352 1.055-1.056 1.055h-.993c-.704 0-1.055-.351-1.055-1.055v-8.609c0-.576-.038-1.109-.112-1.6a3.384 3.384 0 0 0-.448-1.28 2.395 2.395 0 0 0-.945-.864c-.405-.213-.927-.32-1.567-.32-.768 0-1.483.15-2.144.449-.662.298-1.232.72-1.712 1.263s-.86 1.184-1.137 1.92a6.801 6.801 0 0 0-.415 2.416v6.625c0 .704-.342 1.055-1.025 1.055H22.4c-.704 0-1.056-.351-1.056-1.055V6.685Zm17.6 17.12c0-.832.16-1.551.48-2.16a4.534 4.534 0 0 1 1.28-1.52 7.22 7.22 0 0 1 1.808-.992c.671-.256 1.37-.448 2.095-.576s1.435-.213 2.129-.256a30.888 30.888 0 0 1 1.871-.064h.832v-.416c0-.66-.09-1.22-.272-1.68-.18-.458-.431-.826-.752-1.104-.32-.277-.693-.474-1.12-.592s-.885-.176-1.376-.176c-.81 0-1.53.118-2.16.352-.63.235-1.125.46-1.488.672-.618.3-1.098.172-1.44-.384l-.255-.447c-.342-.64-.225-1.12.352-1.44.49-.278 1.178-.576 2.064-.897.884-.32 1.946-.48 3.184-.48 2.026 0 3.594.54 4.703 1.616 1.11 1.078 1.664 2.651 1.664 4.72v9.185c0 .704-.352 1.055-1.055 1.055h-.8c-.705 0-1.056-.351-1.056-1.055v-1.377c0-.128.01-.234.031-.32l.064-.255h-.064a6.495 6.495 0 0 1-1.215 1.696c-.428.427-.972.815-1.633 1.168-.66.351-1.471.527-2.431.527a6.643 6.643 0 0 1-2.049-.32 5.206 5.206 0 0 1-1.743-.944 4.7 4.7 0 0 1-1.2-1.503c-.3-.587-.448-1.265-.448-2.033Zm3.135-.255c0 .64.25 1.231.752 1.775.501.544 1.253.816 2.256.816.683 0 1.297-.154 1.84-.464a4.421 4.421 0 0 0 1.377-1.215 5.887 5.887 0 0 0 .863-1.664c.203-.609.305-1.21.305-1.809v-.704h-.833c-.576 0-1.237.027-1.983.08a9.425 9.425 0 0 0-2.144.4c-.684.214-1.26.54-1.728.976-.47.438-.705 1.04-.705 1.809ZM56.8 13.084c0-.703.351-1.056 1.055-1.056h.896c.704 0 1.056.353 1.056 1.056v1.857c0 .17-.005.33-.016.48s-.027.277-.048.383a2.142 2.142 0 0 0-.032.352h.064a7.34 7.34 0 0 1 .72-1.567 6.21 6.21 0 0 1 1.104-1.36 5.57 5.57 0 0 1 1.424-.96 3.987 3.987 0 0 1 1.712-.368c.683 0 1.025.352 1.025 1.055v.896c0 .704-.385 1.056-1.153 1.056-.79 0-1.477.198-2.064.592a5.14 5.14 0 0 0-1.471 1.52 6.937 6.937 0 0 0-.88 2.129 10.19 10.19 0 0 0-.288 2.383v5.633c0 .704-.352 1.055-1.057 1.055h-.992c-.704 0-1.055-.351-1.055-1.055v-14.08Zm11.391 0c0-.703.352-1.056 1.056-1.056h.896c.704 0 1.056.353 1.056 1.056v1.44c0 .214-.021.427-.064.64a1.185 1.185 0 0 0-.032.288h.064c.192-.468.474-.933.848-1.392a6.48 6.48 0 0 1 1.312-1.216 7.444 7.444 0 0 1 1.632-.864 5.125 5.125 0 0 1 1.84-.336c2.667 0 4.288 1.227 4.864 3.68h.064a5.83 5.83 0 0 1 .896-1.376 6.953 6.953 0 0 1 1.312-1.184 6.524 6.524 0 0 1 1.632-.816 5.83 5.83 0 0 1 1.888-.304c1.856 0 3.21.518 4.064 1.552.853 1.036 1.28 2.587 1.28 4.656v9.313c0 .704-.352 1.055-1.056 1.055h-.992c-.704 0-1.056-.351-1.056-1.055v-8.64c0-.577-.037-1.11-.112-1.6s-.214-.918-.416-1.28a2.245 2.245 0 0 0-.864-.865c-.374-.212-.859-.32-1.456-.32-.747 0-1.419.176-2.016.528s-1.104.822-1.52 1.408a6.529 6.529 0 0 0-.944 2 8.235 8.235 0 0 0-.32 2.273v6.496c0 .704-.342 1.055-1.024 1.055h-1.024c-.683 0-1.024-.351-1.024-1.055v-8.64c0-.534-.032-1.046-.096-1.537a3.939 3.939 0 0 0-.384-1.295 2.21 2.21 0 0 0-.848-.896c-.374-.225-.87-.336-1.488-.336-.768 0-1.456.18-2.064.544s-1.12.837-1.536 1.423a6.518 6.518 0 0 0-.944 2 8.122 8.122 0 0 0-.32 2.24v6.497c0 .704-.352 1.055-1.056 1.055h-.992c-.704 0-1.056-.351-1.056-1.055v-14.08Z"/>
<path fill="#c91f4d" d="M96.127 17.565c0-6.56 4.895-11.039 11.039-11.039 4.48 0 7.136 2.24 8.735 4.8l-3.2 1.632c-1.023-1.76-3.071-3.104-5.535-3.104-4.064 0-7.2 3.232-7.2 7.711s3.136 7.712 7.2 7.712c2.464 0 4.512-1.312 5.535-3.104l3.2 1.632c-1.632 2.56-4.256 4.8-8.735 4.8-6.144 0-11.04-4.48-11.04-11.04Zm37.726 10.655-1.568-4.095h-10.11l-1.568 4.095h-4.096l8.383-21.342h4.672l8.383 21.342h-4.096Zm-6.623-18.174-4 10.783h8l-4-10.783Zm16.064 18.174V10.174h-6.463V6.878h16.67v3.296h-6.463V28.22h-3.744Z"/>
</svg>
