<?xml version="1.0" encoding="UTF-8"?>
<svg id="Layer_1" data-name="Layer 1" xmlns="http://www.w3.org/2000/svg" viewBox="50 0 100 100">
  <defs>
    <style>
      .cls-1 {
        fill: #c9134a;
      }

      .cls-1, .cls-2 {
        stroke-width: 0px;
      }

      .cls-2 {
        fill: #369;
      }
    </style>
  </defs>
  <path class="cls-1" d="m63.8,46.47c0-7.81,5.25-12.31,11.16-12.31,3.06,0,5.51,1.37,7.13,3.06l-2.95,3.38c-1.15-1.08-2.38-1.62-4.03-1.62-3.1,0-5.58,2.74-5.58,7.27s2.2,7.38,5.47,7.38c1.91,0,3.38-.76,4.5-1.94l2.92,3.31c-2.05,2.34-4.64,3.46-7.59,3.46-5.98,0-11.01-4.07-11.01-11.99Z"/>
  <path class="cls-1" d="m86.19,34.59h8.24c5.15,0,9.36,1.84,9.36,7.59s-4.28,8.06-9.21,8.06h-2.77v7.77h-5.62v-23.43Zm8.06,11.23c2.77,0,4.07-1.3,4.07-3.64s-1.48-3.17-4.21-3.17h-2.3v6.8h2.45Z"/>
  <path class="cls-1" d="m108.12,34.59h5.62v23.43h-5.62v-23.43Z"/>
  <path class="cls-2" d="m118.38,46.47c0-7.81,5.25-12.31,11.16-12.31,3.06,0,5.51,1.37,7.13,3.06l-2.95,3.38c-1.15-1.08-2.38-1.62-4.03-1.62-3.1,0-5.58,2.74-5.58,7.27s2.2,7.38,5.47,7.38c1.91,0,3.38-.76,4.5-1.94l2.92,3.31c-2.05,2.34-4.64,3.46-7.59,3.46-5.98,0-11.01-4.07-11.01-11.99Z"/>
</svg>