<svg xmlns="http://www.w3.org/2000/svg" id="a" viewBox="0 0 32 32">
<path fill="#231f20" d="M5.924 24.822a.87.87 0 0 1-.85-.686c-.394-1.809.14-3.92.519-4.883 1.172-2.986 2.205-4.485 6.383-8.042l.453-.385c1.572-1.332 2.103-1.78 2.64-3.216a.87.87 0 1 1 1.631.61c-.695 1.86-1.514 2.554-3.145 3.935l-.45.382c-4.124 3.512-4.891 4.806-5.891 7.352-.331.845-.722 2.574-.438 3.877a.87.87 0 0 1-.852 1.056Zm10.152 7.033H7.749a.87.87 0 0 1 0-1.742h7.965c-.733-1.247-2.673-1.354-3.502-1.338a4.81 4.81 0 0 1-.46.022.871.871 0 0 1-.09-1.737c.035-.004.2-.02.455-.026.638-.081.925-.37 1.09-.595.967-1.321.276-4.485-.042-5.489a.872.872 0 0 1 1.661-.526c.15.474 1.403 4.637-.134 6.93 1.259.382 2.52 1.196 2.934 2.893a.9.9 0 0 1 .024.219c-.01.673-.566 1.39-1.574 1.39Z"/>
<path fill="#231f20" d="M7.75 31.855c-1.633 0-3.025-.778-4.028-2.249-2.008-2.945-2.05-8.182-1.197-10.353a.871.871 0 0 1 1.62.636c-.709 1.809-.593 6.375 1.017 8.736.682 1.001 1.529 1.488 2.587 1.488a.87.87 0 0 1 0 1.742Zm14.685 0H20.2a.87.87 0 0 1 0-1.742h1.693c-.223-.378-1.164-.64-1.653-.689a.875.875 0 0 1-.76-.654c-1.539-6.094-.085-8.565.613-9.752.089-.15.167-.278.218-.392.35-.787.563-3.085-.092-5.523-.416-1.548-.315-2.705.31-3.536.935-1.247 2.716-1.284 4.146-1.313.505-.01.983-.02 1.343-.08a2.545 2.545 0 0 0 2.222-2.213c.017-.118.081-.558-.184-.65-.636-.219-2.563-.358-3.629-.394a.87.87 0 0 1-.815-.659c-.538-2.14-3.17-2.371-4.276-2.371-.632.002-2.85 1.444-3.626 2.21.598.459 1.979 1.144 2.65 1.248.12-.287.198-.974.167-1.56a.871.871 0 0 1 .823-.915c.474-.039.89.34.917.82.027.49.058 2.154-.694 2.948a1.426 1.426 0 0 1-1.058.463c-1.028 0-4.73-1.475-4.73-2.972 0-1.397 4.203-3.984 5.551-3.984 1.413 0 4.653.313 5.76 3.058.95.05 2.709.178 3.53.463 1.35.467 1.464 1.867 1.336 2.542-.086 1.027-.982 3.248-3.663 3.686-.482.078-1.019.09-1.588.101-1.107.023-2.363.05-2.79.618-.345.46-.201 1.362-.02 2.038.736 2.738.558 5.435 0 6.684-.072.164-.18.35-.306.566-.604 1.027-1.71 2.906-.56 7.893.827.186 2.188.68 2.574 1.943.086.36.207 1.129-.22 1.666a1.19 1.19 0 0 1-.953.452Zm-6.96-27.479Z"/>
</svg>
