<svg xmlns="http://www.w3.org/2000/svg" viewBox="0 0 128 128"><path d="M13.92,6.44H34.35C46.54,6.44,57,10.9,57,25c0,13.65-10.64,19.58-22.32,19.58h-6V62.24H13.92ZM34,32.88c5.83,0,8.58-2.92,8.58-7.9s-3.26-6.87-8.93-6.87h-5V32.88Z" fill="#369"/><path d="M67.15,34.77C67.15,16.05,80,5.41,95,5.41a24.51,24.51,0,0,1,18.2,7.38l-7.73,8.93a13.63,13.63,0,0,0-10-3.61c-7.56,0-13.23,6-13.23,16.14,0,10.48,4.64,16.31,14.6,16.31a8.34,8.34,0,0,0,4.29-1V41.81H92.9v-12h21.29V56.4c-4,3.78-11,6.87-18.89,6.87C79.68,63.27,67.15,53.83,67.15,34.77Z" fill="#369"/><path d="M13.92,68.88H28.68V89.65H29L43.1,68.88H59.24L42.59,91.54l19.92,33.14H46.37L34,103.22l-5.33,7.55v13.91H13.92Z" fill="#c9134a"/><path d="M71.27,68.88H91.35c11.68,0,21.12,2.92,21.12,13.91,0,4.8-2.74,10.3-7,12v.35c5.33,1.54,9.62,5.66,9.62,13,0,11.5-10,16.48-22,16.48H71.27ZM91,90.68c4.81,0,7-2.23,7-5.66s-2.23-4.81-7-4.81H86V90.68Zm1,22.67c5.84,0,8.59-2.06,8.59-6.18S97.88,101.5,92,101.5H86v11.85Z" fill="#c9134a"/></svg>