<svg xmlns="http://www.w3.org/2000/svg" viewBox="0 0 41 20">
<defs>
<linearGradient id="cpgx-a" x1="10642.475" x2="10649.513" y1="10.614" y2="10.614" gradientTransform="matrix(-.89722 0 0 .87636 9589.15 6.786)" gradientUnits="userSpaceOnUse">
<stop offset="0" stop-color="#c91f4c"/>
<stop offset=".108" stop-color="#c41e49"/>
<stop offset=".22" stop-color="#b81c40"/>
<stop offset=".334" stop-color="#a31832"/>
<stop offset=".449" stop-color="#86131f"/>
<stop offset=".517" stop-color="#721011"/>
<stop offset=".522" stop-color="#741012"/>
<stop offset=".604" stop-color="#921527"/>
<stop offset=".689" stop-color="#aa1937"/>
<stop offset=".78" stop-color="#bb1c43"/>
<stop offset=".878" stop-color="#c51e49"/>
<stop offset="1" stop-color="#c91f4c"/>
</linearGradient>
</defs>
<path fill="#6996bc" d="M36.226 5.378c-.67-.26-1.39-.42-2.131-.496a19.01 19.01 0 0 0-2.295-.196c-.943-.094-1.84-.248-2.753-.634-1.359-.541-2.479-1.49-3.884-2.352-4.47-2.74-9.598 1.008-13.737 2.622-1.402.662-3.59 1.429-3.701 1.566.254.31 2.454-.212 4.005-.634 3.924-1.33 8.784-4.929 12.723-2.54 1.233.744 2.482 1.803 4.054 2.436 1.475.65 3.31.784 4.853.865a9.76 9.76 0 0 1 1.098.147c2.424.507 4.75 2.192 4.615 4.56-.13 1.12 1.474 1.224 1.49.1-.074-3.018-1.914-4.637-4.337-5.444Z"/>
<path fill="#99cc68" d="M36.67 5.088c-.499-2.217-3.044-3.915-5.39-3.584-1.48.103-2.967.456-4.097 1.251-1.751 1.233-4.793 1.87-7.314 1.05-1.589-.411-4.162-1.255-5.84-1.395-1.992-.32-6.576 1.159-6.534 1.381 0 0 4.887-.531 5.714-.39 1.867.095 4.498 1.025 6.317 1.56 2.706.916 5.85.314 8.271-1.085 1.13-.645 2.338-1.082 3.562-1.17.213-.025.42-.01.626-.002 2.048.248 3.933 2.057 3.288 4.094-.614 1.355-1.341 2.415-1.224 4.09.072 1.085 1.6.941 1.52-.139-.02-1.195.737-2.415 1.101-3.56a3.861 3.861 0 0 0 0-2.1Z"/>
<path fill="#6996bc" d="m26.918 2.867-1.358.571 1.4.927 1.365-.641-1.407-.857z"/>
<path fill="#33669a" d="M.468 13.486c0-.847.146-1.633.438-2.36.29-.725.698-1.355 1.22-1.888S3.274 8.286 4 7.984c.726-.303 1.524-.454 2.393-.454.495 0 .948.044 1.361.132a7.53 7.53 0 0 1 1.097.313 5.671 5.671 0 0 1 1.403.76c.253.197.285.45.099.758l-.215.33c-.187.287-.44.33-.759.132a17.17 17.17 0 0 0-.462-.28 4.324 4.324 0 0 0-.651-.306 5.97 5.97 0 0 0-.825-.239 4.612 4.612 0 0 0-.983-.099c-.681 0-1.286.116-1.814.347s-.98.547-1.354.948a4.04 4.04 0 0 0-.85 1.411 5.117 5.117 0 0 0-.287 1.733c0 .616.098 1.204.297 1.765.197.561.483 1.05.857 1.469s.828.75 1.361.998 1.136.371 1.807.371c.386 0 .743-.041 1.073-.124s.63-.181.899-.296c.27-.116.503-.24.702-.372.197-.132.362-.247.494-.346.298-.231.55-.21.76.066l.247.33c.209.275.181.528-.082.759-.155.12-.356.267-.603.437-.248.17-.545.333-.891.487-.346.154-.743.286-1.188.396s-.933.165-1.46.165c-.902 0-1.719-.157-2.45-.47a5.596 5.596 0 0 1-1.882-1.296 5.72 5.72 0 0 1-1.204-1.93 6.676 6.676 0 0 1-.421-2.393Z"/>
<path fill="#c91f4c" d="M12.532 19.327V7.989h4.981c2.38 0 3.705 1.632 3.705 3.553s-1.343 3.553-3.705 3.553h-2.992v4.232h-1.989Zm4.709-9.587h-2.72v3.604h2.72c1.122 0 1.938-.714 1.938-1.802s-.816-1.802-1.938-1.802Zm11.066-1.938c2.21 0 3.654 1.054 4.572 2.363l-1.632.918a3.61 3.61 0 0 0-2.94-1.513c-2.244 0-3.91 1.717-3.91 4.096 0 2.38 1.666 4.114 3.91 4.114 1.155 0 2.176-.544 2.685-1.02v-1.768H27.61v-1.75h5.372v4.249c-1.122 1.241-2.703 2.057-4.675 2.057-3.281 0-5.95-2.329-5.95-5.882 0-3.552 2.669-5.864 5.95-5.864Z"/>
<path fill="url(#cpgx-a)" d="M40.546 19.514h-1.249c0-1.386-1.081-2.162-2.333-3.061-1.281-.92-2.733-1.963-2.733-3.792h1.248c0 1.311 1.055 2.069 2.276 2.946 1.308.939 2.79 2.004 2.79 3.907Z"/>
<path fill="#c91f4d" d="M34.231 19.514h1.248c0-1.386 1.082-2.162 2.334-3.061 1.28-.92 2.733-1.963 2.733-3.792h-1.249c0 1.311-1.054 2.069-2.275 2.946-1.308.939-2.79 2.004-2.79 3.907Z"/>
</svg>
