<svg xmlns="http://www.w3.org/2000/svg" viewBox="0 0 32 32">
<defs>
<linearGradient id="lm-a" x1="10489.983" x2="10498.192" y1="20.567" y2="20.567" gradientTransform="matrix(-.89722 0 0 .87636 9443.175 7.775)" gradientUnits="userSpaceOnUse">
<stop offset="0" stop-color="#c91f4c"/>
<stop offset=".108" stop-color="#c41e49"/>
<stop offset=".22" stop-color="#b81c40"/>
<stop offset=".334" stop-color="#a31832"/>
<stop offset=".449" stop-color="#86131f"/>
<stop offset=".517" stop-color="#721011"/>
<stop offset=".522" stop-color="#741012"/>
<stop offset=".604" stop-color="#921527"/>
<stop offset=".689" stop-color="#aa1937"/>
<stop offset=".78" stop-color="#bb1c43"/>
<stop offset=".878" stop-color="#c51e49"/>
<stop offset="1" stop-color="#c91f4c"/>
</linearGradient>
</defs>
<path fill="#33669a" d="M.807 8.246c0-.905.156-1.745.467-2.52a6.093 6.093 0 0 1 1.305-2.02 5.999 5.999 0 0 1 2-1.339c.776-.323 1.628-.484 2.556-.484.53 0 1.014.047 1.455.14.44.094.83.206 1.172.335a6.102 6.102 0 0 1 1.498.811c.27.212.306.482.106.811l-.23.353c-.2.305-.47.352-.81.14-.13-.082-.294-.181-.494-.299s-.431-.226-.696-.326a6.359 6.359 0 0 0-.881-.256 4.932 4.932 0 0 0-1.05-.105c-.728 0-1.374.123-1.938.37S4.22 4.44 3.82 4.87c-.4.43-.702.932-.907 1.507-.206.576-.309 1.193-.309 1.851s.106 1.287.318 1.887c.211.599.516 1.122.916 1.568.4.447.884.802 1.454 1.067.57.264 1.214.396 1.93.396.411 0 .794-.044 1.146-.132a6.31 6.31 0 0 0 .96-.317 4.62 4.62 0 0 0 .75-.397c.212-.141.388-.264.53-.37.316-.247.587-.223.81.07l.264.353c.223.294.194.564-.088.81-.165.13-.379.286-.643.468-.265.182-.582.356-.952.52s-.793.306-1.27.423-.995.176-1.56.176c-.963 0-1.836-.167-2.617-.502a5.977 5.977 0 0 1-3.296-3.446 7.12 7.12 0 0 1-.45-2.556Zm13.115-5.57c0-.388.193-.582.581-.582h.546c.389 0 .583.194.583.582v9.219c0 .246.023.447.07.599.047.153.112.27.194.352.082.083.17.139.264.168.094.03.188.05.282.062a.67.67 0 0 1 .326.15c.089.076.133.197.133.361v.423c0 .188-.044.335-.133.44-.088.106-.243.16-.467.16-.235 0-.493-.027-.775-.08a1.902 1.902 0 0 1-.776-.335c-.235-.17-.432-.42-.59-.749-.159-.329-.238-.776-.238-1.34v-9.43Zm5.482 1.164c-.388 0-.582-.195-.582-.582v-.582c0-.388.194-.582.582-.582h.6c.387 0 .58.194.58.582v.582c0 .387-.193.581-.58.581h-.6ZM18.84 6.2c0-.388.193-.582.581-.582h.546c.389 0 .582.194.582.582v7.756c0 .388-.193.582-.582.582h-.546c-.388 0-.581-.194-.581-.582V6.201Zm4.477.001c0-.388.193-.582.581-.582h.494c.387 0 .582.194.582.582v.793c0 .118-.012.236-.036.353a.658.658 0 0 0-.017.159h.035c.082-.188.214-.406.397-.653.182-.246.414-.476.696-.687.282-.212.61-.39.987-.538s.81-.22 1.305-.22c1.057 0 1.83.285 2.317.855.488.57.732 1.425.732 2.564v5.13c0 .388-.194.582-.582.582h-.546c-.388 0-.582-.194-.582-.582V9.216c0-.318-.02-.612-.062-.882a1.97 1.97 0 0 0-.237-.705 1.257 1.257 0 0 0-.512-.476c-.223-.117-.51-.176-.863-.176a2.8 2.8 0 0 0-1.2.255 2.92 2.92 0 0 0-.942.697c-.265.293-.47.643-.617 1.048-.147.406-.22.838-.22 1.296v3.684c0 .388-.194.582-.582.582h-.547c-.388 0-.581-.194-.581-.582V6.201Z"/>
<path fill="#c91f4c" d="M.894 29.796V17.237h5.29c2.58 0 4.011 1.77 4.011 3.86s-1.45 3.86-4.01 3.86H2.777v4.84H.894ZM5.94 18.894H2.777V23.3H5.94c1.356 0 2.316-.885 2.316-2.203s-.96-2.203-2.316-2.203Zm11.714-1.864c2.354 0 3.916 1.073 4.97 2.485L21.1 20.4c-.715-.96-1.977-1.694-3.445-1.694-2.618 0-4.576 1.995-4.576 4.82 0 2.806 1.958 4.84 4.576 4.84 1.393 0 2.58-.679 3.182-1.244v-2.259h-4.03v-1.657h5.913v4.613c-1.205 1.337-2.938 2.222-5.065 2.222-3.597 0-6.515-2.598-6.515-6.515s2.918-6.496 6.515-6.496Z"/>
<path fill="url(#lm-a)" d="M31.389 29.796h-1.456c0-1.616-1.262-2.522-2.723-3.57-1.494-1.074-3.187-2.29-3.187-4.424h1.456c0 1.53 1.23 2.413 2.654 3.436 1.526 1.096 3.256 2.338 3.256 4.558Z"/>
<path fill="#c91f4d" d="M24.023 29.796h1.456c0-1.616 1.261-2.522 2.722-3.57 1.494-1.074 3.188-2.29 3.188-4.424h-1.456c0 1.53-1.23 2.413-2.655 3.436-1.526 1.096-3.255 2.338-3.255 4.558Z"/>
</svg>
