<svg xmlns="http://www.w3.org/2000/svg" viewBox="0 0 25 40">
<defs>
<linearGradient id="bm-a" x1="18.334" x2="18.334" y1="1.005" y2="7.179" gradientUnits="userSpaceOnUse">
<stop offset="0" stop-color="#fff" stop-opacity="0"/>
<stop offset=".296" stop-color="#99cc68" stop-opacity=".7"/>
<stop offset=".704" stop-color="#99cc68"/>
<stop offset=".986" stop-color="#99cc68"/>
</linearGradient>
<linearGradient id="bm-b" x1="3.935" x2="11.359" y1="12.713" y2="25.572" gradientUnits="userSpaceOnUse">
<stop offset="0" stop-color="#fff" stop-opacity="0"/>
<stop offset=".91" stop-color="#6996bc"/>
<stop offset="1" stop-color="#4a6c87"/>
</linearGradient>
<linearGradient id="bm-c" x1="23.848" x2="18.239" y1="39.917" y2="25.73" gradientUnits="userSpaceOnUse">
<stop offset=".844" stop-color="#6996bc"/>
<stop offset=".937" stop-color="#4f728f"/>
</linearGradient>
<linearGradient id="bm-d" x1="4.066" x2="11.958" y1="32.139" y2="28.38" gradientUnits="userSpaceOnUse">
<stop offset=".004" stop-color="#fff" stop-opacity="0"/>
<stop offset=".317" stop-color="#99cc68" stop-opacity=".5"/>
<stop offset=".523" stop-color="#99cc68" stop-opacity=".7"/>
<stop offset=".986" stop-color="#99cc68"/>
</linearGradient>
</defs>
<path fill="url(#bm-a)" fill-rule="evenodd" d="M20.401 25.042c6.085-4.536 6.102-20.143.226-24.365h-6.769c3.915 3.112 10.596 5.98 10.604 12.408 0 4.414-4.293 7.292-6.994 9.25-2.7 1.958-2.994 2.149-5.8 4.178.622 1.703.636 1.433 1.554 2.848 2.266-.906 1.094.218 7.179-4.319Z"/>
<path fill="url(#bm-b)" fill-rule="evenodd" d="M16.502 23.413C11.756 20.448 4.4 17.071.04 13.686c-.283 1.848 1.072 3.7 1.33 5.65 2.91 1.634 8.063 4.478 11.235 6.304"/>
<path fill="url(#bm-c)" fill-rule="evenodd" d="M16.212 27.645c1.627 1.247 4.405 3.826 5.695 5.29 1.358 1.544 2.41 3.405 2.528 6.069-.004.342-.001.54.185.627a.27.27 0 0 0 .38-.209c-.391-5.65-2.318-11.002-5.581-13.782"/>
<path fill="url(#bm-d)" fill-rule="evenodd" d="M20.401 25.042s-.232-4.665-2.933-2.707c-2.7 1.958-10.793 6.728-13.536 7.896.622 1.704 2.015 2.645 2.932 4.061 2.937-1.722 7.452-4.713 13.537-9.25Z"/>
<path fill="#c91f4c" d="M7.537 18.105V10.31h3.425c1.635 0 2.548 1.122 2.548 2.443s-.924 2.443-2.548 2.443H8.904v2.91H7.537Zm3.237-6.592h-1.87v2.478h1.87c.772 0 1.333-.49 1.333-1.239s-.561-1.239-1.333-1.239Zm7.613-1.333c1.52 0 2.512.725 3.143 1.625l-1.122.631a2.482 2.482 0 0 0-2.021-1.04c-1.543 0-2.689 1.181-2.689 2.817s1.146 2.829 2.689 2.829c.794 0 1.496-.374 1.846-.702v-1.215h-2.326V13.92H21.6v2.922c-.771.853-1.858 1.414-3.213 1.414-2.256 0-4.091-1.6-4.091-4.044s1.835-4.033 4.09-4.033Z"/>
<path fill="#33669a" d="M6.79 5.459c0-.533.094-1.031.28-1.492.188-.46.448-.86.785-1.2.336-.34.737-.607 1.2-.8s.978-.291 1.539-.291c.297 0 .573.025.826.077s.48.114.681.187c.2.073.377.153.53.24.152.086.277.164.375.233.207.16.235.36.083.603l-.188.302c-.138.228-.336.263-.593.104a4.472 4.472 0 0 0-.665-.338 2.527 2.527 0 0 0-.997-.182c-.402 0-.757.068-1.065.203a2.206 2.206 0 0 0-.775.55 2.368 2.368 0 0 0-.473.811 2.934 2.934 0 0 0-.161.972c0 .346.055.68.167.998.11.319.271.6.483.842.211.242.47.437.78.582.307.146.66.218 1.054.218.208 0 .403-.022.588-.067.183-.045.352-.1.504-.162.152-.062.289-.13.41-.208.121-.076.224-.145.307-.207.242-.18.443-.156.602.073l.208.28c.167.222.146.423-.062.603a5.588 5.588 0 0 1-.4.286 3.665 3.665 0 0 1-.572.301 4.322 4.322 0 0 1-.737.234 4.05 4.05 0 0 1-.9.094 4.019 4.019 0 0 1-1.575-.296 3.604 3.604 0 0 1-1.2-.811 3.57 3.57 0 0 1-.77-1.222 4.223 4.223 0 0 1-.27-1.517Z"/>
</svg>
