<svg xmlns="http://www.w3.org/2000/svg" xmlns:xlink="http://www.w3.org/1999/xlink" viewBox="0 0 122 34">
<defs>
<linearGradient id="l-b" x1="53.437" x2="121.386" y1="8.676" y2="8.676" gradientUnits="userSpaceOnUse">
<stop offset=".12" stop-color="#6996bc"/>
<stop offset=".19" stop-color="#33669a"/>
<stop offset=".26" stop-color="#6996bc"/>
<stop offset=".84" stop-color="#6996bc"/>
<stop offset=".89" stop-color="#33669a"/>
<stop offset=".92" stop-color="#6996bc"/>
</linearGradient>
<linearGradient id="l-c" x1="69.02" x2="101.961" y1="23.16" y2="-8.65" gradientUnits="userSpaceOnUse">
<stop offset=".55" stop-color="#99cc68"/>
<stop offset=".62" stop-color="#648831"/>
<stop offset=".71" stop-color="#99cc68"/>
</linearGradient>
<linearGradient id="l-d" x1="111.955" x2="105.341" y1="21.2" y2="21.737" gradientTransform="rotate(4 226.387 92.44)" gradientUnits="userSpaceOnUse">
<stop offset=".352" stop-color="#6996bc"/>
<stop offset=".7" stop-color="#99cc68"/>
</linearGradient>
<linearGradient xlink:href="#l-d" id="l-e" x1="108.887" x2="108.887" y1="6.299" y2="2.989"/>
<linearGradient xlink:href="#l-d" id="l-f" x1="84.939" x2="84.939" y1="2.003" y2="6.696"/>
<linearGradient xlink:href="#l-d" id="l-g" x1="79.949" x2="79.949" y1="2.003" y2="6.696"/>
<linearGradient xlink:href="#l-d" id="l-h" x1="74.485" x2="74.485" y1="2.266" y2="5.871"/>
<linearGradient xlink:href="#l-d" id="l-i" x1="104.055" x2="104.055" y1="6.299" y2="2.989"/>
<linearGradient xlink:href="#l-d" id="l-j" x1="98.757" x2="98.757" y1="6.299" y2="2.989"/>
<linearGradient xlink:href="#l-d" id="l-k" x1="103.02" x2="103.02" y1="-141.079" y2="-144.389" gradientTransform="matrix(.80993 -.58653 .22912 .3164 9.353 111.429)"/>
<linearGradient xlink:href="#l-d" id="l-l" x1="80.732" x2="80.732" y1="-54.331" y2="-57.641" gradientTransform="matrix(.93228 -.36174 .22525 .58051 -5.391 68.46)"/>
<linearGradient id="l-m" x1="10637.551" x2="10652.626" y1="10.989" y2="10.989" gradientTransform="matrix(-.89722 0 0 .87636 9665.573 16.289)" gradientUnits="userSpaceOnUse">
<stop offset="0" stop-color="#c91f4c"/>
<stop offset=".108" stop-color="#c41e49"/>
<stop offset=".22" stop-color="#b81c40"/>
<stop offset=".334" stop-color="#a31832"/>
<stop offset=".449" stop-color="#86131f"/>
<stop offset=".517" stop-color="#721011"/>
<stop offset=".522" stop-color="#741012"/>
<stop offset=".604" stop-color="#921527"/>
<stop offset=".689" stop-color="#aa1937"/>
<stop offset=".78" stop-color="#bb1c43"/>
<stop offset=".878" stop-color="#c51e49"/>
<stop offset="1" stop-color="#c91f4c"/>
</linearGradient>
</defs>
<path fill="url(#l-b)" d="M104.111 6.791c-3.075-.25-6.13-.648-9.002-1.752-2.897-1.053-6.61-3.296-12.46-4.032C76.8.27 72.411 1.826 67.934 3.31c-5.977 2.07-15.21 5.662-14.454 6.293.43.152 11.447-4.093 14.26-4.954 4.432-1.37 9.287-2.983 14.077-2.417 4.864.574 9.083 2.942 12.839 4.498 2.724 1.128 6.243 1.733 9.425 1.963 4.974.36 14.66.695 14.66 6.503 0 1.715 2.645 1.812 2.645.105 0-8.148-11.688-8.057-17.275-8.51Z"/>
<path fill="url(#l-c)" d="M106.943.436C96.949-.812 89.978 6.301 81.278 6.33c-3.725.012-8.947-1.043-12.978-2.173-5.356-1.5-16.117 1.636-15.582 2.122.293.266 8.956-2.587 14.936-.823 3.11.917 9.714 2.467 13.875 2.467 6.594 0 13.181-3.507 17.339-5.044 5.594-2.067 14.66.068 14.597 4.933-.183 2.187-5.522 2.884-5.572 7.567-.017 1.536 2.639 1.596 2.639-.184 0-2.904 4.928-3.488 5.24-6.855.355-3.806-3.87-7.283-8.829-7.903Z"/>
<path fill="#6996bc" d="m91.548 3.543-2.135.884 2.749 1.212 2.168-.9-2.782-1.196z"/>
<path fill="url(#l-d)" d="m109.6 13.933.048-.899c.05.003 5.057.26 9.13-.229l.107.894c-4.151.498-9.234.237-9.285.234Z"/>
<path fill="url(#l-e)" d="m108.785 7.811-.842-.316c.754-2.012.873-3.551.96-4.675l.031-.396.897.078-.031.387c-.086 1.111-.215 2.79-1.015 4.922Z"/>
<path fill="url(#l-f)" d="m85.048 6.847-.87-.23c.473-1.797.663-2.593.616-4.288l.9-.024c.05 1.814-.163 2.703-.646 4.542Z"/>
<path fill="url(#l-g)" d="M79.605 6.827c-.221-2.147-.255-3.295-.147-5.119l.898.053c-.104 1.767-.072 2.882.144 4.973l-.895.093Z"/>
<path fill="url(#l-h)" d="m74.173 6.397-.089-.731c-.194-1.587-.234-1.918-.107-3.435l.897.075c-.12 1.425-.09 1.669.103 3.25l.09.734-.894.107Z"/>
<path fill="url(#l-i)" d="M103.143 7.179c-.051-2.238.567-4.84 1.013-5.782l.813.385c-.418.882-.972 3.355-.927 5.376l-.9.02Z"/>
<path fill="url(#j)" d="M98.286 6.662c-.296-1.721-.216-3.163.256-4.673l.86.268c-.434 1.386-.502 2.658-.23 4.253l-.886.152Z"/>
<path fill="url(#l-k)" d="M60.155 7.02c-.541-.687-.788-1.763-.752-2.244l.548-.21c-.034.45.219 1.458.708 2.08l-.504.374Z"/>
<path fill="url(#l-l)" d="M57.411 8.046c-.58-.925-.853-1.782-.886-2.778l.62-.061c.03.914.272 1.67.808 2.526l-.542.313Z"/>
<path fill="url(#l-m)" d="M121.386 33.259h-2.673c0-2.967-2.317-4.63-5-6.557-2.743-1.97-5.853-4.204-5.853-8.122h2.674c0 2.81 2.259 4.431 4.875 6.31 2.802 2.012 5.977 4.293 5.977 8.369Z"/>
<path fill="#c91f4c" d="M107.86 33.259h2.674c0-2.967 2.317-4.63 4.999-6.557 2.744-1.97 5.853-4.204 5.853-8.122h-2.673c0 2.81-2.26 4.431-4.875 6.31-2.802 2.012-5.978 4.293-5.978 8.369Z"/>
<path fill="#33669a" d="M.564 21.146c0-1.745.3-3.366.9-4.862s1.44-2.794 2.517-3.893c1.077-1.1 2.363-1.96 3.859-2.584 1.496-.623 3.14-.935 4.93-.935 1.02 0 1.955.09 2.805.272.85.181 1.604.397 2.26.646a11.723 11.723 0 0 1 2.89 1.564c.522.408.59.93.205 1.564l-.442.68c-.385.59-.907.68-1.564.272-.25-.158-.567-.351-.952-.578a8.859 8.859 0 0 0-1.343-.63 12.153 12.153 0 0 0-1.7-.492 9.468 9.468 0 0 0-2.023-.204c-1.406 0-2.652.238-3.74.714s-2.018 1.128-2.788 1.955a8.319 8.319 0 0 0-1.751 2.907 10.545 10.545 0 0 0-.595 3.57c0 1.27.204 2.482.612 3.638.408 1.156.998 2.165 1.768 3.026s1.705 1.547 2.805 2.057 2.34.765 3.723.765c.793 0 1.53-.085 2.21-.255.68-.17 1.297-.374 1.853-.612s1.037-.493 1.445-.765.748-.51 1.02-.714c.612-.476 1.134-.43 1.564.136l.51.68c.43.567.374 1.088-.17 1.564-.317.25-.731.55-1.241.9-.51.352-1.122.687-1.836 1.004-.714.318-1.53.59-2.448.816-.918.226-1.921.34-3.01.34-1.858 0-3.541-.323-5.048-.97-1.508-.645-2.8-1.534-3.876-2.668a11.795 11.795 0 0 1-2.482-3.978c-.579-1.518-.867-3.162-.867-4.93Zm24.717-10.744c0-.748.374-1.122 1.122-1.122h1.054c.748 0 1.122.374 1.122 1.122v17.782c0 .476.046.862.137 1.156.09.295.215.521.374.68.158.159.328.267.51.323.18.057.362.097.544.119.249.045.459.142.628.289.17.148.255.38.255.697v.816c0 .363-.085.646-.255.85s-.47.306-.9.306c-.454 0-.953-.051-1.497-.153s-1.042-.317-1.496-.646c-.453-.328-.833-.81-1.139-1.445-.305-.634-.459-1.496-.459-2.584v-18.19Zm9.996 2.244c-.748 0-1.122-.374-1.122-1.122v-1.122c0-.748.374-1.122 1.122-1.122h1.157c.748 0 1.122.374 1.122 1.122v1.122c0 .748-.374 1.122-1.122 1.122h-1.157Zm-1.088 4.556c0-.748.374-1.122 1.122-1.122h1.054c.748 0 1.122.374 1.122 1.122v14.96c0 .748-.374 1.122-1.122 1.122h-1.054c-.748 0-1.122-.374-1.122-1.122v-14.96Zm7.718 0c0-.748.374-1.122 1.122-1.122h.952c.748 0 1.122.374 1.122 1.122v1.53c0 .227-.023.454-.068.68-.022.09-.034.193-.034.306h.068c.159-.362.413-.782.765-1.258a6.51 6.51 0 0 1 1.344-1.326 8.008 8.008 0 0 1 1.903-1.037c.726-.283 1.564-.425 2.517-.425 2.04 0 3.53.55 4.47 1.649.94 1.1 1.411 2.748 1.411 4.947v9.894c0 .748-.374 1.122-1.122 1.122h-1.053c-.748 0-1.122-.374-1.122-1.122v-9.146c0-.612-.04-1.178-.12-1.7a3.799 3.799 0 0 0-.459-1.36 2.421 2.421 0 0 0-.986-.918c-.43-.226-.986-.34-1.666-.34-.839 0-1.61.164-2.311.493a5.624 5.624 0 0 0-1.82 1.343 6.09 6.09 0 0 0-1.19 2.023 7.285 7.285 0 0 0-.425 2.499v7.106c0 .748-.374 1.122-1.122 1.122h-1.054c-.748 0-1.122-.374-1.122-1.122v-14.96Z"/>
<path fill="#c91f4c" d="M62.285 33.284V9.275H72.4c4.932 0 7.667 3.383 7.667 7.379s-2.771 7.379-7.667 7.379h-6.514v9.25h-3.6Zm9.647-20.841h-6.047v8.422h6.047c2.591 0 4.427-1.692 4.427-4.211s-1.836-4.212-4.427-4.212Zm22.93-3.564c4.5 0 7.488 2.052 9.503 4.751l-2.916 1.692c-1.368-1.836-3.78-3.24-6.587-3.24-5.004 0-8.747 3.816-8.747 9.215 0 5.364 3.743 9.251 8.747 9.251 2.663 0 4.932-1.296 6.083-2.376v-4.319h-7.703v-3.168h11.303v8.82c-2.304 2.555-5.615 4.247-9.683 4.247-6.875 0-12.454-4.968-12.454-12.455S87.988 8.88 94.862 8.88Z"/>
</svg>
