<?xml version="1.0" encoding="UTF-8"?>
<svg id="Layer_1" data-name="Layer 1" xmlns="http://www.w3.org/2000/svg" xmlns:xlink="http://www.w3.org/1999/xlink" viewBox="50 0 100 100">
  <defs>
    <style>
      .cls-1 {
        fill: url(#linear-gradient);
      }

      .cls-1, .cls-2, .cls-3, .cls-4, .cls-5, .cls-6, .cls-7, .cls-8, .cls-9, .cls-10 {
        stroke-width: 0px;
      }

      .cls-2 {
        fill: url(#radial-gradient);
      }

      .cls-3 {
        fill: url(#radial-gradient-2);
      }

      .cls-4 {
        fill: url(#linear-gradient-4);
      }

      .cls-5 {
        fill: url(#linear-gradient-2);
      }

      .cls-6 {
        fill: url(#linear-gradient-3);
      }

      .cls-7 {
        fill: url(#linear-gradient-7);
      }

      .cls-8 {
        fill: url(#linear-gradient-5);
      }

      .cls-9 {
        fill: url(#linear-gradient-6);
      }

      .cls-10 {
        fill: #c9134a;
      }
    </style>
    <linearGradient id="linear-gradient" x1="-112.58" y1="73.77" x2="-103.9" y2="73.77" gradientTransform="translate(-10.46) rotate(-180) scale(1 -1)" gradientUnits="userSpaceOnUse">
      <stop offset="0" stop-color="#9ea1a3"/>
      <stop offset=".16" stop-color="#a7a9ab"/>
      <stop offset="1" stop-color="#d3d4d6"/>
    </linearGradient>
    <linearGradient id="linear-gradient-2" x1="-97.13" y1="51.55" x2="-115.87" y2="51.55" xlink:href="#linear-gradient"/>
    <linearGradient id="linear-gradient-3" x1="-116.24" y1="56.65" x2="-101.62" y2="56.65" xlink:href="#linear-gradient"/>
    <linearGradient id="linear-gradient-4" x1="-121.43" y1="46.31" x2="-100.58" y2="46.31" xlink:href="#linear-gradient"/>
    <linearGradient id="linear-gradient-5" x1="-103.82" y1="82.61" x2="-103.82" y2="38.2" gradientTransform="translate(-10.46) rotate(-180) scale(1 -1)" gradientUnits="userSpaceOnUse">
      <stop offset="0" stop-color="#000"/>
      <stop offset=".21" stop-color="#262626"/>
      <stop offset=".44" stop-color="#494949"/>
      <stop offset=".65" stop-color="#636363"/>
      <stop offset=".84" stop-color="#727272"/>
      <stop offset="1" stop-color="#787878"/>
    </linearGradient>
    <radialGradient id="radial-gradient" cx="-96.52" cy="37.16" fx="-96.52" fy="37.16" r="3.92" gradientTransform="translate(-10.46) rotate(-180) scale(1 -1)" gradientUnits="userSpaceOnUse">
      <stop offset="0" stop-color="#000"/>
      <stop offset=".21" stop-color="#262626"/>
      <stop offset=".44" stop-color="#494949"/>
      <stop offset=".65" stop-color="#636363"/>
      <stop offset=".84" stop-color="#727272"/>
      <stop offset="1" stop-color="#787878"/>
    </radialGradient>
    <radialGradient id="radial-gradient-2" cx="-117.72" cy="17.88" fx="-117.72" fy="17.88" r="5.37" xlink:href="#radial-gradient"/>
    <linearGradient id="linear-gradient-6" x1="-128.31" y1="55.71" x2="-99.47" y2="55.71" xlink:href="#linear-gradient-5"/>
    <linearGradient id="linear-gradient-7" x1="-106.55" y1="87.24" x2="-105.88" y2="87.24" gradientTransform="translate(-10.46) rotate(-180) scale(1 -1)" gradientUnits="userSpaceOnUse">
      <stop offset="0" stop-color="#f05a28"/>
      <stop offset="1" stop-color="#faaf40"/>
    </linearGradient>
  </defs>
  <path class="cls-1" d="m102.13,72.58h-7.34c-.54.81-.97,1.58-1.34,2.38h8.68v-2.38Z"/>
  <path class="cls-5" d="m105.41,50.03h-18.74v3.05h16.9c.67-1,1.31-2.01,1.85-3.05h0Z"/>
  <g>
    <path class="cls-6" d="m105.78,55.12h-14.62c.64,1.07,1.47,2.08,2.41,3.05h12.2v-3.05Z"/>
    <path class="cls-4" d="m110.98,44.8h-19.54c-.61,1.07-1.04,2.08-1.31,3.02h20.85v-3.02Z"/>
  </g>
  <path class="cls-8" d="m102.06,82.61c9.89-23.16-29.34-21.99-7.04-44.41-33.49,24.54,14.65,26.55,7.04,44.41h0Z"/>
  <path class="cls-2" d="m86.07,33.23c-2.18,0-3.92,1.75-3.92,3.92s1.75,3.92,3.92,3.92,3.92-1.74,3.92-3.92-1.74-3.92-3.92-3.92h0Z"/>
  <path class="cls-10" d="m97.81,69.99c-.68-.61-1.4-1.21-2.15-1.79.93-1.15,1.96-2.31,3.03-3.5.73.77,1.42,1.57,2.04,2.41-1.04.96-2.02,1.93-2.92,2.88Z"/>
  <path class="cls-3" d="m107.27,23.26c-2.95,0-5.36-2.41-5.36-5.4s2.41-5.36,5.36-5.36,5.36,2.41,5.36,5.36-2.38,5.4-5.36,5.4Z"/>
  <path class="cls-9" d="m109.13,44.73c1.68-6.8-.54-19.78-9.82-19.1,8.78-5.86,31.05,11.03,9.29,31.27-7.62,7.1-16.98,13.66-18.03,20.44h9.81c.17.77.2,1.54.1,2.38h-9.92c.35,2.37,1.84,4.77,4.86,7.25-18.78-15.11,9.3-24.41,13.71-42.24Z"/>
  <path class="cls-7" d="m95.42,86.97c.22.18.44.35.67.53-.23-.18-.45-.35-.67-.53Z"/>
</svg>